<ttFont>
<head>
    <!-- Most of this table will be recalculated by the compiler -->
    <tableVersion value="1.0"/>
    <fontRevision value="1.301"/>
    <checkSumAdjustment value="0xc3a3f7cd"/>
    <magicNumber value="0x5f0f3cf5"/>
    <flags value="00000000 00001011"/>
    <unitsPerEm value="1000"/>
    <created value="Tue Jul  1 21:12:00 2008"/>
    <modified value="Thu Mar  6 18:33:46 2014"/>
    <xMin value="-226"/>
    <yMin value="-323"/>
    <xMax value="1349"/>
    <yMax value="1147"/>
    <macStyle value="00000000 00000000"/>
    <lowestRecPPEM value="9"/>
    <fontDirectionHint value="2"/>
    <indexToLocFormat value="0"/>
    <glyphDataFormat value="0"/>
  </head>
    <TTGlyph name="A" xMin="-3" yMin="0" xMax="690" yMax="743">
      <contour>
        <pt x="558" y="0" on="1"/>
        <pt x="487" y="168" on="1"/>
        <pt x="197" y="168" on="1"/>
        <pt x="126" y="0" on="1"/>
        <pt x="-3" y="0" on="1"/>
        <pt x="335" y="743" on="1"/>
        <pt x="353" y="743" on="1"/>
        <pt x="690" y="0" on="1"/>
      </contour>
      <contour>
        <pt x="342" y="512" on="1"/>
        <pt x="238" y="267" on="1"/>
        <pt x="446" y="267" on="1"/>
      </contour>
    </TTGlyph>
    <TTGlyph name="AE" xMin="-6" yMin="0" xMax="950" yMax="733">
      <contour>
        <pt x="504" y="0" on="1"/>
        <pt x="504" y="180" on="1"/>
        <pt x="259" y="180" on="1"/>
        <pt x="137" y="0" on="1"/>
        <pt x="-6" y="0" on="1"/>
        <pt x="504" y="733" on="1"/>
        <pt x="950" y="733" on="1"/>
        <pt x="950" y="619" on="1"/>
        <pt x="629" y="619" on="1"/>
        <pt x="629" y="427" on="1"/>
        <pt x="919" y="427" on="1"/>
        <pt x="919" y="317" on="1"/>
        <pt x="629" y="317" on="1"/>
        <pt x="629" y="114" on="1"/>
        <pt x="950" y="114" on="1"/>
        <pt x="950" y="0" on="1"/>
      </contour>
      <contour>
        <pt x="504" y="549" on="1"/>
        <pt x="326" y="283" on="1"/>
        <pt x="504" y="283" on="1"/>
      </contour>
    </TTGlyph>
    <TTGlyph name="AEacute" xMin="-6" yMin="0" xMax="950" yMax="980">
      <component glyphName="acute" x="485" y="312" flags="0x4"/>
      <component glyphName="AE" x="0" y="0" flags="0x4"/>
    </TTGlyph>
    <TTGlyph name="Aacute" xMin="-3" yMin="0" xMax="690" yMax="980">
      <component glyphName="A" x="0" y="0" flags="0x204"/>
      <component glyphName="acute" x="164" y="312" flags="0x4"/>
    </TTGlyph>
    <TTGlyph name="Abreve" xMin="-3" yMin="0" xMax="690" yMax="945">
      <component glyphName="A" x="0" y="0" flags="0x204"/>
      <component glyphName="breve" x="108" y="312" flags="0x4"/>
    </TTGlyph>
    <TTGlyph name="Acircumflex" xMin="-3" yMin="0" xMax="690" yMax="982">
      <component glyphName="A" x="0" y="0" flags="0x204"/>
      <component glyphName="circumflex" x="105" y="312" flags="0x4"/>
    </TTGlyph>
    <TTGlyph name="Adieresis" xMin="-3" yMin="0" xMax="690" yMax="932">
      <component glyphName="A" x="0" y="0" flags="0x204"/>
      <component glyphName="dieresis" x="108" y="312" flags="0x4"/>
    </TTGlyph>
    <TTGlyph name="Agrave" xMin="-3" yMin="0" xMax="690" yMax="979">
      <component glyphName="A" x="0" y="0" flags="0x204"/>
      <component glyphName="grave" x="31" y="312" flags="0x4"/>
    </TTGlyph>
    <TTGlyph name="Amacron" xMin="-3" yMin="0" xMax="690" yMax="902">
      <component glyphName="A" x="0" y="0" flags="0x204"/>
      <component glyphName="macron" x="108" y="312" flags="0x4"/>
    </TTGlyph>
    <TTGlyph name="Aogonek" xMin="-3" yMin="-222" xMax="693" yMax="743">
      <contour>
        <pt x="693" y="-173" on="1"/>
        <pt x="673" y="-195" on="0"/>
        <pt x="624" y="-221" on="0"/>
        <pt x="590" y="-222" on="1"/>
        <pt x="548" y="-222" on="0"/>
        <pt x="499" y="-173" on="0"/>
        <pt x="500" y="-134" on="1"/>
        <pt x="500" y="-100" on="0"/>
        <pt x="536" y="-39" on="0"/>
        <pt x="572" y="0" on="1"/>
        <pt x="558" y="0" on="1"/>
        <pt x="487" y="168" on="1"/>
        <pt x="197" y="168" on="1"/>
        <pt x="126" y="0" on="1"/>
        <pt x="-3" y="0" on="1"/>
        <pt x="335" y="743" on="1"/>
        <pt x="353" y="743" on="1"/>
        <pt x="690" y="0" on="1"/>
        <pt x="642" y="0" on="1"/>
        <pt x="612" y="-38" on="0"/>
        <pt x="581" y="-92" on="0"/>
        <pt x="581" y="-116" on="1"/>
        <pt x="581" y="-133" on="0"/>
        <pt x="599" y="-152" on="0"/>
        <pt x="614" y="-152" on="1"/>
        <pt x="628" y="-152" on="0"/>
        <pt x="649" y="-140" on="0"/>
        <pt x="661" y="-128" on="1"/>
      </contour>
      <contour>
        <pt x="342" y="512" on="1"/>
        <pt x="238" y="267" on="1"/>
        <pt x="446" y="267" on="1"/>
      </contour>
    </TTGlyph>
    <TTGlyph name="Aring" xMin="-3" yMin="0" xMax="690" yMax="925">
      <contour>
        <pt x="461" y="811" on="1"/>
        <pt x="461" y="770" on="0"/>
        <pt x="413" y="708" on="0"/>
        <pt x="371" y="700" on="1"/>
        <pt x="690" y="0" on="1"/>
        <pt x="558" y="0" on="1"/>
        <pt x="487" y="168" on="1"/>
        <pt x="197" y="168" on="1"/>
        <pt x="126" y="0" on="1"/>
        <pt x="-3" y="0" on="1"/>
        <pt x="315" y="700" on="1"/>
        <pt x="273" y="709" on="0"/>
        <pt x="226" y="771" on="0"/>
        <pt x="226" y="811" on="1"/>
        <pt x="226" y="834" on="0"/>
        <pt x="243" y="875" on="0"/>
        <pt x="273" y="907" on="0"/>
        <pt x="316" y="925" on="0"/>
        <pt x="343" y="925" on="1"/>
        <pt x="370" y="925" on="0"/>
        <pt x="414" y="907" on="0"/>
        <pt x="444" y="875" on="0"/>
        <pt x="461" y="834" on="0"/>
      </contour>
      <contour>
        <pt x="342" y="512" on="1"/>
        <pt x="238" y="267" on="1"/>
        <pt x="446" y="267" on="1"/>
      </contour>
      <contour>
        <pt x="394" y="811" on="1"/>
        <pt x="394" y="836" on="0"/>
        <pt x="365" y="868" on="0"/>
        <pt x="343" y="868" on="1"/>
        <pt x="322" y="868" on="0"/>
        <pt x="294" y="837" on="0"/>
        <pt x="294" y="811" on="1"/>
        <pt x="294" y="785" on="0"/>
        <pt x="322" y="754" on="0"/>
        <pt x="343" y="754" on="1"/>
        <pt x="365" y="754" on="0"/>
        <pt x="394" y="785" on="0"/>
      </contour>
    </TTGlyph>
    <TTGlyph name="Aringacute" xMin="-3" yMin="0" xMax="690" yMax="1147">
      <component glyphName="acute" x="160" y="479" flags="0x4"/>
      <component glyphName="Aring" x="0" y="0" flags="0x4"/>
    </TTGlyph>
    <TTGlyph name="Atilde" xMin="-3" yMin="0" xMax="690" yMax="931">
      <component glyphName="A" x="0" y="0" flags="0x204"/>
      <component glyphName="tilde" x="110" y="312" flags="0x4"/>
    </TTGlyph>
    <TTGlyph name="B" xMin="80" yMin="-7" xMax="576" yMax="739">
      <contour>
        <pt x="576" y="204" on="1"/>
        <pt x="576" y="163" on="0"/>
        <pt x="538" y="87" on="0"/>
        <pt x="463" y="28" on="0"/>
        <pt x="352" y="-7" on="0"/>
        <pt x="278" y="-7" on="1"/>
        <pt x="231" y="-7" on="0"/>
        <pt x="128" y="1" on="0"/>
        <pt x="80" y="7" on="1"/>
        <pt x="80" y="725" on="1"/>
        <pt x="121" y="731" on="0"/>
        <pt x="223" y="739" on="0"/>
        <pt x="268" y="739" on="1"/>
        <pt x="340" y="739" on="0"/>
        <pt x="448" y="707" on="0"/>
        <pt x="520" y="653" on="0"/>
        <pt x="556" y="584" on="0"/>
        <pt x="556" y="547" on="1"/>
        <pt x="556" y="489" on="0"/>
        <pt x="497" y="406" on="0"/>
        <pt x="428" y="380" on="1"/>
        <pt x="509" y="357" on="0"/>
        <pt x="576" y="265" on="0"/>
      </contour>
      <contour>
        <pt x="427" y="526" on="1"/>
        <pt x="427" y="572" on="0"/>
        <pt x="359" y="631" on="0"/>
        <pt x="290" y="631" on="1"/>
        <pt x="267" y="631" on="0"/>
        <pt x="222" y="627" on="0"/>
        <pt x="203" y="624" on="1"/>
        <pt x="203" y="421" on="1"/>
        <pt x="230" y="418" on="0"/>
        <pt x="277" y="418" on="1"/>
        <pt x="356" y="418" on="0"/>
        <pt x="427" y="480" on="0"/>
      </contour>
      <contour>
        <pt x="442" y="217" on="1"/>
        <pt x="442" y="265" on="0"/>
        <pt x="360" y="329" on="0"/>
        <pt x="279" y="329" on="1"/>
        <pt x="259" y="329" on="0"/>
        <pt x="216" y="328" on="0"/>
        <pt x="203" y="326" on="1"/>
        <pt x="203" y="106" on="1"/>
        <pt x="222" y="104" on="0"/>
        <pt x="266" y="101" on="0"/>
        <pt x="292" y="101" on="1"/>
        <pt x="367" y="101" on="0"/>
        <pt x="442" y="165" on="0"/>
      </contour>
    </TTGlyph>
    <TTGlyph name="C" xMin="55" yMin="-12" xMax="689" yMax="745">
      <contour>
        <pt x="689" y="57" on="1"/>
        <pt x="643" y="28" on="0"/>
        <pt x="519" y="-12" on="0"/>
        <pt x="450" y="-12" on="1"/>
        <pt x="363" y="-12" on="0"/>
        <pt x="218" y="45" on="0"/>
        <pt x="113" y="146" on="0"/>
        <pt x="55" y="284" on="0"/>
        <pt x="55" y="366" on="1"/>
        <pt x="55" y="447" on="0"/>
        <pt x="114" y="586" on="0"/>
        <pt x="219" y="688" on="0"/>
        <pt x="364" y="745" on="0"/>
        <pt x="450" y="745" on="1"/>
        <pt x="519" y="745" on="0"/>
        <pt x="639" y="707" on="0"/>
        <pt x="686" y="678" on="1"/>
        <pt x="643" y="572" on="1"/>
        <pt x="599" y="597" on="0"/>
        <pt x="497" y="628" on="0"/>
        <pt x="448" y="628" on="1"/>
        <pt x="388" y="628" on="0"/>
        <pt x="292" y="590" on="0"/>
        <pt x="225" y="521" on="0"/>
        <pt x="189" y="424" on="0"/>
        <pt x="189" y="366" on="1"/>
        <pt x="189" y="308" on="0"/>
        <pt x="226" y="212" on="0"/>
        <pt x="294" y="143" on="0"/>
        <pt x="391" y="105" on="0"/>
        <pt x="451" y="105" on="1"/>
        <pt x="500" y="105" on="0"/>
        <pt x="606" y="137" on="0"/>
        <pt x="651" y="163" on="1"/>
      </contour>
    </TTGlyph>
    <TTGlyph name="Cacute" xMin="55" yMin="-12" xMax="689" yMax="980">
      <component glyphName="acute" x="244" y="312" flags="0x4"/>
      <component glyphName="C" x="0" y="0" flags="0x4"/>
    </TTGlyph>
    <TTGlyph name="Ccaron" xMin="55" yMin="-12" xMax="689" yMax="976">
      <component glyphName="caron" x="191" y="312" flags="0x4"/>
      <component glyphName="C" x="0" y="0" flags="0x4"/>
    </TTGlyph>
    <TTGlyph name="Ccedilla" xMin="55" yMin="-249" xMax="689" yMax="745">
      <contour>
        <pt x="559" y="-147" on="1"/>
        <pt x="559" y="-167" on="0"/>
        <pt x="545" y="-204" on="0"/>
        <pt x="516" y="-232" on="0"/>
        <pt x="473" y="-249" on="0"/>
        <pt x="445" y="-249" on="1"/>
        <pt x="389" y="-249" on="0"/>
        <pt x="325" y="-211" on="1"/>
        <pt x="353" y="-150" on="1"/>
        <pt x="405" y="-183" on="0"/>
        <pt x="448" y="-183" on="1"/>
        <pt x="484" y="-183" on="0"/>
        <pt x="484" y="-149" on="1"/>
        <pt x="484" y="-133" on="0"/>
        <pt x="443" y="-106" on="0"/>
        <pt x="388" y="-104" on="1"/>
        <pt x="384" y="-95" on="1"/>
        <pt x="406" y="-10" on="1"/>
        <pt x="328" y="-3" on="0"/>
        <pt x="199" y="59" on="0"/>
        <pt x="106" y="158" on="0"/>
        <pt x="55" y="289" on="0"/>
        <pt x="55" y="366" on="1"/>
        <pt x="55" y="447" on="0"/>
        <pt x="114" y="586" on="0"/>
        <pt x="219" y="688" on="0"/>
        <pt x="364" y="745" on="0"/>
        <pt x="450" y="745" on="1"/>
        <pt x="519" y="745" on="0"/>
        <pt x="639" y="707" on="0"/>
        <pt x="686" y="678" on="1"/>
        <pt x="643" y="572" on="1"/>
        <pt x="599" y="597" on="0"/>
        <pt x="497" y="628" on="0"/>
        <pt x="448" y="628" on="1"/>
        <pt x="388" y="628" on="0"/>
        <pt x="292" y="590" on="0"/>
        <pt x="225" y="521" on="0"/>
        <pt x="189" y="424" on="0"/>
        <pt x="189" y="366" on="1"/>
        <pt x="189" y="308" on="0"/>
        <pt x="226" y="212" on="0"/>
        <pt x="294" y="143" on="0"/>
        <pt x="391" y="105" on="0"/>
        <pt x="451" y="105" on="1"/>
        <pt x="500" y="105" on="0"/>
        <pt x="606" y="137" on="0"/>
        <pt x="651" y="163" on="1"/>
        <pt x="689" y="57" on="1"/>
        <pt x="644" y="28" on="0"/>
        <pt x="526" y="-10" on="0"/>
        <pt x="460" y="-12" on="1"/>
        <pt x="452" y="-46" on="1"/>
        <pt x="512" y="-60" on="0"/>
        <pt x="559" y="-114" on="0"/>
      </contour>
    </TTGlyph>
    <TTGlyph name="Cdotaccent" xMin="55" yMin="-12" xMax="689" yMax="932">
      <component glyphName="C" x="0" y="0" flags="0x204"/>
      <component glyphName="dotaccent" x="203" y="312" flags="0x4"/>
    </TTGlyph>
    <TTGlyph name="D" xMin="80" yMin="-6" xMax="717" yMax="738">
      <contour>
        <pt x="717" y="373" on="1"/>
        <pt x="717" y="296" on="0"/>
        <pt x="665" y="158" on="0"/>
        <pt x="560" y="54" on="0"/>
        <pt x="400" y="-6" on="0"/>
        <pt x="291" y="-6" on="1"/>
        <pt x="231" y="-6" on="0"/>
        <pt x="135" y="1" on="0"/>
        <pt x="80" y="6" on="1"/>
        <pt x="80" y="726" on="1"/>
        <pt x="134" y="732" on="0"/>
        <pt x="229" y="738" on="0"/>
        <pt x="284" y="738" on="1"/>
        <pt x="393" y="738" on="0"/>
        <pt x="555" y="680" on="0"/>
        <pt x="663" y="580" on="0"/>
        <pt x="717" y="447" on="0"/>
      </contour>
      <contour>
        <pt x="583" y="373" on="1"/>
        <pt x="583" y="430" on="0"/>
        <pt x="547" y="524" on="0"/>
        <pt x="475" y="591" on="0"/>
        <pt x="369" y="628" on="0"/>
        <pt x="299" y="628" on="1"/>
        <pt x="244" y="628" on="0"/>
        <pt x="205" y="622" on="1"/>
        <pt x="205" y="111" on="1"/>
        <pt x="228" y="107" on="0"/>
        <pt x="274" y="105" on="0"/>
        <pt x="310" y="105" on="1"/>
        <pt x="380" y="105" on="0"/>
        <pt x="483" y="145" on="0"/>
        <pt x="551" y="217" on="0"/>
        <pt x="583" y="315" on="0"/>
      </contour>
    </TTGlyph>
    <TTGlyph name="Dcaron" xMin="80" yMin="-6" xMax="717" yMax="976">
      <component glyphName="caron" x="135" y="312" flags="0x4"/>
      <component glyphName="D" x="0" y="0" flags="0x4"/>
    </TTGlyph>
    <TTGlyph name="Dcroat" xMin="19" yMin="-6" xMax="737" yMax="738">
      <component glyphName="Eth" x="0" y="0" flags="0x204"/>
    </TTGlyph>
    <TTGlyph name="E" xMin="80" yMin="0" xMax="527" yMax="733">
      <contour>
        <pt x="80" y="0" on="1"/>
        <pt x="80" y="733" on="1"/>
        <pt x="527" y="733" on="1"/>
        <pt x="527" y="619" on="1"/>
        <pt x="205" y="619" on="1"/>
        <pt x="205" y="427" on="1"/>
        <pt x="496" y="427" on="1"/>
        <pt x="496" y="317" on="1"/>
        <pt x="205" y="317" on="1"/>
        <pt x="205" y="114" on="1"/>
        <pt x="527" y="114" on="1"/>
        <pt x="527" y="0" on="1"/>
      </contour>
    </TTGlyph>
    <TTGlyph name="Eacute" xMin="80" yMin="0" xMax="527" yMax="980">
      <component glyphName="acute" x="125" y="312" flags="0x4"/>
      <component glyphName="E" x="0" y="0" flags="0x4"/>
    </TTGlyph>
    <TTGlyph name="Ebreve" xMin="80" yMin="0" xMax="527" yMax="945">
      <component glyphName="E" x="0" y="0" flags="0x204"/>
      <component glyphName="breve" x="69" y="312" flags="0x4"/>
    </TTGlyph>
    <TTGlyph name="Ecaron" xMin="80" yMin="0" xMax="527" yMax="976">
      <component glyphName="caron" x="72" y="312" flags="0x4"/>
      <component glyphName="E" x="0" y="0" flags="0x4"/>
    </TTGlyph>
    <TTGlyph name="Ecircumflex" xMin="80" yMin="0" xMax="527" yMax="982">
      <component glyphName="circumflex" x="66" y="312" flags="0x4"/>
      <component glyphName="E" x="0" y="0" flags="0x4"/>
    </TTGlyph>
    <TTGlyph name="Edieresis" xMin="80" yMin="0" xMax="527" yMax="932">
      <component glyphName="dieresis" x="69" y="312" flags="0x4"/>
      <component glyphName="E" x="0" y="0" flags="0x4"/>
    </TTGlyph>
    <TTGlyph name="Edotaccent" xMin="80" yMin="0" xMax="527" yMax="932">
      <component glyphName="E" x="0" y="0" flags="0x204"/>
      <component glyphName="dotaccent" x="84" y="312" flags="0x4"/>
    </TTGlyph>
    <TTGlyph name="Egrave" xMin="80" yMin="0" xMax="527" yMax="979">
      <component glyphName="E" x="0" y="0" flags="0x204"/>
      <component glyphName="grave" x="-6" y="312" flags="0x4"/>
    </TTGlyph>
    <TTGlyph name="Emacron" xMin="80" yMin="0" xMax="527" yMax="902">
      <component glyphName="E" x="0" y="0" flags="0x204"/>
      <component glyphName="macron" x="69" y="312" flags="0x4"/>
    </TTGlyph>
    <TTGlyph name="Eogonek" xMin="80" yMin="-222" xMax="538" yMax="733">
      <contour>
        <pt x="487" y="0" on="1"/>
        <pt x="457" y="-38" on="0"/>
        <pt x="426" y="-92" on="0"/>
        <pt x="426" y="-116" on="1"/>
        <pt x="426" y="-133" on="0"/>
        <pt x="444" y="-152" on="0"/>
        <pt x="459" y="-152" on="1"/>
        <pt x="473" y="-152" on="0"/>
        <pt x="494" y="-140" on="0"/>
        <pt x="506" y="-128" on="1"/>
        <pt x="538" y="-173" on="1"/>
        <pt x="518" y="-195" on="0"/>
        <pt x="469" y="-221" on="0"/>
        <pt x="435" y="-222" on="1"/>
        <pt x="393" y="-222" on="0"/>
        <pt x="344" y="-173" on="0"/>
        <pt x="345" y="-134" on="1"/>
        <pt x="345" y="-100" on="0"/>
        <pt x="381" y="-39" on="0"/>
        <pt x="417" y="0" on="1"/>
        <pt x="80" y="0" on="1"/>
        <pt x="80" y="733" on="1"/>
        <pt x="527" y="733" on="1"/>
        <pt x="527" y="619" on="1"/>
        <pt x="205" y="619" on="1"/>
        <pt x="205" y="427" on="1"/>
        <pt x="496" y="427" on="1"/>
        <pt x="496" y="317" on="1"/>
        <pt x="205" y="317" on="1"/>
        <pt x="205" y="114" on="1"/>
        <pt x="527" y="114" on="1"/>
        <pt x="527" y="0" on="1"/>
      </contour>
    </TTGlyph>
    <TTGlyph name="Eth" xMin="19" yMin="-6" xMax="737" yMax="738">
      <contour>
        <pt x="737" y="373" on="1"/>
        <pt x="737" y="296" on="0"/>
        <pt x="685" y="158" on="0"/>
        <pt x="580" y="54" on="0"/>
        <pt x="420" y="-6" on="0"/>
        <pt x="311" y="-6" on="1"/>
        <pt x="251" y="-6" on="0"/>
        <pt x="155" y="1" on="0"/>
        <pt x="100" y="6" on="1"/>
        <pt x="100" y="321" on="1"/>
        <pt x="19" y="321" on="1"/>
        <pt x="19" y="425" on="1"/>
        <pt x="100" y="425" on="1"/>
        <pt x="100" y="726" on="1"/>
        <pt x="154" y="732" on="0"/>
        <pt x="249" y="738" on="0"/>
        <pt x="304" y="738" on="1"/>
        <pt x="413" y="738" on="0"/>
        <pt x="575" y="680" on="0"/>
        <pt x="683" y="580" on="0"/>
        <pt x="737" y="447" on="0"/>
      </contour>
      <contour>
        <pt x="603" y="373" on="1"/>
        <pt x="603" y="430" on="0"/>
        <pt x="567" y="524" on="0"/>
        <pt x="495" y="591" on="0"/>
        <pt x="389" y="628" on="0"/>
        <pt x="320" y="628" on="1"/>
        <pt x="264" y="628" on="0"/>
        <pt x="225" y="622" on="1"/>
        <pt x="225" y="425" on="1"/>
        <pt x="337" y="425" on="1"/>
        <pt x="337" y="321" on="1"/>
        <pt x="225" y="321" on="1"/>
        <pt x="225" y="111" on="1"/>
        <pt x="248" y="107" on="0"/>
        <pt x="295" y="105" on="0"/>
        <pt x="330" y="105" on="1"/>
        <pt x="400" y="105" on="0"/>
        <pt x="503" y="145" on="0"/>
        <pt x="571" y="217" on="0"/>
        <pt x="603" y="315" on="0"/>
      </contour>
    </TTGlyph>
    <TTGlyph name="Euro" xMin="28" yMin="-12" xMax="596" yMax="594">
      <contour>
        <pt x="28" y="323" on="1"/>
        <pt x="28" y="398" on="1"/>
        <pt x="109" y="398" on="1"/>
        <pt x="125" y="441" on="0"/>
        <pt x="181" y="513" on="0"/>
        <pt x="257" y="565" on="0"/>
        <pt x="351" y="594" on="0"/>
        <pt x="405" y="594" on="1"/>
        <pt x="459" y="594" on="0"/>
        <pt x="556" y="562" on="0"/>
        <pt x="594" y="539" on="1"/>
        <pt x="554" y="451" on="1"/>
        <pt x="520" y="470" on="0"/>
        <pt x="441" y="494" on="0"/>
        <pt x="402" y="494" on="1"/>
        <pt x="339" y="494" on="0"/>
        <pt x="251" y="443" on="0"/>
        <pt x="228" y="398" on="1"/>
        <pt x="480" y="398" on="1"/>
        <pt x="480" y="323" on="1"/>
        <pt x="206" y="323" on="1"/>
        <pt x="205" y="315" on="0"/>
        <pt x="204" y="299" on="0"/>
        <pt x="204" y="290" on="1"/>
        <pt x="204" y="281" on="0"/>
        <pt x="205" y="266" on="0"/>
        <pt x="206" y="258" on="1"/>
        <pt x="480" y="258" on="1"/>
        <pt x="480" y="184" on="1"/>
        <pt x="230" y="184" on="1"/>
        <pt x="253" y="139" on="0"/>
        <pt x="344" y="88" on="0"/>
        <pt x="407" y="88" on="1"/>
        <pt x="446" y="88" on="0"/>
        <pt x="526" y="112" on="0"/>
        <pt x="560" y="132" on="1"/>
        <pt x="596" y="44" on="1"/>
        <pt x="558" y="21" on="0"/>
        <pt x="459" y="-12" on="0"/>
        <pt x="405" y="-12" on="1"/>
        <pt x="350" y="-12" on="0"/>
        <pt x="255" y="17" on="0"/>
        <pt x="179" y="68" on="0"/>
        <pt x="123" y="140" on="0"/>
        <pt x="108" y="184" on="1"/>
        <pt x="28" y="184" on="1"/>
        <pt x="28" y="258" on="1"/>
        <pt x="92" y="258" on="1"/>
        <pt x="91" y="266" on="0"/>
        <pt x="91" y="281" on="0"/>
        <pt x="91" y="290" on="1"/>
        <pt x="91" y="299" on="0"/>
        <pt x="91" y="315" on="0"/>
        <pt x="92" y="323" on="1"/>
      </contour>
    </TTGlyph>
    <TTGlyph name="Euro.lin" xMin="40" yMin="-12" xMax="744" yMax="745">
      <contour>
        <pt x="40" y="410" on="1"/>
        <pt x="40" y="488" on="1"/>
        <pt x="139" y="488" on="1"/>
        <pt x="156" y="544" on="0"/>
        <pt x="223" y="638" on="0"/>
        <pt x="318" y="707" on="0"/>
        <pt x="438" y="745" on="0"/>
        <pt x="509" y="745" on="1"/>
        <pt x="579" y="745" on="0"/>
        <pt x="696" y="705" on="0"/>
        <pt x="741" y="679" on="1"/>
        <pt x="693" y="585" on="1"/>
        <pt x="649" y="611" on="0"/>
        <pt x="554" y="639" on="0"/>
        <pt x="505" y="639" on="1"/>
        <pt x="413" y="639" on="0"/>
        <pt x="293" y="554" on="0"/>
        <pt x="264" y="488" on="1"/>
        <pt x="605" y="488" on="1"/>
        <pt x="605" y="410" on="1"/>
        <pt x="243" y="410" on="1"/>
        <pt x="241" y="399" on="0"/>
        <pt x="239" y="378" on="0"/>
        <pt x="239" y="367" on="1"/>
        <pt x="239" y="342" on="0"/>
        <pt x="242" y="318" on="1"/>
        <pt x="605" y="318" on="1"/>
        <pt x="605" y="239" on="1"/>
        <pt x="266" y="239" on="1"/>
        <pt x="281" y="208" on="0"/>
        <pt x="327" y="155" on="0"/>
        <pt x="388" y="117" on="0"/>
        <pt x="466" y="95" on="0"/>
        <pt x="512" y="95" on="1"/>
        <pt x="560" y="95" on="0"/>
        <pt x="657" y="127" on="0"/>
        <pt x="701" y="152" on="1"/>
        <pt x="744" y="58" on="1"/>
        <pt x="699" y="30" on="0"/>
        <pt x="577" y="-12" on="0"/>
        <pt x="505" y="-12" on="1"/>
        <pt x="436" y="-12" on="0"/>
        <pt x="319" y="25" on="0"/>
        <pt x="226" y="92" on="0"/>
        <pt x="158" y="184" on="0"/>
        <pt x="140" y="239" on="1"/>
        <pt x="40" y="239" on="1"/>
        <pt x="40" y="318" on="1"/>
        <pt x="124" y="318" on="1"/>
        <pt x="122" y="330" on="0"/>
        <pt x="122" y="354" on="0"/>
        <pt x="122" y="365" on="1"/>
        <pt x="122" y="377" on="0"/>
        <pt x="122" y="399" on="0"/>
        <pt x="124" y="410" on="1"/>
      </contour>
    </TTGlyph>
    <TTGlyph name="F" xMin="80" yMin="0" xMax="527" yMax="733">
      <contour>
        <pt x="205" y="619" on="1"/>
        <pt x="205" y="405" on="1"/>
        <pt x="488" y="405" on="1"/>
        <pt x="488" y="294" on="1"/>
        <pt x="205" y="294" on="1"/>
        <pt x="205" y="0" on="1"/>
        <pt x="80" y="0" on="1"/>
        <pt x="80" y="733" on="1"/>
        <pt x="527" y="733" on="1"/>
        <pt x="527" y="619" on="1"/>
      </contour>
    </TTGlyph>
    <TTGlyph name="G" xMin="55" yMin="-12" xMax="717" yMax="745">
      <contour>
        <pt x="717" y="388" on="1"/>
        <pt x="717" y="68" on="1"/>
        <pt x="658" y="30" on="0"/>
        <pt x="527" y="-12" on="0"/>
        <pt x="444" y="-12" on="1"/>
        <pt x="366" y="-12" on="0"/>
        <pt x="224" y="43" on="0"/>
        <pt x="118" y="142" on="0"/>
        <pt x="55" y="281" on="0"/>
        <pt x="55" y="366" on="1"/>
        <pt x="55" y="451" on="0"/>
        <pt x="119" y="591" on="0"/>
        <pt x="226" y="691" on="0"/>
        <pt x="367" y="745" on="0"/>
        <pt x="444" y="745" on="1"/>
        <pt x="525" y="745" on="0"/>
        <pt x="648" y="703" on="0"/>
        <pt x="704" y="669" on="1"/>
        <pt x="647" y="569" on="1"/>
        <pt x="602" y="598" on="0"/>
        <pt x="501" y="630" on="0"/>
        <pt x="450" y="630" on="1"/>
        <pt x="387" y="630" on="0"/>
        <pt x="290" y="589" on="0"/>
        <pt x="224" y="517" on="0"/>
        <pt x="189" y="421" on="0"/>
        <pt x="189" y="366" on="1"/>
        <pt x="189" y="307" on="0"/>
        <pt x="229" y="209" on="0"/>
        <pt x="300" y="139" on="0"/>
        <pt x="395" y="99" on="0"/>
        <pt x="449" y="99" on="1"/>
        <pt x="497" y="99" on="0"/>
        <pt x="565" y="116" on="0"/>
        <pt x="597" y="134" on="1"/>
        <pt x="597" y="278" on="1"/>
        <pt x="426" y="278" on="1"/>
        <pt x="426" y="388" on="1"/>
      </contour>
    </TTGlyph>
    <TTGlyph name="G.alt" xMin="55" yMin="-12" xMax="797" yMax="745">
      <contour>
        <pt x="793" y="377" on="1"/>
        <pt x="797" y="288" on="0"/>
        <pt x="747" y="145" on="0"/>
        <pt x="651" y="43" on="0"/>
        <pt x="518" y="-12" on="0"/>
        <pt x="439" y="-12" on="1"/>
        <pt x="361" y="-12" on="0"/>
        <pt x="221" y="43" on="0"/>
        <pt x="116" y="142" on="0"/>
        <pt x="55" y="281" on="0"/>
        <pt x="55" y="366" on="1"/>
        <pt x="55" y="451" on="0"/>
        <pt x="119" y="591" on="0"/>
        <pt x="226" y="691" on="0"/>
        <pt x="366" y="745" on="0"/>
        <pt x="443" y="745" on="1"/>
        <pt x="525" y="745" on="0"/>
        <pt x="648" y="703" on="0"/>
        <pt x="704" y="669" on="1"/>
        <pt x="648" y="569" on="1"/>
        <pt x="602" y="598" on="0"/>
        <pt x="501" y="630" on="0"/>
        <pt x="449" y="630" on="1"/>
        <pt x="387" y="630" on="0"/>
        <pt x="290" y="589" on="0"/>
        <pt x="224" y="517" on="0"/>
        <pt x="189" y="421" on="0"/>
        <pt x="189" y="366" on="1"/>
        <pt x="189" y="307" on="0"/>
        <pt x="228" y="209" on="0"/>
        <pt x="297" y="139" on="0"/>
        <pt x="388" y="99" on="0"/>
        <pt x="441" y="99" on="1"/>
        <pt x="489" y="99" on="0"/>
        <pt x="565" y="126" on="0"/>
        <pt x="621" y="172" on="0"/>
        <pt x="656" y="233" on="0"/>
        <pt x="663" y="268" on="1"/>
        <pt x="419" y="268" on="1"/>
        <pt x="419" y="377" on="1"/>
      </contour>
    </TTGlyph>
    <TTGlyph name="Gbreve" xMin="55" yMin="-12" xMax="717" yMax="945">
      <component glyphName="G" x="0" y="0" flags="0x204"/>
      <component glyphName="breve" x="197" y="312" flags="0x4"/>
    </TTGlyph>
    <TTGlyph name="Gbreve.alt" xMin="55" yMin="-12" xMax="797" yMax="945">
      <component glyphName="G.alt" x="0" y="0" flags="0x204"/>
      <component glyphName="breve" x="210" y="312" flags="0x4"/>
    </TTGlyph>
    <TTGlyph name="Gcommaaccent" xMin="55" yMin="-323" xMax="717" yMax="745">
      <component glyphName="commaaccent" x="337" y="0" flags="0x4"/>
      <component glyphName="G" x="0" y="0" flags="0x4"/>
    </TTGlyph>
    <TTGlyph name="Gcommaaccent.alt" xMin="55" yMin="-323" xMax="797" yMax="745">
      <component glyphName="commaaccent" x="350" y="0" flags="0x4"/>
      <component glyphName="G.alt" x="0" y="0" flags="0x4"/>
    </TTGlyph>
    <TTGlyph name="Gdotaccent" xMin="55" yMin="-12" xMax="717" yMax="932">
      <component glyphName="G" x="0" y="0" flags="0x204"/>
      <component glyphName="dotaccent" x="212" y="312" flags="0x4"/>
    </TTGlyph>
    <TTGlyph name="Gdotaccent.alt" xMin="55" yMin="-12" xMax="797" yMax="932">
      <component glyphName="G.alt" x="0" y="0" flags="0x204"/>
      <component glyphName="dotaccent" x="226" y="312" flags="0x4"/>
    </TTGlyph>
    <TTGlyph name="H" xMin="80" yMin="0" xMax="667" yMax="733">
      <contour>
        <pt x="542" y="0" on="1"/>
        <pt x="542" y="315" on="1"/>
        <pt x="205" y="315" on="1"/>
        <pt x="205" y="0" on="1"/>
        <pt x="80" y="0" on="1"/>
        <pt x="80" y="733" on="1"/>
        <pt x="205" y="733" on="1"/>
        <pt x="205" y="427" on="1"/>
        <pt x="542" y="427" on="1"/>
        <pt x="542" y="733" on="1"/>
        <pt x="667" y="733" on="1"/>
        <pt x="667" y="0" on="1"/>
      </contour>
    </TTGlyph>
    <TTGlyph name="Hbar" xMin="17" yMin="0" xMax="750" yMax="733">
      <contour>
        <pt x="552" y="0" on="1"/>
        <pt x="552" y="305" on="1"/>
        <pt x="215" y="305" on="1"/>
        <pt x="215" y="0" on="1"/>
        <pt x="90" y="0" on="1"/>
        <pt x="90" y="534" on="1"/>
        <pt x="17" y="534" on="1"/>
        <pt x="17" y="620" on="1"/>
        <pt x="90" y="620" on="1"/>
        <pt x="90" y="733" on="1"/>
        <pt x="215" y="733" on="1"/>
        <pt x="215" y="620" on="1"/>
        <pt x="552" y="620" on="1"/>
        <pt x="552" y="733" on="1"/>
        <pt x="677" y="733" on="1"/>
        <pt x="677" y="620" on="1"/>
        <pt x="750" y="620" on="1"/>
        <pt x="750" y="534" on="1"/>
        <pt x="677" y="534" on="1"/>
        <pt x="677" y="0" on="1"/>
      </contour>
      <contour>
        <pt x="552" y="417" on="1"/>
        <pt x="552" y="534" on="1"/>
        <pt x="215" y="534" on="1"/>
        <pt x="215" y="417" on="1"/>
      </contour>
    </TTGlyph>
    <TTGlyph name="I" xMin="85" yMin="0" xMax="210" yMax="733">
      <contour>
        <pt x="85" y="0" on="1"/>
        <pt x="85" y="733" on="1"/>
        <pt x="210" y="733" on="1"/>
        <pt x="210" y="0" on="1"/>
      </contour>
    </TTGlyph>
    <TTGlyph name="Iacute" xMin="85" yMin="0" xMax="319" yMax="988">
      <component glyphName="I" x="0" y="0" flags="0x204"/>
      <component glyphName="acute" x="-31" y="320" flags="0x4"/>
    </TTGlyph>
    <TTGlyph name="Ibreve" xMin="6" yMin="0" xMax="291" yMax="945">
      <component glyphName="I" x="0" y="0" flags="0x204"/>
      <component glyphName="breve" x="-87" y="312" flags="0x4"/>
    </TTGlyph>
    <TTGlyph name="Icircumflex" xMin="-20" yMin="0" xMax="317" yMax="982">
      <component glyphName="I" x="0" y="0" flags="0x204"/>
      <component glyphName="circumflex" x="-90" y="312" flags="0x4"/>
    </TTGlyph>
    <TTGlyph name="Idieresis" xMin="-6" yMin="0" xMax="302" yMax="932">
      <component glyphName="I" x="0" y="0" flags="0x204"/>
      <component glyphName="dieresis" x="-87" y="312" flags="0x4"/>
    </TTGlyph>
    <TTGlyph name="Idotaccent" xMin="85" yMin="0" xMax="211" yMax="932">
      <component glyphName="I" x="0" y="0" flags="0x204"/>
      <component glyphName="dotaccent" x="-72" y="312" flags="0x4"/>
    </TTGlyph>
    <TTGlyph name="Igrave" xMin="-32" yMin="0" xMax="210" yMax="979">
      <component glyphName="I" x="0" y="0" flags="0x204"/>
      <component glyphName="grave" x="-163" y="312" flags="0x4"/>
    </TTGlyph>
    <TTGlyph name="Imacron" xMin="5" yMin="0" xMax="292" yMax="902">
      <component glyphName="I" x="0" y="0" flags="0x204"/>
      <component glyphName="macron" x="-87" y="312" flags="0x4"/>
    </TTGlyph>
    <TTGlyph name="Iogonek" xMin="42" yMin="-222" xMax="236" yMax="733">
      <contour>
        <pt x="236" y="-173" on="1"/>
        <pt x="216" y="-195" on="0"/>
        <pt x="167" y="-221" on="0"/>
        <pt x="133" y="-222" on="1"/>
        <pt x="91" y="-222" on="0"/>
        <pt x="42" y="-173" on="0"/>
        <pt x="43" y="-134" on="1"/>
        <pt x="43" y="-100" on="0"/>
        <pt x="79" y="-39" on="0"/>
        <pt x="115" y="0" on="1"/>
        <pt x="85" y="0" on="1"/>
        <pt x="85" y="733" on="1"/>
        <pt x="210" y="733" on="1"/>
        <pt x="210" y="0" on="1"/>
        <pt x="185" y="0" on="1"/>
        <pt x="155" y="-38" on="0"/>
        <pt x="124" y="-92" on="0"/>
        <pt x="124" y="-116" on="1"/>
        <pt x="124" y="-133" on="0"/>
        <pt x="142" y="-152" on="0"/>
        <pt x="157" y="-152" on="1"/>
        <pt x="171" y="-152" on="0"/>
        <pt x="192" y="-140" on="0"/>
        <pt x="204" y="-128" on="1"/>
      </contour>
    </TTGlyph>
    <TTGlyph name="J" xMin="14" yMin="-12" xMax="428" yMax="733">
      <contour>
        <pt x="428" y="236" on="1"/>
        <pt x="428" y="181" on="0"/>
        <pt x="401" y="90" on="0"/>
        <pt x="344" y="24" on="0"/>
        <pt x="255" y="-12" on="0"/>
        <pt x="193" y="-12" on="1"/>
        <pt x="139" y="-12" on="0"/>
        <pt x="53" y="14" on="0"/>
        <pt x="14" y="40" on="1"/>
        <pt x="61" y="142" on="1"/>
        <pt x="87" y="124" on="0"/>
        <pt x="156" y="102" on="0"/>
        <pt x="191" y="102" on="1"/>
        <pt x="250" y="102" on="0"/>
        <pt x="303" y="172" on="0"/>
        <pt x="303" y="244" on="1"/>
        <pt x="303" y="733" on="1"/>
        <pt x="428" y="733" on="1"/>
      </contour>
    </TTGlyph>
    <TTGlyph name="K" xMin="80" yMin="0" xMax="660" yMax="733">
      <contour>
        <pt x="505" y="0" on="1"/>
        <pt x="205" y="352" on="1"/>
        <pt x="205" y="0" on="1"/>
        <pt x="80" y="0" on="1"/>
        <pt x="80" y="733" on="1"/>
        <pt x="205" y="733" on="1"/>
        <pt x="205" y="403" on="1"/>
        <pt x="493" y="733" on="1"/>
        <pt x="644" y="733" on="1"/>
        <pt x="324" y="381" on="1"/>
        <pt x="660" y="0" on="1"/>
      </contour>
    </TTGlyph>
    <TTGlyph name="Kcommaaccent" xMin="80" yMin="-311" xMax="660" yMax="733">
      <component glyphName="commaaccent" x="249" y="12" flags="0x4"/>
      <component glyphName="K" x="0" y="0" flags="0x4"/>
    </TTGlyph>
    <TTGlyph name="L" xMin="80" yMin="0" xMax="527" yMax="733">
      <contour>
        <pt x="80" y="0" on="1"/>
        <pt x="80" y="733" on="1"/>
        <pt x="205" y="733" on="1"/>
        <pt x="205" y="114" on="1"/>
        <pt x="527" y="114" on="1"/>
        <pt x="527" y="0" on="1"/>
      </contour>
    </TTGlyph>
    <TTGlyph name="Lacute" xMin="80" yMin="0" xMax="527" yMax="988">
      <component glyphName="acute" x="10" y="320" flags="0x4"/>
      <component glyphName="L" x="0" y="0" flags="0x4"/>
    </TTGlyph>
    <TTGlyph name="Lcaron" xMin="80" yMin="0" xMax="527" yMax="734">
      <component glyphName="caron.alt" x="227" y="-5" flags="0x4"/>
      <component glyphName="L" x="0" y="0" flags="0x4"/>
    </TTGlyph>
    <TTGlyph name="Lcommaaccent" xMin="80" yMin="-323" xMax="527" yMax="733">
      <component glyphName="commaaccent" x="203" y="0" flags="0x4"/>
      <component glyphName="L" x="0" y="0" flags="0x4"/>
    </TTGlyph>
    <TTGlyph name="Ldot" xMin="80" yMin="0" xMax="527" yMax="733">
      <contour>
        <pt x="80" y="0" on="1"/>
        <pt x="80" y="733" on="1"/>
        <pt x="205" y="733" on="1"/>
        <pt x="205" y="114" on="1"/>
        <pt x="527" y="114" on="1"/>
        <pt x="527" y="0" on="1"/>
      </contour>
      <contour>
        <pt x="359" y="384" on="1"/>
        <pt x="359" y="410" on="0"/>
        <pt x="395" y="447" on="0"/>
        <pt x="421" y="447" on="1"/>
        <pt x="447" y="447" on="0"/>
        <pt x="484" y="410" on="0"/>
        <pt x="484" y="384" on="1"/>
        <pt x="484" y="358" on="0"/>
        <pt x="447" y="321" on="0"/>
        <pt x="421" y="321" on="1"/>
        <pt x="395" y="321" on="0"/>
        <pt x="359" y="358" on="0"/>
      </contour>
    </TTGlyph>
    <TTGlyph name="Lslash" xMin="22" yMin="0" xMax="527" yMax="733">
      <contour>
        <pt x="80" y="0" on="1"/>
        <pt x="80" y="273" on="1"/>
        <pt x="22" y="247" on="1"/>
        <pt x="22" y="354" on="1"/>
        <pt x="80" y="381" on="1"/>
        <pt x="80" y="733" on="1"/>
        <pt x="205" y="733" on="1"/>
        <pt x="205" y="437" on="1"/>
        <pt x="308" y="484" on="1"/>
        <pt x="308" y="377" on="1"/>
        <pt x="279" y="365" on="0"/>
        <pt x="256" y="354" on="1"/>
        <pt x="246" y="349" on="0"/>
        <pt x="228" y="340" on="0"/>
        <pt x="221" y="337" on="1"/>
        <pt x="212" y="333" on="0"/>
        <pt x="205" y="330" on="1"/>
        <pt x="205" y="114" on="1"/>
        <pt x="527" y="114" on="1"/>
        <pt x="527" y="0" on="1"/>
      </contour>
    </TTGlyph>
    <TTGlyph name="M" xMin="70" yMin="0" xMax="813" yMax="744">
      <contour>
        <pt x="690" y="0" on="1"/>
        <pt x="680" y="439" on="1"/>
        <pt x="449" y="89" on="1"/>
        <pt x="434" y="89" on="1"/>
        <pt x="201" y="440" on="1"/>
        <pt x="193" y="0" on="1"/>
        <pt x="70" y="0" on="1"/>
        <pt x="101" y="742" on="1"/>
        <pt x="120" y="744" on="1"/>
        <pt x="445" y="258" on="1"/>
        <pt x="762" y="744" on="1"/>
        <pt x="782" y="742" on="1"/>
        <pt x="813" y="0" on="1"/>
      </contour>
    </TTGlyph>
    <TTGlyph name="M.alt" xMin="70" yMin="0" xMax="813" yMax="744">
      <contour>
        <pt x="690" y="0" on="1"/>
        <pt x="680" y="455" on="1"/>
        <pt x="449" y="129" on="1"/>
        <pt x="434" y="129" on="1"/>
        <pt x="201" y="454" on="1"/>
        <pt x="193" y="0" on="1"/>
        <pt x="70" y="0" on="1"/>
        <pt x="101" y="742" on="1"/>
        <pt x="120" y="744" on="1"/>
        <pt x="445" y="292" on="1"/>
        <pt x="762" y="744" on="1"/>
        <pt x="782" y="742" on="1"/>
        <pt x="813" y="0" on="1"/>
      </contour>
    </TTGlyph>
    <TTGlyph name="N" xMin="80" yMin="-14" xMax="678" yMax="747">
      <contour>
        <pt x="664" y="-14" on="1"/>
        <pt x="205" y="470" on="1"/>
        <pt x="205" y="0" on="1"/>
        <pt x="80" y="0" on="1"/>
        <pt x="80" y="743" on="1"/>
        <pt x="100" y="747" on="1"/>
        <pt x="553" y="270" on="1"/>
        <pt x="553" y="733" on="1"/>
        <pt x="678" y="733" on="1"/>
        <pt x="678" y="-11" on="1"/>
      </contour>
    </TTGlyph>
    <TTGlyph name="Nacute" xMin="80" yMin="-14" xMax="678" yMax="973">
      <component glyphName="acute" x="199" y="305" flags="0x4"/>
      <component glyphName="N" x="0" y="0" flags="0x4"/>
    </TTGlyph>
    <TTGlyph name="Ncaron" xMin="80" yMin="-14" xMax="678" yMax="969">
      <component glyphName="caron" x="146" y="305" flags="0x4"/>
      <component glyphName="N" x="0" y="0" flags="0x4"/>
    </TTGlyph>
    <TTGlyph name="Ncommaaccent" xMin="80" yMin="-311" xMax="678" yMax="747">
      <component glyphName="commaaccent" x="283" y="12" flags="0x4"/>
      <component glyphName="N" x="0" y="0" flags="0x4"/>
    </TTGlyph>
    <TTGlyph name="Ntilde" xMin="80" yMin="-14" xMax="678" yMax="924">
      <component glyphName="N" x="0" y="0" flags="0x204"/>
      <component glyphName="tilde" x="145" y="305" flags="0x4"/>
    </TTGlyph>
    <TTGlyph name="O" xMin="55" yMin="-12" xMax="796" yMax="745">
      <contour>
        <pt x="796" y="366" on="1"/>
        <pt x="796" y="285" on="0"/>
        <pt x="739" y="146" on="0"/>
        <pt x="638" y="45" on="0"/>
        <pt x="501" y="-12" on="0"/>
        <pt x="422" y="-12" on="1"/>
        <pt x="342" y="-12" on="0"/>
        <pt x="208" y="45" on="0"/>
        <pt x="110" y="146" on="0"/>
        <pt x="55" y="285" on="0"/>
        <pt x="55" y="366" on="1"/>
        <pt x="55" y="448" on="0"/>
        <pt x="112" y="587" on="0"/>
        <pt x="213" y="688" on="0"/>
        <pt x="349" y="745" on="0"/>
        <pt x="429" y="745" on="1"/>
        <pt x="508" y="745" on="0"/>
        <pt x="643" y="688" on="0"/>
        <pt x="741" y="587" on="0"/>
        <pt x="796" y="448" on="0"/>
      </contour>
      <contour>
        <pt x="662" y="366" on="1"/>
        <pt x="662" y="423" on="0"/>
        <pt x="627" y="521" on="0"/>
        <pt x="565" y="593" on="0"/>
        <pt x="478" y="633" on="0"/>
        <pt x="426" y="633" on="1"/>
        <pt x="373" y="633" on="0"/>
        <pt x="286" y="593" on="0"/>
        <pt x="224" y="521" on="0"/>
        <pt x="189" y="423" on="0"/>
        <pt x="189" y="366" on="1"/>
        <pt x="189" y="309" on="0"/>
        <pt x="224" y="211" on="0"/>
        <pt x="286" y="140" on="0"/>
        <pt x="373" y="99" on="0"/>
        <pt x="426" y="99" on="1"/>
        <pt x="478" y="99" on="0"/>
        <pt x="565" y="140" on="0"/>
        <pt x="627" y="211" on="0"/>
        <pt x="662" y="309" on="0"/>
      </contour>
    </TTGlyph>
    <TTGlyph name="OE" xMin="55" yMin="-6" xMax="1009" yMax="738">
      <contour>
        <pt x="617" y="0" on="1"/>
        <pt x="584" y="-3" on="0"/>
        <pt x="519" y="-6" on="0"/>
        <pt x="483" y="-6" on="1"/>
        <pt x="379" y="-6" on="0"/>
        <pt x="219" y="53" on="0"/>
        <pt x="111" y="153" on="0"/>
        <pt x="55" y="285" on="0"/>
        <pt x="55" y="359" on="1"/>
        <pt x="55" y="437" on="0"/>
        <pt x="109" y="574" on="0"/>
        <pt x="215" y="678" on="0"/>
        <pt x="372" y="738" on="0"/>
        <pt x="476" y="738" on="1"/>
        <pt x="514" y="738" on="0"/>
        <pt x="578" y="735" on="0"/>
        <pt x="610" y="733" on="1"/>
        <pt x="1009" y="733" on="1"/>
        <pt x="1009" y="619" on="1"/>
        <pt x="688" y="619" on="1"/>
        <pt x="688" y="427" on="1"/>
        <pt x="978" y="427" on="1"/>
        <pt x="978" y="317" on="1"/>
        <pt x="688" y="317" on="1"/>
        <pt x="688" y="114" on="1"/>
        <pt x="1009" y="114" on="1"/>
        <pt x="1009" y="0" on="1"/>
      </contour>
      <contour>
        <pt x="563" y="622" on="1"/>
        <pt x="540" y="626" on="0"/>
        <pt x="493" y="628" on="0"/>
        <pt x="458" y="628" on="1"/>
        <pt x="392" y="628" on="0"/>
        <pt x="291" y="588" on="0"/>
        <pt x="224" y="517" on="0"/>
        <pt x="189" y="418" on="0"/>
        <pt x="189" y="359" on="1"/>
        <pt x="189" y="302" on="0"/>
        <pt x="228" y="209" on="0"/>
        <pt x="300" y="142" on="0"/>
        <pt x="403" y="105" on="0"/>
        <pt x="468" y="105" on="1"/>
        <pt x="524" y="105" on="0"/>
        <pt x="563" y="111" on="1"/>
      </contour>
    </TTGlyph>
    <TTGlyph name="Oacute" xMin="55" yMin="-12" xMax="796" yMax="980">
      <component glyphName="acute" x="246" y="312" flags="0x4"/>
      <component glyphName="O" x="0" y="0" flags="0x4"/>
    </TTGlyph>
    <TTGlyph name="Obreve" xMin="55" yMin="-12" xMax="796" yMax="945">
      <component glyphName="O" x="0" y="0" flags="0x204"/>
      <component glyphName="breve" x="190" y="312" flags="0x4"/>
    </TTGlyph>
    <TTGlyph name="Ocircumflex" xMin="55" yMin="-12" xMax="796" yMax="982">
      <component glyphName="circumflex" x="187" y="312" flags="0x4"/>
      <component glyphName="O" x="0" y="0" flags="0x4"/>
    </TTGlyph>
    <TTGlyph name="Odieresis" xMin="55" yMin="-12" xMax="796" yMax="932">
      <component glyphName="dieresis" x="190" y="312" flags="0x4"/>
      <component glyphName="O" x="0" y="0" flags="0x4"/>
    </TTGlyph>
    <TTGlyph name="Ograve" xMin="55" yMin="-12" xMax="796" yMax="979">
      <component glyphName="O" x="0" y="0" flags="0x204"/>
      <component glyphName="grave" x="113" y="312" flags="0x4"/>
    </TTGlyph>
    <TTGlyph name="Ohungarumlaut" xMin="55" yMin="-12" xMax="796" yMax="1017">
      <component glyphName="hungarumlaut" x="232" y="312" flags="0x4"/>
      <component glyphName="O" x="0" y="0" flags="0x4"/>
    </TTGlyph>
    <TTGlyph name="Omacron" xMin="55" yMin="-12" xMax="796" yMax="902">
      <component glyphName="macron" x="190" y="312" flags="0x4"/>
      <component glyphName="O" x="0" y="0" flags="0x4"/>
    </TTGlyph>
    <TTGlyph name="Oslash" xMin="49" yMin="-12" xMax="802" yMax="745">
      <contour>
        <pt x="796" y="366" on="1"/>
        <pt x="796" y="285" on="0"/>
        <pt x="739" y="146" on="0"/>
        <pt x="638" y="45" on="0"/>
        <pt x="501" y="-12" on="0"/>
        <pt x="422" y="-12" on="1"/>
        <pt x="354" y="-12" on="0"/>
        <pt x="237" y="29" on="0"/>
        <pt x="190" y="67" on="1"/>
        <pt x="147" y="24" on="1"/>
        <pt x="117" y="-6" on="1"/>
        <pt x="49" y="63" on="1"/>
        <pt x="125" y="137" on="1"/>
        <pt x="92" y="185" on="0"/>
        <pt x="55" y="300" on="0"/>
        <pt x="55" y="366" on="1"/>
        <pt x="55" y="448" on="0"/>
        <pt x="112" y="587" on="0"/>
        <pt x="213" y="688" on="0"/>
        <pt x="349" y="745" on="0"/>
        <pt x="429" y="745" on="1"/>
        <pt x="497" y="745" on="0"/>
        <pt x="614" y="703" on="0"/>
        <pt x="661" y="665" on="1"/>
        <pt x="666" y="671" on="0"/>
        <pt x="672" y="677" on="1"/>
        <pt x="697" y="702" on="1"/>
        <pt x="713" y="718" on="0"/>
        <pt x="734" y="738" on="1"/>
        <pt x="802" y="671" on="1"/>
        <pt x="726" y="596" on="1"/>
        <pt x="760" y="548" on="0"/>
        <pt x="796" y="433" on="0"/>
      </contour>
      <contour>
        <pt x="662" y="366" on="1"/>
        <pt x="662" y="404" on="0"/>
        <pt x="645" y="473" on="0"/>
        <pt x="629" y="502" on="1"/>
        <pt x="454" y="327" on="1"/>
        <pt x="421" y="294" on="0"/>
        <pt x="358" y="232" on="0"/>
        <pt x="333" y="207" on="1"/>
        <pt x="304" y="178" on="0"/>
        <pt x="279" y="152" on="1"/>
        <pt x="308" y="127" on="0"/>
        <pt x="382" y="99" on="0"/>
        <pt x="426" y="99" on="1"/>
        <pt x="478" y="99" on="0"/>
        <pt x="565" y="140" on="0"/>
        <pt x="627" y="211" on="0"/>
        <pt x="662" y="309" on="0"/>
      </contour>
      <contour>
        <pt x="572" y="580" on="1"/>
        <pt x="543" y="606" on="0"/>
        <pt x="469" y="633" on="0"/>
        <pt x="426" y="633" on="1"/>
        <pt x="373" y="633" on="0"/>
        <pt x="286" y="593" on="0"/>
        <pt x="224" y="521" on="0"/>
        <pt x="189" y="423" on="0"/>
        <pt x="189" y="366" on="1"/>
        <pt x="189" y="328" on="0"/>
        <pt x="206" y="260" on="0"/>
        <pt x="222" y="231" on="1"/>
      </contour>
    </TTGlyph>
    <TTGlyph name="Oslashacute" xMin="49" yMin="-12" xMax="802" yMax="980">
      <component glyphName="Oslash" x="0" y="0" flags="0x204"/>
      <component glyphName="acute" x="246" y="312" flags="0x4"/>
    </TTGlyph>
    <TTGlyph name="Otilde" xMin="55" yMin="-12" xMax="796" yMax="931">
      <component glyphName="O" x="0" y="0" flags="0x204"/>
      <component glyphName="tilde" x="192" y="312" flags="0x4"/>
    </TTGlyph>
    <TTGlyph name="P" xMin="80" yMin="0" xMax="570" yMax="738">
      <contour>
        <pt x="570" y="491" on="1"/>
        <pt x="570" y="435" on="0"/>
        <pt x="531" y="341" on="0"/>
        <pt x="457" y="274" on="0"/>
        <pt x="348" y="236" on="0"/>
        <pt x="278" y="236" on="1"/>
        <pt x="260" y="236" on="0"/>
        <pt x="223" y="238" on="0"/>
        <pt x="205" y="239" on="1"/>
        <pt x="205" y="0" on="1"/>
        <pt x="80" y="0" on="1"/>
        <pt x="80" y="726" on="1"/>
        <pt x="177" y="738" on="0"/>
        <pt x="266" y="738" on="1"/>
        <pt x="341" y="738" on="0"/>
        <pt x="455" y="699" on="0"/>
        <pt x="532" y="632" on="0"/>
        <pt x="570" y="542" on="0"/>
      </contour>
      <contour>
        <pt x="440" y="487" on="1"/>
        <pt x="440" y="514" on="0"/>
        <pt x="421" y="563" on="0"/>
        <pt x="383" y="601" on="0"/>
        <pt x="325" y="623" on="0"/>
        <pt x="287" y="623" on="1"/>
        <pt x="244" y="623" on="0"/>
        <pt x="205" y="617" on="1"/>
        <pt x="205" y="349" on="1"/>
        <pt x="224" y="347" on="0"/>
        <pt x="258" y="345" on="0"/>
        <pt x="275" y="345" on="1"/>
        <pt x="360" y="345" on="0"/>
        <pt x="440" y="424" on="0"/>
      </contour>
    </TTGlyph>
    <TTGlyph name="Q" xMin="55" yMin="-27" xMax="809" yMax="745">
      <contour>
        <pt x="732" y="-27" on="1"/>
        <pt x="712" y="-9" on="0"/>
        <pt x="694" y="8" on="1"/>
        <pt x="679" y="22" on="0"/>
        <pt x="647" y="50" on="0"/>
        <pt x="639" y="58" on="1"/>
        <pt x="592" y="25" on="0"/>
        <pt x="483" y="-12" on="0"/>
        <pt x="422" y="-12" on="1"/>
        <pt x="342" y="-12" on="0"/>
        <pt x="208" y="45" on="0"/>
        <pt x="110" y="146" on="0"/>
        <pt x="55" y="285" on="0"/>
        <pt x="55" y="366" on="1"/>
        <pt x="55" y="448" on="0"/>
        <pt x="112" y="587" on="0"/>
        <pt x="213" y="688" on="0"/>
        <pt x="349" y="745" on="0"/>
        <pt x="429" y="745" on="1"/>
        <pt x="509" y="745" on="0"/>
        <pt x="644" y="688" on="0"/>
        <pt x="741" y="587" on="0"/>
        <pt x="796" y="448" on="0"/>
        <pt x="796" y="366" on="1"/>
        <pt x="796" y="301" on="0"/>
        <pt x="756" y="186" on="0"/>
        <pt x="721" y="139" on="1"/>
        <pt x="729" y="131" on="0"/>
        <pt x="759" y="106" on="0"/>
        <pt x="773" y="93" on="1"/>
        <pt x="790" y="78" on="0"/>
        <pt x="809" y="62" on="1"/>
      </contour>
      <contour>
        <pt x="662" y="366" on="1"/>
        <pt x="662" y="423" on="0"/>
        <pt x="627" y="521" on="0"/>
        <pt x="564" y="593" on="0"/>
        <pt x="478" y="633" on="0"/>
        <pt x="426" y="633" on="1"/>
        <pt x="374" y="633" on="0"/>
        <pt x="287" y="593" on="0"/>
        <pt x="225" y="521" on="0"/>
        <pt x="190" y="423" on="0"/>
        <pt x="190" y="366" on="1"/>
        <pt x="190" y="309" on="0"/>
        <pt x="225" y="211" on="0"/>
        <pt x="287" y="140" on="0"/>
        <pt x="374" y="99" on="0"/>
        <pt x="426" y="99" on="1"/>
        <pt x="461" y="99" on="0"/>
        <pt x="524" y="119" on="0"/>
        <pt x="550" y="137" on="1"/>
        <pt x="429" y="243" on="1"/>
        <pt x="506" y="331" on="1"/>
        <pt x="537" y="302" on="0"/>
        <pt x="563" y="279" on="1"/>
        <pt x="574" y="269" on="0"/>
        <pt x="595" y="250" on="0"/>
        <pt x="612" y="235" on="0"/>
        <pt x="624" y="224" on="0"/>
        <pt x="625" y="223" on="1"/>
        <pt x="642" y="254" on="0"/>
        <pt x="662" y="325" on="0"/>
      </contour>
    </TTGlyph>
    <TTGlyph name="R" xMin="81" yMin="0" xMax="623" yMax="738">
      <contour>
        <pt x="478" y="0" on="1"/>
        <pt x="318" y="264" on="1"/>
        <pt x="308" y="263" on="0"/>
        <pt x="290" y="263" on="0"/>
        <pt x="279" y="263" on="1"/>
        <pt x="261" y="263" on="0"/>
        <pt x="224" y="264" on="0"/>
        <pt x="206" y="265" on="1"/>
        <pt x="206" y="0" on="1"/>
        <pt x="81" y="0" on="1"/>
        <pt x="81" y="726" on="1"/>
        <pt x="125" y="731" on="0"/>
        <pt x="218" y="738" on="0"/>
        <pt x="274" y="738" on="1"/>
        <pt x="352" y="738" on="0"/>
        <pt x="465" y="702" on="0"/>
        <pt x="539" y="640" on="0"/>
        <pt x="574" y="556" on="0"/>
        <pt x="574" y="507" on="1"/>
        <pt x="574" y="435" on="0"/>
        <pt x="500" y="325" on="0"/>
        <pt x="431" y="295" on="1"/>
        <pt x="623" y="0" on="1"/>
      </contour>
      <contour>
        <pt x="442" y="501" on="1"/>
        <pt x="442" y="557" on="0"/>
        <pt x="362" y="626" on="0"/>
        <pt x="290" y="626" on="1"/>
        <pt x="267" y="626" on="0"/>
        <pt x="225" y="624" on="0"/>
        <pt x="206" y="620" on="1"/>
        <pt x="206" y="370" on="1"/>
        <pt x="223" y="368" on="0"/>
        <pt x="260" y="366" on="0"/>
        <pt x="278" y="366" on="1"/>
        <pt x="360" y="366" on="0"/>
        <pt x="442" y="438" on="0"/>
      </contour>
    </TTGlyph>
    <TTGlyph name="Racute" xMin="81" yMin="0" xMax="623" yMax="980">
      <component glyphName="acute" x="134" y="312" flags="0x4"/>
      <component glyphName="R" x="0" y="0" flags="0x4"/>
    </TTGlyph>
    <TTGlyph name="Rcaron" xMin="81" yMin="0" xMax="623" yMax="976">
      <component glyphName="caron" x="81" y="312" flags="0x4"/>
      <component glyphName="R" x="0" y="0" flags="0x4"/>
    </TTGlyph>
    <TTGlyph name="Rcommaaccent" xMin="81" yMin="-311" xMax="623" yMax="738">
      <component glyphName="commaaccent" x="218" y="12" flags="0x4"/>
      <component glyphName="R" x="0" y="0" flags="0x4"/>
    </TTGlyph>
    <TTGlyph name="S" xMin="25" yMin="-12" xMax="497" yMax="745">
      <contour>
        <pt x="497" y="207" on="1"/>
        <pt x="497" y="163" on="0"/>
        <pt x="464" y="83" on="0"/>
        <pt x="401" y="23" on="0"/>
        <pt x="312" y="-12" on="0"/>
        <pt x="255" y="-12" on="1"/>
        <pt x="192" y="-12" on="0"/>
        <pt x="73" y="28" on="0"/>
        <pt x="25" y="60" on="1"/>
        <pt x="68" y="172" on="1"/>
        <pt x="112" y="140" on="0"/>
        <pt x="211" y="104" on="0"/>
        <pt x="259" y="104" on="1"/>
        <pt x="288" y="104" on="0"/>
        <pt x="330" y="120" on="0"/>
        <pt x="357" y="146" on="0"/>
        <pt x="370" y="181" on="0"/>
        <pt x="370" y="200" on="1"/>
        <pt x="370" y="219" on="0"/>
        <pt x="359" y="251" on="0"/>
        <pt x="329" y="282" on="0"/>
        <pt x="275" y="314" on="0"/>
        <pt x="232" y="332" on="1"/>
        <pt x="136" y="372" on="0"/>
        <pt x="58" y="474" on="0"/>
        <pt x="58" y="540" on="1"/>
        <pt x="58" y="580" on="0"/>
        <pt x="90" y="654" on="0"/>
        <pt x="152" y="711" on="0"/>
        <pt x="242" y="745" on="0"/>
        <pt x="299" y="745" on="1"/>
        <pt x="353" y="745" on="0"/>
        <pt x="451" y="714" on="0"/>
        <pt x="483" y="692" on="1"/>
        <pt x="443" y="582" on="1"/>
        <pt x="414" y="602" on="0"/>
        <pt x="333" y="634" on="0"/>
        <pt x="296" y="634" on="1"/>
        <pt x="238" y="634" on="0"/>
        <pt x="183" y="580" on="0"/>
        <pt x="183" y="543" on="1"/>
        <pt x="183" y="506" on="0"/>
        <pt x="242" y="455" on="0"/>
        <pt x="310" y="425" on="1"/>
        <pt x="364" y="401" on="0"/>
        <pt x="436" y="354" on="0"/>
        <pt x="479" y="302" on="0"/>
        <pt x="497" y="243" on="0"/>
      </contour>
    </TTGlyph>
    <TTGlyph name="Sacute" xMin="25" yMin="-12" xMax="497" yMax="980">
      <component glyphName="acute" x="98" y="312" flags="0x4"/>
      <component glyphName="S" x="0" y="0" flags="0x4"/>
    </TTGlyph>
    <TTGlyph name="Scaron" xMin="25" yMin="-12" xMax="497" yMax="976">
      <component glyphName="caron" x="45" y="312" flags="0x4"/>
      <component glyphName="S" x="0" y="0" flags="0x4"/>
    </TTGlyph>
    <TTGlyph name="Scedilla" xMin="25" yMin="-249" xMax="497" yMax="745">
      <contour>
        <pt x="374" y="-147" on="1"/>
        <pt x="374" y="-167" on="0"/>
        <pt x="360" y="-204" on="0"/>
        <pt x="331" y="-232" on="0"/>
        <pt x="288" y="-249" on="0"/>
        <pt x="260" y="-249" on="1"/>
        <pt x="204" y="-249" on="0"/>
        <pt x="140" y="-211" on="1"/>
        <pt x="168" y="-150" on="1"/>
        <pt x="220" y="-183" on="0"/>
        <pt x="263" y="-183" on="1"/>
        <pt x="299" y="-183" on="0"/>
        <pt x="299" y="-149" on="1"/>
        <pt x="299" y="-133" on="0"/>
        <pt x="258" y="-106" on="0"/>
        <pt x="203" y="-104" on="1"/>
        <pt x="199" y="-95" on="1"/>
        <pt x="221" y="-10" on="1"/>
        <pt x="167" y="-5" on="0"/>
        <pt x="67" y="32" on="0"/>
        <pt x="25" y="60" on="1"/>
        <pt x="68" y="172" on="1"/>
        <pt x="112" y="140" on="0"/>
        <pt x="211" y="104" on="0"/>
        <pt x="259" y="104" on="1"/>
        <pt x="288" y="104" on="0"/>
        <pt x="330" y="120" on="0"/>
        <pt x="357" y="146" on="0"/>
        <pt x="370" y="181" on="0"/>
        <pt x="370" y="200" on="1"/>
        <pt x="370" y="219" on="0"/>
        <pt x="359" y="251" on="0"/>
        <pt x="329" y="282" on="0"/>
        <pt x="275" y="314" on="0"/>
        <pt x="232" y="332" on="1"/>
        <pt x="136" y="372" on="0"/>
        <pt x="58" y="474" on="0"/>
        <pt x="58" y="540" on="1"/>
        <pt x="58" y="580" on="0"/>
        <pt x="90" y="654" on="0"/>
        <pt x="152" y="711" on="0"/>
        <pt x="242" y="745" on="0"/>
        <pt x="299" y="745" on="1"/>
        <pt x="353" y="745" on="0"/>
        <pt x="451" y="714" on="0"/>
        <pt x="483" y="692" on="1"/>
        <pt x="443" y="582" on="1"/>
        <pt x="414" y="602" on="0"/>
        <pt x="333" y="634" on="0"/>
        <pt x="296" y="634" on="1"/>
        <pt x="238" y="634" on="0"/>
        <pt x="183" y="580" on="0"/>
        <pt x="183" y="543" on="1"/>
        <pt x="183" y="506" on="0"/>
        <pt x="242" y="455" on="0"/>
        <pt x="310" y="425" on="1"/>
        <pt x="364" y="401" on="0"/>
        <pt x="436" y="354" on="0"/>
        <pt x="479" y="302" on="0"/>
        <pt x="497" y="243" on="0"/>
        <pt x="497" y="207" on="1"/>
        <pt x="497" y="165" on="0"/>
        <pt x="467" y="88" on="0"/>
        <pt x="410" y="29" on="0"/>
        <pt x="327" y="-8" on="0"/>
        <pt x="275" y="-11" on="1"/>
        <pt x="267" y="-46" on="1"/>
        <pt x="327" y="-60" on="0"/>
        <pt x="374" y="-114" on="0"/>
      </contour>
    </TTGlyph>
    <TTGlyph name="Scommaaccent" xMin="25" yMin="-323" xMax="497" yMax="745">
      <component glyphName="commaaccent" x="167" y="0" flags="0x4"/>
      <component glyphName="S" x="0" y="0" flags="0x4"/>
    </TTGlyph>
    <TTGlyph name="T" xMin="25" yMin="0" xMax="615" yMax="733">
      <contour>
        <pt x="383" y="619" on="1"/>
        <pt x="383" y="0" on="1"/>
        <pt x="258" y="0" on="1"/>
        <pt x="258" y="619" on="1"/>
        <pt x="25" y="619" on="1"/>
        <pt x="25" y="733" on="1"/>
        <pt x="615" y="733" on="1"/>
        <pt x="615" y="619" on="1"/>
      </contour>
    </TTGlyph>
    <TTGlyph name="Tcaron" xMin="25" yMin="0" xMax="615" yMax="976">
      <component glyphName="caron" x="87" y="312" flags="0x4"/>
      <component glyphName="T" x="0" y="0" flags="0x4"/>
    </TTGlyph>
    <TTGlyph name="Tcommaaccent" xMin="25" yMin="-323" xMax="615" yMax="733">
      <component glyphName="commaaccent" x="224" y="0" flags="0x4"/>
      <component glyphName="T" x="0" y="0" flags="0x4"/>
    </TTGlyph>
    <TTGlyph name="Thorn" xMin="80" yMin="0" xMax="570" yMax="733">
      <contour>
        <pt x="570" y="370" on="1"/>
        <pt x="570" y="314" on="0"/>
        <pt x="531" y="220" on="0"/>
        <pt x="457" y="152" on="0"/>
        <pt x="348" y="114" on="0"/>
        <pt x="278" y="114" on="1"/>
        <pt x="260" y="114" on="0"/>
        <pt x="223" y="116" on="0"/>
        <pt x="205" y="117" on="1"/>
        <pt x="205" y="0" on="1"/>
        <pt x="80" y="0" on="1"/>
        <pt x="80" y="733" on="1"/>
        <pt x="205" y="733" on="1"/>
        <pt x="205" y="616" on="1"/>
        <pt x="216" y="618" on="0"/>
        <pt x="255" y="618" on="0"/>
        <pt x="266" y="618" on="1"/>
        <pt x="341" y="618" on="0"/>
        <pt x="455" y="579" on="0"/>
        <pt x="532" y="512" on="0"/>
        <pt x="570" y="421" on="0"/>
      </contour>
      <contour>
        <pt x="440" y="366" on="1"/>
        <pt x="440" y="393" on="0"/>
        <pt x="421" y="442" on="0"/>
        <pt x="383" y="480" on="0"/>
        <pt x="325" y="502" on="0"/>
        <pt x="287" y="502" on="1"/>
        <pt x="244" y="502" on="0"/>
        <pt x="205" y="496" on="1"/>
        <pt x="205" y="228" on="1"/>
        <pt x="224" y="226" on="0"/>
        <pt x="258" y="224" on="0"/>
        <pt x="275" y="224" on="1"/>
        <pt x="360" y="224" on="0"/>
        <pt x="440" y="303" on="0"/>
      </contour>
    </TTGlyph>
    <TTGlyph name="U" xMin="72" yMin="-12" xMax="658" yMax="733">
      <contour>
        <pt x="658" y="281" on="1"/>
        <pt x="658" y="211" on="0"/>
        <pt x="616" y="102" on="0"/>
        <pt x="540" y="27" on="0"/>
        <pt x="430" y="-12" on="0"/>
        <pt x="363" y="-12" on="1"/>
        <pt x="225" y="-12" on="0"/>
        <pt x="72" y="138" on="0"/>
        <pt x="72" y="281" on="1"/>
        <pt x="72" y="733" on="1"/>
        <pt x="197" y="733" on="1"/>
        <pt x="197" y="290" on="1"/>
        <pt x="197" y="195" on="0"/>
        <pt x="285" y="102" on="0"/>
        <pt x="365" y="102" on="1"/>
        <pt x="444" y="102" on="0"/>
        <pt x="533" y="196" on="0"/>
        <pt x="533" y="290" on="1"/>
        <pt x="533" y="733" on="1"/>
        <pt x="658" y="733" on="1"/>
      </contour>
    </TTGlyph>
    <TTGlyph name="Uacute" xMin="72" yMin="-12" xMax="658" yMax="973">
      <component glyphName="acute" x="186" y="305" flags="0x4"/>
      <component glyphName="U" x="0" y="0" flags="0x4"/>
    </TTGlyph>
    <TTGlyph name="Ubreve" xMin="72" yMin="-12" xMax="658" yMax="938">
      <component glyphName="U" x="0" y="0" flags="0x204"/>
      <component glyphName="breve" x="130" y="305" flags="0x4"/>
    </TTGlyph>
    <TTGlyph name="Ucircumflex" xMin="72" yMin="-12" xMax="658" yMax="975">
      <component glyphName="circumflex" x="127" y="305" flags="0x4"/>
      <component glyphName="U" x="0" y="0" flags="0x4"/>
    </TTGlyph>
    <TTGlyph name="Udieresis" xMin="72" yMin="-12" xMax="658" yMax="925">
      <component glyphName="dieresis" x="130" y="305" flags="0x4"/>
      <component glyphName="U" x="0" y="0" flags="0x4"/>
    </TTGlyph>
    <TTGlyph name="Ugrave" xMin="72" yMin="-12" xMax="658" yMax="972">
      <component glyphName="U" x="0" y="0" flags="0x204"/>
      <component glyphName="grave" x="53" y="305" flags="0x4"/>
    </TTGlyph>
    <TTGlyph name="Uhungarumlaut" xMin="72" yMin="-12" xMax="658" yMax="1010">
      <component glyphName="U" x="0" y="0" flags="0x204"/>
      <component glyphName="hungarumlaut" x="172" y="305" flags="0x4"/>
    </TTGlyph>
    <TTGlyph name="Umacron" xMin="72" yMin="-12" xMax="658" yMax="895">
      <component glyphName="U" x="0" y="0" flags="0x204"/>
      <component glyphName="macron" x="130" y="305" flags="0x4"/>
    </TTGlyph>
    <TTGlyph name="Uogonek" xMin="72" yMin="-222" xMax="658" yMax="733">
      <contour>
        <pt x="658" y="281" on="1"/>
        <pt x="658" y="153" on="0"/>
        <pt x="525" y="3" on="0"/>
        <pt x="410" y="-9" on="1"/>
        <pt x="383" y="-43" on="0"/>
        <pt x="356" y="-93" on="0"/>
        <pt x="356" y="-116" on="1"/>
        <pt x="356" y="-133" on="0"/>
        <pt x="374" y="-152" on="0"/>
        <pt x="389" y="-152" on="1"/>
        <pt x="403" y="-152" on="0"/>
        <pt x="424" y="-140" on="0"/>
        <pt x="436" y="-128" on="1"/>
        <pt x="468" y="-173" on="1"/>
        <pt x="448" y="-195" on="0"/>
        <pt x="399" y="-221" on="0"/>
        <pt x="365" y="-222" on="1"/>
        <pt x="323" y="-222" on="0"/>
        <pt x="274" y="-173" on="0"/>
        <pt x="275" y="-134" on="1"/>
        <pt x="275" y="-102" on="0"/>
        <pt x="306" y="-46" on="0"/>
        <pt x="336" y="-11" on="1"/>
        <pt x="210" y="-4" on="0"/>
        <pt x="72" y="144" on="0"/>
        <pt x="72" y="281" on="1"/>
        <pt x="72" y="733" on="1"/>
        <pt x="197" y="733" on="1"/>
        <pt x="197" y="290" on="1"/>
        <pt x="197" y="195" on="0"/>
        <pt x="285" y="102" on="0"/>
        <pt x="365" y="102" on="1"/>
        <pt x="444" y="102" on="0"/>
        <pt x="533" y="196" on="0"/>
        <pt x="533" y="290" on="1"/>
        <pt x="533" y="733" on="1"/>
        <pt x="658" y="733" on="1"/>
      </contour>
    </TTGlyph>
    <TTGlyph name="Uring" xMin="72" yMin="-12" xMax="658" yMax="1020">
      <component glyphName="ring" x="130" y="305" flags="0x4"/>
      <component glyphName="U" x="0" y="0" flags="0x4"/>
    </TTGlyph>
    <TTGlyph name="V" xMin="-3" yMin="-10" xMax="690" yMax="733">
      <contour>
        <pt x="352" y="-10" on="1"/>
        <pt x="336" y="-10" on="1"/>
        <pt x="-3" y="733" on="1"/>
        <pt x="140" y="733" on="1"/>
        <pt x="346" y="245" on="1"/>
        <pt x="551" y="733" on="1"/>
        <pt x="690" y="733" on="1"/>
      </contour>
    </TTGlyph>
    <TTGlyph name="W" xMin="5" yMin="-14" xMax="964" yMax="739">
      <contour>
        <pt x="732" y="-12" on="1"/>
        <pt x="712" y="-14" on="1"/>
        <pt x="484" y="496" on="1"/>
        <pt x="259" y="-14" on="1"/>
        <pt x="240" y="-12" on="1"/>
        <pt x="5" y="733" on="1"/>
        <pt x="143" y="733" on="1"/>
        <pt x="275" y="271" on="1"/>
        <pt x="479" y="739" on="1"/>
        <pt x="493" y="739" on="1"/>
        <pt x="698" y="274" on="1"/>
        <pt x="828" y="733" on="1"/>
        <pt x="964" y="733" on="1"/>
      </contour>
    </TTGlyph>
    <TTGlyph name="Wacute" xMin="5" yMin="-14" xMax="964" yMax="980">
      <component glyphName="acute" x="305" y="312" flags="0x4"/>
      <component glyphName="W" x="0" y="0" flags="0x4"/>
    </TTGlyph>
    <TTGlyph name="Wcircumflex" xMin="5" yMin="-14" xMax="964" yMax="982">
      <component glyphName="circumflex" x="246" y="312" flags="0x4"/>
      <component glyphName="W" x="0" y="0" flags="0x4"/>
    </TTGlyph>
    <TTGlyph name="Wdieresis" xMin="5" yMin="-14" xMax="964" yMax="932">
      <component glyphName="dieresis" x="249" y="312" flags="0x4"/>
      <component glyphName="W" x="0" y="0" flags="0x4"/>
    </TTGlyph>
    <TTGlyph name="Wgrave" xMin="5" yMin="-14" xMax="964" yMax="979">
      <component glyphName="W" x="0" y="0" flags="0x204"/>
      <component glyphName="grave" x="173" y="312" flags="0x4"/>
    </TTGlyph>
    <TTGlyph name="X" xMin="20" yMin="0" xMax="684" yMax="733">
      <contour>
        <pt x="534" y="0" on="1"/>
        <pt x="351" y="275" on="1"/>
        <pt x="167" y="0" on="1"/>
        <pt x="20" y="0" on="1"/>
        <pt x="276" y="362" on="1"/>
        <pt x="20" y="733" on="1"/>
        <pt x="170" y="733" on="1"/>
        <pt x="353" y="458" on="1"/>
        <pt x="538" y="733" on="1"/>
        <pt x="684" y="733" on="1"/>
        <pt x="428" y="372" on="1"/>
        <pt x="684" y="0" on="1"/>
      </contour>
    </TTGlyph>
    <TTGlyph name="Y" xMin="15" yMin="0" xMax="656" yMax="733">
      <contour>
        <pt x="398" y="308" on="1"/>
        <pt x="398" y="0" on="1"/>
        <pt x="273" y="0" on="1"/>
        <pt x="273" y="309" on="1"/>
        <pt x="15" y="733" on="1"/>
        <pt x="158" y="733" on="1"/>
        <pt x="338" y="423" on="1"/>
        <pt x="516" y="733" on="1"/>
        <pt x="656" y="733" on="1"/>
      </contour>
    </TTGlyph>
    <TTGlyph name="Yacute" xMin="15" yMin="0" xMax="656" yMax="973">
      <component glyphName="Y" x="0" y="0" flags="0x204"/>
      <component glyphName="acute" x="156" y="305" flags="0x4"/>
    </TTGlyph>
    <TTGlyph name="Ycircumflex" xMin="15" yMin="0" xMax="656" yMax="975">
      <component glyphName="Y" x="0" y="0" flags="0x204"/>
      <component glyphName="circumflex" x="97" y="305" flags="0x4"/>
    </TTGlyph>
    <TTGlyph name="Ydieresis" xMin="15" yMin="0" xMax="656" yMax="925">
      <component glyphName="Y" x="0" y="0" flags="0x204"/>
      <component glyphName="dieresis" x="100" y="305" flags="0x4"/>
    </TTGlyph>
    <TTGlyph name="Ygrave" xMin="15" yMin="0" xMax="656" yMax="972">
      <component glyphName="Y" x="0" y="0" flags="0x204"/>
      <component glyphName="grave" x="23" y="305" flags="0x4"/>
    </TTGlyph>
    <TTGlyph name="Z" xMin="30" yMin="0" xMax="620" yMax="733">
      <contour>
        <pt x="231" y="114" on="1"/>
        <pt x="611" y="114" on="1"/>
        <pt x="611" y="0" on="1"/>
        <pt x="35" y="0" on="1"/>
        <pt x="30" y="15" on="1"/>
        <pt x="419" y="619" on="1"/>
        <pt x="56" y="619" on="1"/>
        <pt x="56" y="733" on="1"/>
        <pt x="615" y="733" on="1"/>
        <pt x="620" y="718" on="1"/>
      </contour>
    </TTGlyph>
    <TTGlyph name="Zacute" xMin="30" yMin="0" xMax="620" yMax="980">
      <component glyphName="acute" x="145" y="312" flags="0x4"/>
      <component glyphName="Z" x="0" y="0" flags="0x4"/>
    </TTGlyph>
    <TTGlyph name="Zcaron" xMin="30" yMin="0" xMax="620" yMax="976">
      <component glyphName="caron" x="92" y="312" flags="0x4"/>
      <component glyphName="Z" x="0" y="0" flags="0x4"/>
    </TTGlyph>
    <TTGlyph name="Zdotaccent" xMin="30" yMin="0" xMax="620" yMax="932">
      <component glyphName="Z" x="0" y="0" flags="0x204"/>
      <component glyphName="dotaccent" x="104" y="312" flags="0x4"/>
    </TTGlyph>
    <TTGlyph name="a" xMin="30" yMin="-8" xMax="412" yMax="435">
      <contour>
        <pt x="304" y="0" on="1"/>
        <pt x="304" y="41" on="1"/>
        <pt x="280" y="18" on="0"/>
        <pt x="221" y="-8" on="0"/>
        <pt x="180" y="-8" on="1"/>
        <pt x="149" y="-8" on="0"/>
        <pt x="94" y="10" on="0"/>
        <pt x="54" y="44" on="0"/>
        <pt x="30" y="95" on="0"/>
        <pt x="30" y="127" on="1"/>
        <pt x="30" y="155" on="0"/>
        <pt x="52" y="204" on="0"/>
        <pt x="92" y="240" on="0"/>
        <pt x="150" y="260" on="0"/>
        <pt x="185" y="260" on="1"/>
        <pt x="224" y="260" on="0"/>
        <pt x="276" y="244" on="0"/>
        <pt x="300" y="233" on="1"/>
        <pt x="300" y="251" on="1"/>
        <pt x="300" y="301" on="0"/>
        <pt x="248" y="346" on="0"/>
        <pt x="197" y="346" on="1"/>
        <pt x="171" y="346" on="0"/>
        <pt x="116" y="336" on="0"/>
        <pt x="91" y="328" on="1"/>
        <pt x="78" y="413" on="1"/>
        <pt x="107" y="422" on="0"/>
        <pt x="183" y="435" on="0"/>
        <pt x="215" y="435" on="1"/>
        <pt x="316" y="435" on="0"/>
        <pt x="412" y="341" on="0"/>
        <pt x="412" y="247" on="1"/>
        <pt x="412" y="0" on="1"/>
      </contour>
      <contour>
        <pt x="300" y="160" on="1"/>
        <pt x="277" y="175" on="0"/>
        <pt x="240" y="189" on="0"/>
        <pt x="212" y="189" on="1"/>
        <pt x="180" y="189" on="0"/>
        <pt x="137" y="157" on="0"/>
        <pt x="137" y="128" on="1"/>
        <pt x="137" y="99" on="0"/>
        <pt x="177" y="66" on="0"/>
        <pt x="214" y="66" on="1"/>
        <pt x="243" y="66" on="0"/>
        <pt x="285" y="88" on="0"/>
        <pt x="300" y="107" on="1"/>
      </contour>
    </TTGlyph>
    <TTGlyph name="aacute" xMin="30" yMin="-8" xMax="412" yMax="668">
      <component glyphName="a" x="0" y="0" flags="0x204"/>
      <component glyphName="acute" x="57" y="0" flags="0x4"/>
    </TTGlyph>
    <TTGlyph name="abreve" xMin="30" yMin="-8" xMax="412" yMax="633">
      <component glyphName="a" x="0" y="0" flags="0x204"/>
      <component glyphName="breve" x="1" y="0" flags="0x4"/>
    </TTGlyph>
    <TTGlyph name="acircumflex" xMin="30" yMin="-8" xMax="412" yMax="670">
      <component glyphName="a" x="0" y="0" flags="0x204"/>
      <component glyphName="circumflex" x="-1" y="0" flags="0x4"/>
    </TTGlyph>
    <TTGlyph name="acute" xMin="119" yMin="479" xMax="350" yMax="668">
      <contour>
        <pt x="148" y="479" on="1"/>
        <pt x="119" y="534" on="1"/>
        <pt x="301" y="668" on="1"/>
        <pt x="350" y="568" on="1"/>
      </contour>
    </TTGlyph>
    <TTGlyph name="adieresis" xMin="30" yMin="-8" xMax="412" yMax="620">
      <component glyphName="a" x="0" y="0" flags="0x204"/>
      <component glyphName="dieresis" x="1" y="0" flags="0x4"/>
    </TTGlyph>
    <TTGlyph name="ae" xMin="30" yMin="-8" xMax="711" yMax="435">
      <contour>
        <pt x="301" y="251" on="1"/>
        <pt x="301" y="301" on="0"/>
        <pt x="249" y="346" on="0"/>
        <pt x="197" y="346" on="1"/>
        <pt x="171" y="346" on="0"/>
        <pt x="117" y="336" on="0"/>
        <pt x="91" y="328" on="1"/>
        <pt x="78" y="413" on="1"/>
        <pt x="107" y="422" on="0"/>
        <pt x="181" y="435" on="0"/>
        <pt x="213" y="435" on="1"/>
        <pt x="272" y="435" on="0"/>
        <pt x="348" y="402" on="0"/>
        <pt x="370" y="367" on="1"/>
        <pt x="396" y="398" on="0"/>
        <pt x="471" y="435" on="0"/>
        <pt x="519" y="435" on="1"/>
        <pt x="566" y="435" on="0"/>
        <pt x="638" y="403" on="0"/>
        <pt x="686" y="347" on="0"/>
        <pt x="711" y="273" on="0"/>
        <pt x="711" y="230" on="1"/>
        <pt x="711" y="219" on="0"/>
        <pt x="710" y="190" on="0"/>
        <pt x="708" y="179" on="1"/>
        <pt x="412" y="179" on="1"/>
        <pt x="419" y="134" on="0"/>
        <pt x="479" y="81" on="0"/>
        <pt x="546" y="81" on="1"/>
        <pt x="572" y="81" on="0"/>
        <pt x="637" y="94" on="0"/>
        <pt x="669" y="104" on="1"/>
        <pt x="683" y="16" on="1"/>
        <pt x="645" y="5" on="0"/>
        <pt x="569" y="-8" on="0"/>
        <pt x="537" y="-8" on="1"/>
        <pt x="474" y="-8" on="0"/>
        <pt x="383" y="37" on="0"/>
        <pt x="355" y="74" on="1"/>
        <pt x="323" y="35" on="0"/>
        <pt x="238" y="-8" on="0"/>
        <pt x="187" y="-8" on="1"/>
        <pt x="154" y="-8" on="0"/>
        <pt x="96" y="10" on="0"/>
        <pt x="54" y="44" on="0"/>
        <pt x="30" y="95" on="0"/>
        <pt x="30" y="127" on="1"/>
        <pt x="30" y="155" on="0"/>
        <pt x="52" y="204" on="0"/>
        <pt x="92" y="240" on="0"/>
        <pt x="149" y="260" on="0"/>
        <pt x="184" y="260" on="1"/>
        <pt x="223" y="260" on="0"/>
        <pt x="277" y="244" on="0"/>
        <pt x="301" y="232" on="1"/>
      </contour>
      <contour>
        <pt x="610" y="250" on="1"/>
        <pt x="607" y="294" on="0"/>
        <pt x="558" y="346" on="0"/>
        <pt x="514" y="346" on="1"/>
        <pt x="472" y="346" on="0"/>
        <pt x="421" y="296" on="0"/>
        <pt x="415" y="250" on="1"/>
      </contour>
      <contour>
        <pt x="314" y="145" on="1"/>
        <pt x="297" y="166" on="0"/>
        <pt x="244" y="192" on="0"/>
        <pt x="210" y="192" on="1"/>
        <pt x="178" y="192" on="0"/>
        <pt x="137" y="159" on="0"/>
        <pt x="137" y="130" on="1"/>
        <pt x="137" y="101" on="0"/>
        <pt x="178" y="69" on="0"/>
        <pt x="214" y="69" on="1"/>
        <pt x="243" y="69" on="0"/>
        <pt x="300" y="104" on="0"/>
      </contour>
    </TTGlyph>
    <TTGlyph name="aeacute" xMin="30" yMin="-8" xMax="711" yMax="668">
      <component glyphName="acute" x="194" y="0" flags="0x4"/>
      <component glyphName="ae" x="0" y="0" flags="0x4"/>
    </TTGlyph>
    <TTGlyph name="agrave" xMin="30" yMin="-8" xMax="412" yMax="667">
      <component glyphName="a" x="0" y="0" flags="0x204"/>
      <component glyphName="grave" x="-74" y="0" flags="0x4"/>
    </TTGlyph>
    <TTGlyph name="amacron" xMin="30" yMin="-8" xMax="412" yMax="590">
      <component glyphName="a" x="0" y="0" flags="0x204"/>
      <component glyphName="macron" x="1" y="0" flags="0x4"/>
    </TTGlyph>
    <TTGlyph name="ampersand" xMin="50" yMin="-15" xMax="594" yMax="598">
      <contour>
        <pt x="594" y="235" on="1"/>
        <pt x="571" y="206" on="0"/>
        <pt x="523" y="150" on="0"/>
        <pt x="498" y="124" on="1"/>
        <pt x="517" y="107" on="0"/>
        <pt x="558" y="72" on="0"/>
        <pt x="580" y="55" on="1"/>
        <pt x="514" y="-15" on="1"/>
        <pt x="491" y="4" on="0"/>
        <pt x="445" y="41" on="0"/>
        <pt x="425" y="59" on="1"/>
        <pt x="384" y="27" on="0"/>
        <pt x="295" y="-10" on="0"/>
        <pt x="245" y="-10" on="1"/>
        <pt x="206" y="-10" on="0"/>
        <pt x="136" y="12" on="0"/>
        <pt x="82" y="54" on="0"/>
        <pt x="50" y="116" on="0"/>
        <pt x="50" y="156" on="1"/>
        <pt x="50" y="210" on="0"/>
        <pt x="124" y="296" on="0"/>
        <pt x="184" y="323" on="1"/>
        <pt x="144" y="386" on="0"/>
        <pt x="144" y="437" on="1"/>
        <pt x="144" y="470" on="0"/>
        <pt x="171" y="529" on="0"/>
        <pt x="217" y="572" on="0"/>
        <pt x="278" y="598" on="0"/>
        <pt x="312" y="598" on="1"/>
        <pt x="350" y="598" on="0"/>
        <pt x="409" y="573" on="0"/>
        <pt x="450" y="533" on="0"/>
        <pt x="472" y="483" on="0"/>
        <pt x="472" y="457" on="1"/>
        <pt x="472" y="409" on="0"/>
        <pt x="405" y="321" on="0"/>
        <pt x="327" y="292" on="1"/>
        <pt x="347" y="268" on="0"/>
        <pt x="399" y="214" on="0"/>
        <pt x="431" y="185" on="1"/>
        <pt x="457" y="210" on="0"/>
        <pt x="503" y="265" on="0"/>
        <pt x="524" y="293" on="1"/>
      </contour>
      <contour>
        <pt x="374" y="449" on="1"/>
        <pt x="374" y="475" on="0"/>
        <pt x="339" y="512" on="0"/>
        <pt x="312" y="512" on="1"/>
        <pt x="286" y="512" on="0"/>
        <pt x="249" y="470" on="0"/>
        <pt x="249" y="439" on="1"/>
        <pt x="249" y="421" on="0"/>
        <pt x="264" y="377" on="0"/>
        <pt x="281" y="353" on="1"/>
        <pt x="332" y="373" on="0"/>
        <pt x="374" y="424" on="0"/>
      </contour>
      <contour>
        <pt x="357" y="122" on="1"/>
        <pt x="320" y="157" on="0"/>
        <pt x="258" y="222" on="0"/>
        <pt x="232" y="254" on="1"/>
        <pt x="201" y="241" on="0"/>
        <pt x="163" y="192" on="0"/>
        <pt x="163" y="162" on="1"/>
        <pt x="163" y="126" on="0"/>
        <pt x="213" y="82" on="0"/>
        <pt x="254" y="82" on="1"/>
        <pt x="280" y="82" on="0"/>
        <pt x="331" y="104" on="0"/>
      </contour>
    </TTGlyph>
    <TTGlyph name="ampersand.cap" xMin="41" yMin="-17" xMax="714" yMax="744">
      <contour>
        <pt x="367" y="353" on="1"/>
        <pt x="393" y="321" on="0"/>
        <pt x="463" y="253" on="0"/>
        <pt x="505" y="216" on="1"/>
        <pt x="538" y="249" on="0"/>
        <pt x="603" y="324" on="0"/>
        <pt x="632" y="362" on="1"/>
        <pt x="714" y="295" on="1"/>
        <pt x="684" y="257" on="0"/>
        <pt x="619" y="181" on="0"/>
        <pt x="586" y="147" on="1"/>
        <pt x="692" y="62" on="1"/>
        <pt x="616" y="-17" on="1"/>
        <pt x="587" y="6" on="0"/>
        <pt x="530" y="51" on="0"/>
        <pt x="503" y="74" on="1"/>
        <pt x="452" y="36" on="0"/>
        <pt x="343" y="-12" on="0"/>
        <pt x="284" y="-12" on="1"/>
        <pt x="233" y="-12" on="0"/>
        <pt x="145" y="17" on="0"/>
        <pt x="79" y="71" on="0"/>
        <pt x="41" y="147" on="0"/>
        <pt x="41" y="195" on="1"/>
        <pt x="41" y="229" on="0"/>
        <pt x="64" y="289" on="0"/>
        <pt x="106" y="340" on="0"/>
        <pt x="164" y="380" on="0"/>
        <pt x="199" y="395" on="1"/>
        <pt x="151" y="471" on="0"/>
        <pt x="151" y="544" on="1"/>
        <pt x="151" y="586" on="0"/>
        <pt x="184" y="659" on="0"/>
        <pt x="241" y="713" on="0"/>
        <pt x="317" y="744" on="0"/>
        <pt x="360" y="744" on="1"/>
        <pt x="407" y="744" on="0"/>
        <pt x="481" y="713" on="0"/>
        <pt x="532" y="662" on="0"/>
        <pt x="558" y="598" on="0"/>
        <pt x="558" y="565" on="1"/>
        <pt x="558" y="496" on="0"/>
        <pt x="461" y="388" on="0"/>
      </contour>
      <contour>
        <pt x="421" y="145" on="1"/>
        <pt x="371" y="190" on="0"/>
        <pt x="287" y="274" on="0"/>
        <pt x="254" y="316" on="1"/>
        <pt x="221" y="301" on="0"/>
        <pt x="171" y="243" on="0"/>
        <pt x="171" y="204" on="1"/>
        <pt x="171" y="156" on="0"/>
        <pt x="237" y="93" on="0"/>
        <pt x="294" y="93" on="1"/>
        <pt x="324" y="93" on="0"/>
        <pt x="388" y="120" on="0"/>
      </contour>
      <contour>
        <pt x="311" y="428" on="1"/>
        <pt x="371" y="448" on="0"/>
        <pt x="442" y="516" on="0"/>
        <pt x="442" y="559" on="1"/>
        <pt x="442" y="595" on="0"/>
        <pt x="398" y="643" on="0"/>
        <pt x="361" y="643" on="1"/>
        <pt x="323" y="643" on="0"/>
        <pt x="274" y="585" on="0"/>
        <pt x="274" y="542" on="1"/>
        <pt x="274" y="515" on="0"/>
        <pt x="291" y="458" on="0"/>
      </contour>
    </TTGlyph>
    <TTGlyph name="aogonek" xMin="30" yMin="-217" xMax="428" yMax="435">
      <contour>
        <pt x="428" y="-168" on="1"/>
        <pt x="408" y="-190" on="0"/>
        <pt x="359" y="-216" on="0"/>
        <pt x="325" y="-217" on="1"/>
        <pt x="283" y="-217" on="0"/>
        <pt x="234" y="-168" on="0"/>
        <pt x="235" y="-129" on="1"/>
        <pt x="235" y="-96" on="0"/>
        <pt x="269" y="-36" on="0"/>
        <pt x="304" y="2" on="1"/>
        <pt x="304" y="41" on="1"/>
        <pt x="280" y="18" on="0"/>
        <pt x="221" y="-8" on="0"/>
        <pt x="180" y="-8" on="1"/>
        <pt x="149" y="-8" on="0"/>
        <pt x="94" y="10" on="0"/>
        <pt x="54" y="44" on="0"/>
        <pt x="30" y="95" on="0"/>
        <pt x="30" y="127" on="1"/>
        <pt x="30" y="155" on="0"/>
        <pt x="52" y="204" on="0"/>
        <pt x="92" y="240" on="0"/>
        <pt x="150" y="260" on="0"/>
        <pt x="185" y="260" on="1"/>
        <pt x="224" y="260" on="0"/>
        <pt x="276" y="244" on="0"/>
        <pt x="300" y="233" on="1"/>
        <pt x="300" y="251" on="1"/>
        <pt x="300" y="301" on="0"/>
        <pt x="248" y="346" on="0"/>
        <pt x="197" y="346" on="1"/>
        <pt x="171" y="346" on="0"/>
        <pt x="116" y="336" on="0"/>
        <pt x="91" y="328" on="1"/>
        <pt x="78" y="413" on="1"/>
        <pt x="107" y="422" on="0"/>
        <pt x="183" y="435" on="0"/>
        <pt x="215" y="435" on="1"/>
        <pt x="316" y="435" on="0"/>
        <pt x="412" y="341" on="0"/>
        <pt x="412" y="247" on="1"/>
        <pt x="412" y="0" on="1"/>
        <pt x="373" y="0" on="1"/>
        <pt x="344" y="-35" on="0"/>
        <pt x="316" y="-88" on="0"/>
        <pt x="316" y="-111" on="1"/>
        <pt x="316" y="-128" on="0"/>
        <pt x="334" y="-147" on="0"/>
        <pt x="349" y="-147" on="1"/>
        <pt x="363" y="-147" on="0"/>
        <pt x="384" y="-135" on="0"/>
        <pt x="396" y="-123" on="1"/>
      </contour>
      <contour>
        <pt x="300" y="160" on="1"/>
        <pt x="277" y="175" on="0"/>
        <pt x="240" y="189" on="0"/>
        <pt x="212" y="189" on="1"/>
        <pt x="180" y="189" on="0"/>
        <pt x="137" y="157" on="0"/>
        <pt x="137" y="128" on="1"/>
        <pt x="137" y="99" on="0"/>
        <pt x="177" y="66" on="0"/>
        <pt x="214" y="66" on="1"/>
        <pt x="243" y="66" on="0"/>
        <pt x="285" y="88" on="0"/>
        <pt x="300" y="107" on="1"/>
      </contour>
    </TTGlyph>
    <TTGlyph name="aring" xMin="30" yMin="-8" xMax="412" yMax="715">
      <component glyphName="a" x="0" y="0" flags="0x204"/>
      <component glyphName="ring" x="1" y="0" flags="0x4"/>
    </TTGlyph>
    <TTGlyph name="aringacute" xMin="30" yMin="-8" xMax="412" yMax="941">
      <component glyphName="a" x="0" y="0" flags="0x204"/>
      <component glyphName="acute" x="50" y="273" flags="0x4"/>
      <component glyphName="ring" x="-1" y="0" flags="0x4"/>
    </TTGlyph>
    <TTGlyph name="arrowleft" xMin="33" yMin="24" xMax="658" yMax="511">
      <contour>
        <pt x="202" y="222" on="1"/>
        <pt x="350" y="93" on="1"/>
        <pt x="287" y="24" on="1"/>
        <pt x="33" y="261" on="1"/>
        <pt x="33" y="274" on="1"/>
        <pt x="287" y="511" on="1"/>
        <pt x="350" y="442" on="1"/>
        <pt x="202" y="313" on="1"/>
        <pt x="658" y="313" on="1"/>
        <pt x="658" y="222" on="1"/>
      </contour>
    </TTGlyph>
    <TTGlyph name="arrowleft.cap" xMin="33" yMin="127" xMax="658" yMax="614">
      <component glyphName="arrowleft" x="0" y="103" flags="0x204"/>
    </TTGlyph>
    <TTGlyph name="arrowright" xMin="50" yMin="24" xMax="676" yMax="511">
      <contour>
        <pt x="506" y="313" on="1"/>
        <pt x="359" y="442" on="1"/>
        <pt x="422" y="511" on="1"/>
        <pt x="676" y="274" on="1"/>
        <pt x="676" y="261" on="1"/>
        <pt x="422" y="24" on="1"/>
        <pt x="359" y="93" on="1"/>
        <pt x="506" y="222" on="1"/>
        <pt x="50" y="222" on="1"/>
        <pt x="50" y="313" on="1"/>
      </contour>
    </TTGlyph>
    <TTGlyph name="arrowright.cap" xMin="50" yMin="127" xMax="676" yMax="614">
      <component glyphName="arrowright" x="0" y="103" flags="0x204"/>
    </TTGlyph>
    <TTGlyph name="asciicircum" xMin="70" yMin="491" xMax="407" yMax="668">
      <contour>
        <pt x="300" y="491" on="1"/>
        <pt x="235" y="575" on="1"/>
        <pt x="171" y="491" on="1"/>
        <pt x="70" y="491" on="1"/>
        <pt x="218" y="668" on="1"/>
        <pt x="263" y="668" on="1"/>
        <pt x="407" y="491" on="1"/>
      </contour>
    </TTGlyph>
    <TTGlyph name="asciitilde" xMin="68" yMin="305" xMax="406" yMax="429">
      <contour>
        <pt x="406" y="364" on="1"/>
        <pt x="384" y="338" on="0"/>
        <pt x="327" y="305" on="0"/>
        <pt x="299" y="305" on="1"/>
        <pt x="279" y="305" on="0"/>
        <pt x="249" y="315" on="0"/>
        <pt x="233" y="324" on="1"/>
        <pt x="216" y="335" on="0"/>
        <pt x="190" y="343" on="0"/>
        <pt x="176" y="343" on="1"/>
        <pt x="140" y="343" on="0"/>
        <pt x="108" y="305" on="1"/>
        <pt x="68" y="369" on="1"/>
        <pt x="90" y="396" on="0"/>
        <pt x="147" y="428" on="0"/>
        <pt x="175" y="428" on="1"/>
        <pt x="195" y="428" on="0"/>
        <pt x="225" y="418" on="0"/>
        <pt x="241" y="409" on="1"/>
        <pt x="257" y="399" on="0"/>
        <pt x="282" y="391" on="0"/>
        <pt x="296" y="391" on="1"/>
        <pt x="331" y="391" on="0"/>
        <pt x="363" y="429" on="1"/>
      </contour>
    </TTGlyph>
    <TTGlyph name="asterisk" xMin="39" yMin="435" xMax="355" yMax="732">
      <contour>
        <pt x="247" y="564" on="1"/>
        <pt x="319" y="480" on="1"/>
        <pt x="256" y="435" on="1"/>
        <pt x="197" y="528" on="1"/>
        <pt x="138" y="435" on="1"/>
        <pt x="75" y="480" on="1"/>
        <pt x="147" y="564" on="1"/>
        <pt x="39" y="591" on="1"/>
        <pt x="63" y="664" on="1"/>
        <pt x="166" y="623" on="1"/>
        <pt x="158" y="732" on="1"/>
        <pt x="236" y="732" on="1"/>
        <pt x="228" y="623" on="1"/>
        <pt x="331" y="664" on="1"/>
        <pt x="355" y="591" on="1"/>
      </contour>
    </TTGlyph>
    <TTGlyph name="at" xMin="50" yMin="-12" xMax="640" yMax="591">
      <contour>
        <pt x="640" y="315" on="1"/>
        <pt x="640" y="268" on="0"/>
        <pt x="607" y="190" on="0"/>
        <pt x="573" y="165" on="1"/>
        <pt x="559" y="154" on="0"/>
        <pt x="523" y="144" on="0"/>
        <pt x="505" y="144" on="1"/>
        <pt x="479" y="144" on="0"/>
        <pt x="433" y="168" on="0"/>
        <pt x="421" y="193" on="1"/>
        <pt x="401" y="172" on="0"/>
        <pt x="352" y="149" on="0"/>
        <pt x="321" y="149" on="1"/>
        <pt x="283" y="149" on="0"/>
        <pt x="229" y="192" on="0"/>
        <pt x="229" y="232" on="1"/>
        <pt x="229" y="267" on="0"/>
        <pt x="280" y="312" on="0"/>
        <pt x="324" y="312" on="1"/>
        <pt x="347" y="312" on="0"/>
        <pt x="378" y="304" on="0"/>
        <pt x="392" y="297" on="1"/>
        <pt x="392" y="306" on="1"/>
        <pt x="392" y="335" on="0"/>
        <pt x="361" y="361" on="0"/>
        <pt x="331" y="361" on="1"/>
        <pt x="316" y="361" on="0"/>
        <pt x="284" y="356" on="0"/>
        <pt x="267" y="351" on="1"/>
        <pt x="259" y="407" on="1"/>
        <pt x="277" y="413" on="0"/>
        <pt x="324" y="421" on="0"/>
        <pt x="344" y="421" on="1"/>
        <pt x="408" y="421" on="0"/>
        <pt x="463" y="362" on="0"/>
        <pt x="463" y="303" on="1"/>
        <pt x="463" y="239" on="1"/>
        <pt x="463" y="213" on="0"/>
        <pt x="491" y="192" on="0"/>
        <pt x="508" y="192" on="1"/>
        <pt x="529" y="192" on="0"/>
        <pt x="543" y="203" on="1"/>
        <pt x="561" y="217" on="0"/>
        <pt x="582" y="273" on="0"/>
        <pt x="582" y="308" on="1"/>
        <pt x="582" y="345" on="0"/>
        <pt x="556" y="425" on="0"/>
        <pt x="500" y="493" on="0"/>
        <pt x="410" y="537" on="0"/>
        <pt x="346" y="537" on="1"/>
        <pt x="298" y="537" on="0"/>
        <pt x="213" y="498" on="0"/>
        <pt x="148" y="430" on="0"/>
        <pt x="111" y="341" on="0"/>
        <pt x="111" y="290" on="1"/>
        <pt x="111" y="239" on="0"/>
        <pt x="146" y="149" on="0"/>
        <pt x="214" y="82" on="0"/>
        <pt x="313" y="42" on="0"/>
        <pt x="377" y="42" on="1"/>
        <pt x="404" y="42" on="0"/>
        <pt x="467" y="55" on="0"/>
        <pt x="496" y="65" on="1"/>
        <pt x="510" y="12" on="1"/>
        <pt x="475" y="1" on="0"/>
        <pt x="403" y="-12" on="0"/>
        <pt x="374" y="-12" on="1"/>
        <pt x="299" y="-12" on="0"/>
        <pt x="179" y="36" on="0"/>
        <pt x="95" y="118" on="0"/>
        <pt x="50" y="228" on="0"/>
        <pt x="50" y="290" on="1"/>
        <pt x="50" y="352" on="0"/>
        <pt x="97" y="461" on="0"/>
        <pt x="178" y="543" on="0"/>
        <pt x="286" y="591" on="0"/>
        <pt x="346" y="591" on="1"/>
        <pt x="419" y="591" on="0"/>
        <pt x="530" y="540" on="0"/>
        <pt x="603" y="460" on="0"/>
        <pt x="640" y="362" on="0"/>
      </contour>
      <contour>
        <pt x="392" y="251" on="1"/>
        <pt x="381" y="259" on="0"/>
        <pt x="360" y="267" on="0"/>
        <pt x="345" y="267" on="1"/>
        <pt x="327" y="267" on="0"/>
        <pt x="302" y="249" on="0"/>
        <pt x="302" y="233" on="1"/>
        <pt x="302" y="197" on="0"/>
        <pt x="345" y="197" on="1"/>
        <pt x="374" y="197" on="0"/>
        <pt x="392" y="220" on="1"/>
      </contour>
    </TTGlyph>
    <TTGlyph name="at.cap" xMin="60" yMin="-12" xMax="802" yMax="746">
      <contour>
        <pt x="802" y="398" on="1"/>
        <pt x="802" y="340" on="0"/>
        <pt x="760" y="241" on="0"/>
        <pt x="718" y="210" on="1"/>
        <pt x="700" y="196" on="0"/>
        <pt x="655" y="184" on="0"/>
        <pt x="633" y="184" on="1"/>
        <pt x="602" y="184" on="0"/>
        <pt x="544" y="213" on="0"/>
        <pt x="531" y="249" on="1"/>
        <pt x="506" y="219" on="0"/>
        <pt x="443" y="189" on="0"/>
        <pt x="409" y="189" on="1"/>
        <pt x="358" y="189" on="0"/>
        <pt x="291" y="244" on="0"/>
        <pt x="291" y="292" on="1"/>
        <pt x="291" y="337" on="0"/>
        <pt x="353" y="394" on="0"/>
        <pt x="410" y="394" on="1"/>
        <pt x="439" y="394" on="0"/>
        <pt x="479" y="383" on="0"/>
        <pt x="498" y="375" on="1"/>
        <pt x="498" y="385" on="1"/>
        <pt x="498" y="420" on="0"/>
        <pt x="464" y="457" on="0"/>
        <pt x="416" y="457" on="1"/>
        <pt x="379" y="457" on="0"/>
        <pt x="337" y="443" on="1"/>
        <pt x="327" y="514" on="1"/>
        <pt x="350" y="520" on="0"/>
        <pt x="408" y="530" on="0"/>
        <pt x="432" y="530" on="1"/>
        <pt x="513" y="530" on="0"/>
        <pt x="579" y="455" on="0"/>
        <pt x="579" y="383" on="1"/>
        <pt x="579" y="303" on="1"/>
        <pt x="579" y="271" on="0"/>
        <pt x="615" y="244" on="0"/>
        <pt x="637" y="244" on="1"/>
        <pt x="649" y="244" on="0"/>
        <pt x="674" y="250" on="0"/>
        <pt x="682" y="258" on="1"/>
        <pt x="705" y="275" on="0"/>
        <pt x="733" y="346" on="0"/>
        <pt x="733" y="389" on="1"/>
        <pt x="733" y="437" on="0"/>
        <pt x="701" y="541" on="0"/>
        <pt x="630" y="627" on="0"/>
        <pt x="516" y="682" on="0"/>
        <pt x="433" y="682" on="1"/>
        <pt x="371" y="682" on="0"/>
        <pt x="261" y="632" on="0"/>
        <pt x="179" y="546" on="0"/>
        <pt x="131" y="431" on="0"/>
        <pt x="131" y="365" on="1"/>
        <pt x="131" y="299" on="0"/>
        <pt x="175" y="185" on="0"/>
        <pt x="262" y="100" on="0"/>
        <pt x="388" y="51" on="0"/>
        <pt x="471" y="51" on="1"/>
        <pt x="506" y="51" on="0"/>
        <pt x="585" y="67" on="0"/>
        <pt x="620" y="80" on="1"/>
        <pt x="638" y="18" on="1"/>
        <pt x="593" y="4" on="0"/>
        <pt x="503" y="-12" on="0"/>
        <pt x="468" y="-12" on="1"/>
        <pt x="374" y="-12" on="0"/>
        <pt x="223" y="48" on="0"/>
        <pt x="117" y="150" on="0"/>
        <pt x="60" y="287" on="0"/>
        <pt x="60" y="365" on="1"/>
        <pt x="60" y="443" on="0"/>
        <pt x="119" y="581" on="0"/>
        <pt x="221" y="685" on="0"/>
        <pt x="357" y="746" on="0"/>
        <pt x="433" y="746" on="1"/>
        <pt x="525" y="746" on="0"/>
        <pt x="663" y="683" on="0"/>
        <pt x="756" y="583" on="0"/>
        <pt x="802" y="459" on="0"/>
      </contour>
      <contour>
        <pt x="498" y="316" on="1"/>
        <pt x="484" y="327" on="0"/>
        <pt x="454" y="337" on="0"/>
        <pt x="435" y="337" on="1"/>
        <pt x="413" y="337" on="0"/>
        <pt x="380" y="314" on="0"/>
        <pt x="380" y="294" on="1"/>
        <pt x="380" y="274" on="0"/>
        <pt x="409" y="251" on="0"/>
        <pt x="434" y="251" on="1"/>
        <pt x="454" y="251" on="0"/>
        <pt x="487" y="270" on="0"/>
        <pt x="498" y="284" on="1"/>
      </contour>
    </TTGlyph>
    <TTGlyph name="atilde" xMin="30" yMin="-8" xMax="412" yMax="619">
      <component glyphName="a" x="0" y="0" flags="0x204"/>
      <component glyphName="tilde" x="3" y="0" flags="0x4"/>
    </TTGlyph>
    <TTGlyph name="b" xMin="57" yMin="-8" xMax="495" yMax="733">
      <contour>
        <pt x="495" y="219" on="1"/>
        <pt x="495" y="173" on="0"/>
        <pt x="462" y="90" on="0"/>
        <pt x="407" y="28" on="0"/>
        <pt x="333" y="-8" on="0"/>
        <pt x="292" y="-8" on="1"/>
        <pt x="257" y="-8" on="0"/>
        <pt x="191" y="15" on="0"/>
        <pt x="166" y="38" on="1"/>
        <pt x="166" y="0" on="1"/>
        <pt x="57" y="0" on="1"/>
        <pt x="57" y="733" on="1"/>
        <pt x="170" y="733" on="1"/>
        <pt x="170" y="389" on="1"/>
        <pt x="194" y="411" on="0"/>
        <pt x="259" y="435" on="0"/>
        <pt x="299" y="435" on="1"/>
        <pt x="341" y="435" on="0"/>
        <pt x="413" y="403" on="0"/>
        <pt x="465" y="346" on="0"/>
        <pt x="495" y="266" on="0"/>
      </contour>
      <contour>
        <pt x="382" y="217" on="1"/>
        <pt x="382" y="273" on="0"/>
        <pt x="327" y="345" on="0"/>
        <pt x="272" y="345" on="1"/>
        <pt x="240" y="345" on="0"/>
        <pt x="189" y="322" on="0"/>
        <pt x="170" y="302" on="1"/>
        <pt x="170" y="131" on="1"/>
        <pt x="187" y="109" on="0"/>
        <pt x="237" y="83" on="0"/>
        <pt x="266" y="83" on="1"/>
        <pt x="320" y="83" on="0"/>
        <pt x="382" y="157" on="0"/>
      </contour>
    </TTGlyph>
    <TTGlyph name="backslash" xMin="0" yMin="-216" xMax="328" yMax="733">
      <contour>
        <pt x="238" y="-216" on="1"/>
        <pt x="0" y="733" on="1"/>
        <pt x="89" y="733" on="1"/>
        <pt x="328" y="-216" on="1"/>
      </contour>
    </TTGlyph>
    <TTGlyph name="backslash.cap" xMin="14" yMin="-110" xMax="342" yMax="839">
      <component glyphName="backslash" x="14" y="106" flags="0x204"/>
    </TTGlyph>
    <TTGlyph name="bar" xMin="90" yMin="-216" xMax="177" yMax="733">
      <contour>
        <pt x="90" y="-216" on="1"/>
        <pt x="90" y="733" on="1"/>
        <pt x="177" y="733" on="1"/>
        <pt x="177" y="-216" on="1"/>
      </contour>
    </TTGlyph>
    <TTGlyph name="bar.cap" xMin="90" yMin="-110" xMax="177" yMax="839">
      <component glyphName="bar" x="0" y="106" flags="0x204"/>
    </TTGlyph>
    <TTGlyph name="braceleft" xMin="25" yMin="-223" xMax="299" yMax="740">
      <contour>
        <pt x="299" y="-223" on="1"/>
        <pt x="206" y="-223" on="0"/>
        <pt x="110" y="-129" on="0"/>
        <pt x="110" y="-41" on="1"/>
        <pt x="110" y="153" on="1"/>
        <pt x="110" y="185" on="0"/>
        <pt x="85" y="218" on="0"/>
        <pt x="48" y="218" on="1"/>
        <pt x="25" y="218" on="1"/>
        <pt x="25" y="299" on="1"/>
        <pt x="48" y="299" on="1"/>
        <pt x="85" y="299" on="0"/>
        <pt x="110" y="332" on="0"/>
        <pt x="110" y="364" on="1"/>
        <pt x="110" y="557" on="1"/>
        <pt x="110" y="645" on="0"/>
        <pt x="206" y="740" on="0"/>
        <pt x="299" y="740" on="1"/>
        <pt x="299" y="647" on="1"/>
        <pt x="252" y="647" on="0"/>
        <pt x="207" y="604" on="0"/>
        <pt x="207" y="547" on="1"/>
        <pt x="207" y="371" on="1"/>
        <pt x="207" y="347" on="0"/>
        <pt x="200" y="313" on="0"/>
        <pt x="184" y="288" on="0"/>
        <pt x="155" y="268" on="0"/>
        <pt x="134" y="258" on="1"/>
        <pt x="155" y="248" on="0"/>
        <pt x="184" y="228" on="0"/>
        <pt x="200" y="203" on="0"/>
        <pt x="207" y="169" on="0"/>
        <pt x="207" y="145" on="1"/>
        <pt x="207" y="-30" on="1"/>
        <pt x="207" y="-87" on="0"/>
        <pt x="252" y="-131" on="0"/>
        <pt x="299" y="-131" on="1"/>
      </contour>
    </TTGlyph>
    <TTGlyph name="braceleft.cap" xMin="25" yMin="-117" xMax="299" yMax="846">
      <component glyphName="braceleft" x="0" y="106" flags="0x204"/>
    </TTGlyph>
    <TTGlyph name="braceright" xMin="12" yMin="-223" xMax="286" yMax="740">
      <contour>
        <pt x="263" y="218" on="1"/>
        <pt x="226" y="218" on="0"/>
        <pt x="201" y="185" on="0"/>
        <pt x="201" y="153" on="1"/>
        <pt x="201" y="-41" on="1"/>
        <pt x="201" y="-129" on="0"/>
        <pt x="106" y="-223" on="0"/>
        <pt x="12" y="-223" on="1"/>
        <pt x="12" y="-131" on="1"/>
        <pt x="59" y="-131" on="0"/>
        <pt x="105" y="-87" on="0"/>
        <pt x="105" y="-30" on="1"/>
        <pt x="105" y="145" on="1"/>
        <pt x="105" y="169" on="0"/>
        <pt x="111" y="203" on="0"/>
        <pt x="128" y="228" on="0"/>
        <pt x="156" y="248" on="0"/>
        <pt x="177" y="258" on="1"/>
        <pt x="156" y="268" on="0"/>
        <pt x="128" y="288" on="0"/>
        <pt x="111" y="313" on="0"/>
        <pt x="105" y="347" on="0"/>
        <pt x="105" y="371" on="1"/>
        <pt x="105" y="547" on="1"/>
        <pt x="105" y="604" on="0"/>
        <pt x="59" y="647" on="0"/>
        <pt x="12" y="647" on="1"/>
        <pt x="12" y="740" on="1"/>
        <pt x="106" y="740" on="0"/>
        <pt x="201" y="645" on="0"/>
        <pt x="201" y="557" on="1"/>
        <pt x="201" y="364" on="1"/>
        <pt x="201" y="332" on="0"/>
        <pt x="226" y="299" on="0"/>
        <pt x="263" y="299" on="1"/>
        <pt x="286" y="299" on="1"/>
        <pt x="286" y="218" on="1"/>
      </contour>
    </TTGlyph>
    <TTGlyph name="braceright.cap" xMin="12" yMin="-117" xMax="286" yMax="846">
      <component glyphName="braceright" x="0" y="106" flags="0x204"/>
    </TTGlyph>
    <TTGlyph name="bracketleft" xMin="79" yMin="-216" xMax="300" yMax="733">
      <contour>
        <pt x="79" y="-216" on="1"/>
        <pt x="79" y="733" on="1"/>
        <pt x="300" y="733" on="1"/>
        <pt x="300" y="646" on="1"/>
        <pt x="174" y="646" on="1"/>
        <pt x="174" y="-130" on="1"/>
        <pt x="300" y="-130" on="1"/>
        <pt x="300" y="-216" on="1"/>
      </contour>
    </TTGlyph>
    <TTGlyph name="bracketleft.cap" xMin="79" yMin="-110" xMax="300" yMax="839">
      <component glyphName="bracketleft" x="0" y="106" flags="0x204"/>
    </TTGlyph>
    <TTGlyph name="bracketright" xMin="23" yMin="-216" xMax="244" yMax="733">
      <contour>
        <pt x="23" y="-216" on="1"/>
        <pt x="23" y="-130" on="1"/>
        <pt x="148" y="-130" on="1"/>
        <pt x="148" y="646" on="1"/>
        <pt x="23" y="646" on="1"/>
        <pt x="23" y="733" on="1"/>
        <pt x="244" y="733" on="1"/>
        <pt x="244" y="-216" on="1"/>
      </contour>
    </TTGlyph>
    <TTGlyph name="bracketright.cap" xMin="23" yMin="-110" xMax="244" yMax="839">
      <component glyphName="bracketright" x="0" y="106" flags="0x204"/>
    </TTGlyph>
    <TTGlyph name="breve" xMin="93" yMin="488" xMax="378" yMax="633">
      <contour>
        <pt x="378" y="626" on="1"/>
        <pt x="378" y="598" on="0"/>
        <pt x="359" y="548" on="0"/>
        <pt x="322" y="510" on="0"/>
        <pt x="269" y="488" on="0"/>
        <pt x="235" y="488" on="1"/>
        <pt x="202" y="488" on="0"/>
        <pt x="149" y="510" on="0"/>
        <pt x="112" y="548" on="0"/>
        <pt x="93" y="598" on="0"/>
        <pt x="93" y="626" on="1"/>
        <pt x="181" y="633" on="1"/>
        <pt x="181" y="600" on="0"/>
        <pt x="209" y="564" on="0"/>
        <pt x="235" y="564" on="1"/>
        <pt x="261" y="564" on="0"/>
        <pt x="290" y="600" on="0"/>
        <pt x="290" y="633" on="1"/>
      </contour>
    </TTGlyph>
    <TTGlyph name="bullet" xMin="54" yMin="202" xMax="377" yMax="531">
      <contour>
        <pt x="377" y="366" on="1"/>
        <pt x="377" y="332" on="0"/>
        <pt x="352" y="272" on="0"/>
        <pt x="308" y="228" on="0"/>
        <pt x="249" y="202" on="0"/>
        <pt x="216" y="202" on="1"/>
        <pt x="182" y="202" on="0"/>
        <pt x="123" y="228" on="0"/>
        <pt x="79" y="272" on="0"/>
        <pt x="54" y="332" on="0"/>
        <pt x="54" y="366" on="1"/>
        <pt x="54" y="400" on="0"/>
        <pt x="79" y="461" on="0"/>
        <pt x="123" y="505" on="0"/>
        <pt x="182" y="531" on="0"/>
        <pt x="216" y="531" on="1"/>
        <pt x="249" y="531" on="0"/>
        <pt x="308" y="505" on="0"/>
        <pt x="352" y="461" on="0"/>
        <pt x="377" y="400" on="0"/>
      </contour>
    </TTGlyph>
    <TTGlyph name="c" xMin="36" yMin="-8" xMax="420" yMax="435">
      <contour>
        <pt x="420" y="35" on="1"/>
        <pt x="391" y="17" on="0"/>
        <pt x="316" y="-8" on="0"/>
        <pt x="277" y="-8" on="1"/>
        <pt x="220" y="-8" on="0"/>
        <pt x="131" y="27" on="0"/>
        <pt x="69" y="87" on="0"/>
        <pt x="36" y="167" on="0"/>
        <pt x="36" y="212" on="1"/>
        <pt x="36" y="257" on="0"/>
        <pt x="69" y="338" on="0"/>
        <pt x="131" y="399" on="0"/>
        <pt x="220" y="435" on="0"/>
        <pt x="277" y="435" on="1"/>
        <pt x="316" y="435" on="0"/>
        <pt x="391" y="410" on="0"/>
        <pt x="420" y="392" on="1"/>
        <pt x="383" y="313" on="1"/>
        <pt x="358" y="327" on="0"/>
        <pt x="305" y="343" on="0"/>
        <pt x="275" y="343" on="1"/>
        <pt x="248" y="343" on="0"/>
        <pt x="202" y="327" on="0"/>
        <pt x="168" y="294" on="0"/>
        <pt x="148" y="245" on="0"/>
        <pt x="148" y="213" on="1"/>
        <pt x="148" y="183" on="0"/>
        <pt x="169" y="135" on="0"/>
        <pt x="206" y="102" on="0"/>
        <pt x="254" y="85" on="0"/>
        <pt x="281" y="85" on="1"/>
        <pt x="310" y="85" on="0"/>
        <pt x="365" y="101" on="0"/>
        <pt x="388" y="115" on="1"/>
      </contour>
    </TTGlyph>
    <TTGlyph name="cacute" xMin="36" yMin="-8" xMax="423" yMax="668">
      <component glyphName="acute" x="73" y="0" flags="0x4"/>
      <component glyphName="c" x="0" y="0" flags="0x4"/>
    </TTGlyph>
    <TTGlyph name="caron" xMin="64" yMin="486" xMax="401" yMax="664">
      <contour>
        <pt x="252" y="486" on="1"/>
        <pt x="208" y="486" on="1"/>
        <pt x="64" y="664" on="1"/>
        <pt x="170" y="664" on="1"/>
        <pt x="235" y="579" on="1"/>
        <pt x="299" y="664" on="1"/>
        <pt x="401" y="664" on="1"/>
      </contour>
    </TTGlyph>
    <TTGlyph name="caron.alt" xMin="38" yMin="529" xMax="186" yMax="739">
      <contour>
        <pt x="186" y="722" on="1"/>
        <pt x="186" y="655" on="0"/>
        <pt x="133" y="561" on="0"/>
        <pt x="89" y="529" on="1"/>
        <pt x="38" y="562" on="1"/>
        <pt x="65" y="594" on="0"/>
        <pt x="94" y="679" on="0"/>
        <pt x="96" y="739" on="1"/>
      </contour>
    </TTGlyph>
    <TTGlyph name="ccaron" xMin="36" yMin="-8" xMax="421" yMax="664">
      <component glyphName="caron" x="20" y="0" flags="0x4"/>
      <component glyphName="c" x="0" y="0" flags="0x4"/>
    </TTGlyph>
    <TTGlyph name="ccedilla" xMin="36" yMin="-249" xMax="420" yMax="435">
      <contour>
        <pt x="365" y="-147" on="1"/>
        <pt x="365" y="-167" on="0"/>
        <pt x="351" y="-204" on="0"/>
        <pt x="322" y="-232" on="0"/>
        <pt x="279" y="-249" on="0"/>
        <pt x="251" y="-249" on="1"/>
        <pt x="195" y="-249" on="0"/>
        <pt x="131" y="-211" on="1"/>
        <pt x="159" y="-150" on="1"/>
        <pt x="211" y="-183" on="0"/>
        <pt x="254" y="-183" on="1"/>
        <pt x="290" y="-183" on="0"/>
        <pt x="290" y="-149" on="1"/>
        <pt x="290" y="-133" on="0"/>
        <pt x="249" y="-106" on="0"/>
        <pt x="194" y="-104" on="1"/>
        <pt x="190" y="-95" on="1"/>
        <pt x="214" y="-1" on="1"/>
        <pt x="172" y="8" on="0"/>
        <pt x="105" y="47" on="0"/>
        <pt x="60" y="104" on="0"/>
        <pt x="36" y="173" on="0"/>
        <pt x="36" y="212" on="1"/>
        <pt x="36" y="257" on="0"/>
        <pt x="69" y="338" on="0"/>
        <pt x="131" y="399" on="0"/>
        <pt x="220" y="435" on="0"/>
        <pt x="277" y="435" on="1"/>
        <pt x="316" y="435" on="0"/>
        <pt x="391" y="410" on="0"/>
        <pt x="420" y="392" on="1"/>
        <pt x="383" y="313" on="1"/>
        <pt x="358" y="327" on="0"/>
        <pt x="305" y="343" on="0"/>
        <pt x="275" y="343" on="1"/>
        <pt x="248" y="343" on="0"/>
        <pt x="202" y="327" on="0"/>
        <pt x="168" y="294" on="0"/>
        <pt x="148" y="245" on="0"/>
        <pt x="148" y="213" on="1"/>
        <pt x="148" y="183" on="0"/>
        <pt x="169" y="135" on="0"/>
        <pt x="206" y="102" on="0"/>
        <pt x="254" y="85" on="0"/>
        <pt x="281" y="85" on="1"/>
        <pt x="310" y="85" on="0"/>
        <pt x="365" y="101" on="0"/>
        <pt x="388" y="115" on="1"/>
        <pt x="420" y="35" on="1"/>
        <pt x="391" y="17" on="0"/>
        <pt x="316" y="-8" on="0"/>
        <pt x="277" y="-8" on="1"/>
        <pt x="267" y="-8" on="1"/>
        <pt x="258" y="-46" on="1"/>
        <pt x="318" y="-60" on="0"/>
        <pt x="365" y="-114" on="0"/>
      </contour>
    </TTGlyph>
    <TTGlyph name="cdotaccent" xMin="36" yMin="-8" xMax="420" yMax="620">
      <component glyphName="c" x="0" y="0" flags="0x204"/>
      <component glyphName="dotaccent" x="32" y="0" flags="0x4"/>
    </TTGlyph>
    <TTGlyph name="cedilla" xMin="123" yMin="-254" xMax="357" yMax="17">
      <contour>
        <pt x="357" y="-152" on="1"/>
        <pt x="357" y="-172" on="0"/>
        <pt x="343" y="-209" on="0"/>
        <pt x="314" y="-237" on="0"/>
        <pt x="271" y="-254" on="0"/>
        <pt x="243" y="-254" on="1"/>
        <pt x="187" y="-254" on="0"/>
        <pt x="123" y="-216" on="1"/>
        <pt x="151" y="-155" on="1"/>
        <pt x="203" y="-188" on="0"/>
        <pt x="246" y="-188" on="1"/>
        <pt x="282" y="-188" on="0"/>
        <pt x="282" y="-154" on="1"/>
        <pt x="282" y="-138" on="0"/>
        <pt x="241" y="-111" on="0"/>
        <pt x="186" y="-109" on="1"/>
        <pt x="182" y="-100" on="1"/>
        <pt x="213" y="17" on="1"/>
        <pt x="263" y="4" on="1"/>
        <pt x="250" y="-51" on="1"/>
        <pt x="310" y="-65" on="0"/>
        <pt x="357" y="-119" on="0"/>
      </contour>
    </TTGlyph>
    <TTGlyph name="cent" xMin="36" yMin="-83" xMax="420" yMax="509">
      <contour>
        <pt x="211" y="-1" on="1"/>
        <pt x="172" y="7" on="0"/>
        <pt x="107" y="45" on="0"/>
        <pt x="61" y="101" on="0"/>
        <pt x="36" y="171" on="0"/>
        <pt x="36" y="212" on="1"/>
        <pt x="36" y="258" on="0"/>
        <pt x="68" y="336" on="0"/>
        <pt x="125" y="395" on="0"/>
        <pt x="203" y="430" on="0"/>
        <pt x="248" y="434" on="1"/>
        <pt x="254" y="509" on="1"/>
        <pt x="322" y="506" on="1"/>
        <pt x="315" y="432" on="1"/>
        <pt x="346" y="427" on="0"/>
        <pt x="398" y="406" on="0"/>
        <pt x="420" y="392" on="1"/>
        <pt x="383" y="311" on="1"/>
        <pt x="366" y="321" on="0"/>
        <pt x="328" y="336" on="0"/>
        <pt x="308" y="340" on="1"/>
        <pt x="286" y="84" on="1"/>
        <pt x="312" y="85" on="0"/>
        <pt x="363" y="102" on="0"/>
        <pt x="387" y="116" on="1"/>
        <pt x="420" y="35" on="1"/>
        <pt x="355" y="-5" on="0"/>
        <pt x="279" y="-8" on="1"/>
        <pt x="273" y="-83" on="1"/>
        <pt x="205" y="-80" on="1"/>
      </contour>
      <contour>
        <pt x="145" y="213" on="1"/>
        <pt x="145" y="171" on="0"/>
        <pt x="185" y="110" on="0"/>
        <pt x="219" y="95" on="1"/>
        <pt x="240" y="341" on="1"/>
        <pt x="198" y="332" on="0"/>
        <pt x="145" y="269" on="0"/>
      </contour>
    </TTGlyph>
    <TTGlyph name="cent.lin" xMin="36" yMin="75" xMax="420" yMax="667">
      <component glyphName="cent" x="0" y="158" flags="0x4"/>
    </TTGlyph>
    <TTGlyph name="circumflex" xMin="70" yMin="493" xMax="407" yMax="670">
      <contour>
        <pt x="300" y="493" on="1"/>
        <pt x="235" y="577" on="1"/>
        <pt x="171" y="493" on="1"/>
        <pt x="70" y="493" on="1"/>
        <pt x="218" y="670" on="1"/>
        <pt x="263" y="670" on="1"/>
        <pt x="407" y="493" on="1"/>
      </contour>
    </TTGlyph>
    <TTGlyph name="colon" xMin="59" yMin="-8" xMax="189" yMax="386">
      <contour>
        <pt x="59" y="58" on="1"/>
        <pt x="59" y="85" on="0"/>
        <pt x="97" y="123" on="0"/>
        <pt x="124" y="123" on="1"/>
        <pt x="151" y="123" on="0"/>
        <pt x="189" y="85" on="0"/>
        <pt x="189" y="58" on="1"/>
        <pt x="189" y="30" on="0"/>
        <pt x="151" y="-8" on="0"/>
        <pt x="124" y="-8" on="1"/>
        <pt x="97" y="-8" on="0"/>
        <pt x="59" y="30" on="0"/>
      </contour>
      <contour>
        <pt x="59" y="321" on="1"/>
        <pt x="59" y="347" on="0"/>
        <pt x="97" y="386" on="0"/>
        <pt x="124" y="386" on="1"/>
        <pt x="151" y="386" on="0"/>
        <pt x="189" y="347" on="0"/>
        <pt x="189" y="321" on="1"/>
        <pt x="189" y="293" on="0"/>
        <pt x="151" y="255" on="0"/>
        <pt x="124" y="255" on="1"/>
        <pt x="97" y="255" on="0"/>
        <pt x="59" y="293" on="0"/>
      </contour>
    </TTGlyph>
    <TTGlyph name="comma" xMin="57" yMin="-130" xMax="190" yMax="121">
      <contour>
        <pt x="190" y="43" on="1"/>
        <pt x="190" y="20" on="0"/>
        <pt x="173" y="-29" on="0"/>
        <pt x="142" y="-75" on="0"/>
        <pt x="98" y="-116" on="0"/>
        <pt x="70" y="-130" on="1"/>
        <pt x="57" y="-111" on="1"/>
        <pt x="87" y="-85" on="0"/>
        <pt x="118" y="-34" on="0"/>
        <pt x="126" y="-7" on="1"/>
        <pt x="96" y="-5" on="0"/>
        <pt x="60" y="33" on="0"/>
        <pt x="60" y="59" on="1"/>
        <pt x="60" y="85" on="0"/>
        <pt x="96" y="121" on="0"/>
        <pt x="122" y="121" on="1"/>
        <pt x="155" y="121" on="0"/>
        <pt x="190" y="75" on="0"/>
      </contour>
    </TTGlyph>
    <TTGlyph name="commaaccent" xMin="28" yMin="-323" xMax="161" yMax="-73">
      <contour>
        <pt x="161" y="-151" on="1"/>
        <pt x="161" y="-174" on="0"/>
        <pt x="144" y="-222" on="0"/>
        <pt x="112" y="-269" on="0"/>
        <pt x="68" y="-309" on="0"/>
        <pt x="40" y="-323" on="1"/>
        <pt x="28" y="-304" on="1"/>
        <pt x="58" y="-278" on="0"/>
        <pt x="89" y="-228" on="0"/>
        <pt x="97" y="-200" on="1"/>
        <pt x="66" y="-198" on="0"/>
        <pt x="31" y="-161" on="0"/>
        <pt x="31" y="-135" on="1"/>
        <pt x="31" y="-109" on="0"/>
        <pt x="66" y="-73" on="0"/>
        <pt x="92" y="-73" on="1"/>
        <pt x="126" y="-73" on="0"/>
        <pt x="161" y="-119" on="0"/>
      </contour>
    </TTGlyph>
    <TTGlyph name="copyright" xMin="50" yMin="-12" xMax="792" yMax="745">
      <contour>
        <pt x="792" y="366" on="1"/>
        <pt x="792" y="288" on="0"/>
        <pt x="734" y="150" on="0"/>
        <pt x="633" y="47" on="0"/>
        <pt x="498" y="-12" on="0"/>
        <pt x="421" y="-12" on="1"/>
        <pt x="344" y="-12" on="0"/>
        <pt x="209" y="47" on="0"/>
        <pt x="108" y="150" on="0"/>
        <pt x="50" y="288" on="0"/>
        <pt x="50" y="366" on="1"/>
        <pt x="50" y="444" on="0"/>
        <pt x="108" y="582" on="0"/>
        <pt x="209" y="685" on="0"/>
        <pt x="344" y="745" on="0"/>
        <pt x="421" y="745" on="1"/>
        <pt x="498" y="745" on="0"/>
        <pt x="633" y="685" on="0"/>
        <pt x="734" y="582" on="0"/>
        <pt x="792" y="444" on="0"/>
      </contour>
      <contour>
        <pt x="725" y="366" on="1"/>
        <pt x="725" y="432" on="0"/>
        <pt x="677" y="549" on="0"/>
        <pt x="595" y="636" on="0"/>
        <pt x="484" y="686" on="0"/>
        <pt x="421" y="686" on="1"/>
        <pt x="358" y="686" on="0"/>
        <pt x="247" y="636" on="0"/>
        <pt x="165" y="549" on="0"/>
        <pt x="117" y="432" on="0"/>
        <pt x="117" y="366" on="1"/>
        <pt x="117" y="300" on="0"/>
        <pt x="165" y="184" on="0"/>
        <pt x="247" y="97" on="0"/>
        <pt x="358" y="47" on="0"/>
        <pt x="421" y="47" on="1"/>
        <pt x="484" y="47" on="0"/>
        <pt x="595" y="97" on="0"/>
        <pt x="677" y="184" on="0"/>
        <pt x="725" y="300" on="0"/>
      </contour>
      <contour>
        <pt x="560" y="212" on="1"/>
        <pt x="536" y="197" on="0"/>
        <pt x="472" y="177" on="0"/>
        <pt x="439" y="177" on="1"/>
        <pt x="394" y="177" on="0"/>
        <pt x="320" y="206" on="0"/>
        <pt x="267" y="257" on="0"/>
        <pt x="237" y="327" on="0"/>
        <pt x="237" y="369" on="1"/>
        <pt x="237" y="410" on="0"/>
        <pt x="267" y="481" on="0"/>
        <pt x="320" y="532" on="0"/>
        <pt x="394" y="561" on="0"/>
        <pt x="439" y="561" on="1"/>
        <pt x="473" y="561" on="0"/>
        <pt x="533" y="542" on="0"/>
        <pt x="557" y="528" on="1"/>
        <pt x="533" y="465" on="1"/>
        <pt x="512" y="477" on="0"/>
        <pt x="463" y="492" on="0"/>
        <pt x="439" y="492" on="1"/>
        <pt x="382" y="492" on="0"/>
        <pt x="318" y="425" on="0"/>
        <pt x="318" y="369" on="1"/>
        <pt x="318" y="314" on="0"/>
        <pt x="383" y="247" on="0"/>
        <pt x="440" y="247" on="1"/>
        <pt x="464" y="247" on="0"/>
        <pt x="515" y="262" on="0"/>
        <pt x="537" y="275" on="1"/>
      </contour>
    </TTGlyph>
    <TTGlyph name="d" xMin="39" yMin="-8" xMax="477" yMax="733">
      <contour>
        <pt x="368" y="0" on="1"/>
        <pt x="368" y="40" on="1"/>
        <pt x="342" y="15" on="0"/>
        <pt x="281" y="-8" on="0"/>
        <pt x="240" y="-8" on="1"/>
        <pt x="195" y="-8" on="0"/>
        <pt x="121" y="25" on="0"/>
        <pt x="68" y="84" on="0"/>
        <pt x="39" y="164" on="0"/>
        <pt x="39" y="212" on="1"/>
        <pt x="39" y="258" on="0"/>
        <pt x="72" y="339" on="0"/>
        <pt x="129" y="400" on="0"/>
        <pt x="204" y="435" on="0"/>
        <pt x="246" y="435" on="1"/>
        <pt x="287" y="435" on="0"/>
        <pt x="341" y="415" on="0"/>
        <pt x="364" y="397" on="1"/>
        <pt x="364" y="733" on="1"/>
        <pt x="477" y="733" on="1"/>
        <pt x="477" y="0" on="1"/>
      </contour>
      <contour>
        <pt x="364" y="295" on="1"/>
        <pt x="348" y="315" on="0"/>
        <pt x="296" y="345" on="0"/>
        <pt x="264" y="345" on="1"/>
        <pt x="216" y="345" on="0"/>
        <pt x="152" y="277" on="0"/>
        <pt x="152" y="214" on="1"/>
        <pt x="152" y="155" on="0"/>
        <pt x="211" y="83" on="0"/>
        <pt x="266" y="83" on="1"/>
        <pt x="325" y="83" on="0"/>
        <pt x="364" y="131" on="1"/>
      </contour>
    </TTGlyph>
    <TTGlyph name="dagger" xMin="33" yMin="147" xMax="428" yMax="733">
      <contour>
        <pt x="284" y="474" on="1"/>
        <pt x="284" y="147" on="1"/>
        <pt x="181" y="147" on="1"/>
        <pt x="181" y="474" on="1"/>
        <pt x="33" y="474" on="1"/>
        <pt x="33" y="569" on="1"/>
        <pt x="181" y="569" on="1"/>
        <pt x="181" y="733" on="1"/>
        <pt x="284" y="733" on="1"/>
        <pt x="284" y="569" on="1"/>
        <pt x="428" y="569" on="1"/>
        <pt x="428" y="474" on="1"/>
      </contour>
    </TTGlyph>
    <TTGlyph name="daggerdbl" xMin="33" yMin="147" xMax="433" yMax="733">
      <contour>
        <pt x="284" y="283" on="1"/>
        <pt x="284" y="147" on="1"/>
        <pt x="181" y="147" on="1"/>
        <pt x="181" y="283" on="1"/>
        <pt x="38" y="283" on="1"/>
        <pt x="38" y="379" on="1"/>
        <pt x="181" y="379" on="1"/>
        <pt x="181" y="502" on="1"/>
        <pt x="33" y="502" on="1"/>
        <pt x="33" y="597" on="1"/>
        <pt x="181" y="597" on="1"/>
        <pt x="181" y="733" on="1"/>
        <pt x="284" y="733" on="1"/>
        <pt x="284" y="597" on="1"/>
        <pt x="428" y="597" on="1"/>
        <pt x="428" y="502" on="1"/>
        <pt x="284" y="502" on="1"/>
        <pt x="284" y="379" on="1"/>
        <pt x="433" y="379" on="1"/>
        <pt x="433" y="283" on="1"/>
      </contour>
    </TTGlyph>
    <TTGlyph name="dcaron" xMin="39" yMin="-8" xMax="657" yMax="734">
      <component glyphName="caron.alt" x="471" y="-5" flags="0x4"/>
      <component glyphName="d" x="0" y="0" flags="0x4"/>
    </TTGlyph>
    <TTGlyph name="dcroat" xMin="39" yMin="-8" xMax="531" yMax="733">
      <contour>
        <pt x="368" y="0" on="1"/>
        <pt x="368" y="40" on="1"/>
        <pt x="342" y="15" on="0"/>
        <pt x="281" y="-8" on="0"/>
        <pt x="240" y="-8" on="1"/>
        <pt x="195" y="-8" on="0"/>
        <pt x="121" y="25" on="0"/>
        <pt x="68" y="84" on="0"/>
        <pt x="39" y="164" on="0"/>
        <pt x="39" y="212" on="1"/>
        <pt x="39" y="258" on="0"/>
        <pt x="72" y="339" on="0"/>
        <pt x="129" y="400" on="0"/>
        <pt x="204" y="435" on="0"/>
        <pt x="246" y="435" on="1"/>
        <pt x="287" y="435" on="0"/>
        <pt x="341" y="415" on="0"/>
        <pt x="364" y="397" on="1"/>
        <pt x="364" y="548" on="1"/>
        <pt x="222" y="548" on="1"/>
        <pt x="222" y="633" on="1"/>
        <pt x="364" y="633" on="1"/>
        <pt x="364" y="733" on="1"/>
        <pt x="477" y="733" on="1"/>
        <pt x="477" y="633" on="1"/>
        <pt x="531" y="633" on="1"/>
        <pt x="531" y="548" on="1"/>
        <pt x="477" y="548" on="1"/>
        <pt x="477" y="0" on="1"/>
      </contour>
      <contour>
        <pt x="364" y="295" on="1"/>
        <pt x="348" y="315" on="0"/>
        <pt x="296" y="345" on="0"/>
        <pt x="264" y="345" on="1"/>
        <pt x="216" y="345" on="0"/>
        <pt x="152" y="277" on="0"/>
        <pt x="152" y="214" on="1"/>
        <pt x="152" y="155" on="0"/>
        <pt x="211" y="83" on="0"/>
        <pt x="266" y="83" on="1"/>
        <pt x="325" y="83" on="0"/>
        <pt x="364" y="131" on="1"/>
      </contour>
    </TTGlyph>
    <TTGlyph name="degree" xMin="93" yMin="474" xMax="317" yMax="690">
      <contour>
        <pt x="317" y="581" on="1"/>
        <pt x="317" y="558" on="0"/>
        <pt x="301" y="519" on="0"/>
        <pt x="271" y="491" on="0"/>
        <pt x="230" y="474" on="0"/>
        <pt x="205" y="474" on="1"/>
        <pt x="180" y="474" on="0"/>
        <pt x="139" y="491" on="0"/>
        <pt x="109" y="519" on="0"/>
        <pt x="93" y="558" on="0"/>
        <pt x="93" y="581" on="1"/>
        <pt x="93" y="603" on="0"/>
        <pt x="109" y="643" on="0"/>
        <pt x="139" y="673" on="0"/>
        <pt x="180" y="690" on="0"/>
        <pt x="205" y="690" on="1"/>
        <pt x="230" y="690" on="0"/>
        <pt x="271" y="673" on="0"/>
        <pt x="301" y="643" on="0"/>
        <pt x="317" y="603" on="0"/>
      </contour>
      <contour>
        <pt x="252" y="582" on="1"/>
        <pt x="252" y="605" on="0"/>
        <pt x="226" y="635" on="0"/>
        <pt x="205" y="635" on="1"/>
        <pt x="185" y="635" on="0"/>
        <pt x="159" y="605" on="0"/>
        <pt x="159" y="582" on="1"/>
        <pt x="159" y="558" on="0"/>
        <pt x="185" y="529" on="0"/>
        <pt x="205" y="529" on="1"/>
        <pt x="226" y="529" on="0"/>
        <pt x="252" y="558" on="0"/>
      </contour>
    </TTGlyph>
    <TTGlyph name="degree.lin" xMin="56" yMin="473" xMax="335" yMax="745">
      <contour>
        <pt x="335" y="609" on="1"/>
        <pt x="335" y="582" on="0"/>
        <pt x="315" y="532" on="0"/>
        <pt x="279" y="495" on="0"/>
        <pt x="227" y="473" on="0"/>
        <pt x="196" y="473" on="1"/>
        <pt x="164" y="473" on="0"/>
        <pt x="113" y="495" on="0"/>
        <pt x="76" y="532" on="0"/>
        <pt x="56" y="582" on="0"/>
        <pt x="56" y="609" on="1"/>
        <pt x="56" y="637" on="0"/>
        <pt x="76" y="686" on="0"/>
        <pt x="113" y="723" on="0"/>
        <pt x="164" y="745" on="0"/>
        <pt x="196" y="745" on="1"/>
        <pt x="227" y="745" on="0"/>
        <pt x="279" y="723" on="0"/>
        <pt x="315" y="686" on="0"/>
        <pt x="335" y="637" on="0"/>
      </contour>
      <contour>
        <pt x="260" y="609" on="1"/>
        <pt x="260" y="642" on="0"/>
        <pt x="223" y="683" on="0"/>
        <pt x="196" y="683" on="1"/>
        <pt x="168" y="683" on="0"/>
        <pt x="131" y="643" on="0"/>
        <pt x="131" y="609" on="1"/>
        <pt x="131" y="576" on="0"/>
        <pt x="168" y="536" on="0"/>
        <pt x="196" y="536" on="1"/>
        <pt x="223" y="536" on="0"/>
        <pt x="260" y="576" on="0"/>
      </contour>
    </TTGlyph>
    <TTGlyph name="dieresis" xMin="81" yMin="494" xMax="389" yMax="620">
      <contour>
        <pt x="389" y="557" on="1"/>
        <pt x="389" y="531" on="0"/>
        <pt x="353" y="494" on="0"/>
        <pt x="327" y="494" on="1"/>
        <pt x="301" y="494" on="0"/>
        <pt x="264" y="531" on="0"/>
        <pt x="264" y="557" on="1"/>
        <pt x="264" y="583" on="0"/>
        <pt x="301" y="620" on="0"/>
        <pt x="327" y="620" on="1"/>
        <pt x="353" y="620" on="0"/>
        <pt x="389" y="583" on="0"/>
      </contour>
      <contour>
        <pt x="207" y="557" on="1"/>
        <pt x="207" y="531" on="0"/>
        <pt x="170" y="494" on="0"/>
        <pt x="144" y="494" on="1"/>
        <pt x="118" y="494" on="0"/>
        <pt x="81" y="531" on="0"/>
        <pt x="81" y="557" on="1"/>
        <pt x="81" y="583" on="0"/>
        <pt x="118" y="620" on="0"/>
        <pt x="144" y="620" on="1"/>
        <pt x="170" y="620" on="0"/>
        <pt x="207" y="583" on="0"/>
      </contour>
    </TTGlyph>
    <TTGlyph name="divide" xMin="60" yMin="89" xMax="399" yMax="487">
      <contour>
        <pt x="60" y="330" on="1"/>
        <pt x="399" y="330" on="1"/>
        <pt x="399" y="246" on="1"/>
        <pt x="60" y="246" on="1"/>
      </contour>
      <contour>
        <pt x="172" y="429" on="1"/>
        <pt x="172" y="453" on="0"/>
        <pt x="206" y="487" on="0"/>
        <pt x="230" y="487" on="1"/>
        <pt x="254" y="487" on="0"/>
        <pt x="287" y="453" on="0"/>
        <pt x="287" y="429" on="1"/>
        <pt x="287" y="406" on="0"/>
        <pt x="254" y="372" on="0"/>
        <pt x="230" y="372" on="1"/>
        <pt x="206" y="372" on="0"/>
        <pt x="172" y="406" on="0"/>
      </contour>
      <contour>
        <pt x="172" y="147" on="1"/>
        <pt x="172" y="171" on="0"/>
        <pt x="206" y="205" on="0"/>
        <pt x="230" y="205" on="1"/>
        <pt x="254" y="205" on="0"/>
        <pt x="287" y="171" on="0"/>
        <pt x="287" y="147" on="1"/>
        <pt x="287" y="123" on="0"/>
        <pt x="254" y="89" on="0"/>
        <pt x="230" y="89" on="1"/>
        <pt x="206" y="89" on="0"/>
        <pt x="172" y="123" on="0"/>
      </contour>
    </TTGlyph>
    <TTGlyph name="divide.lin" xMin="60" yMin="172" xMax="399" yMax="570">
      <component glyphName="divide" x="0" y="83" flags="0x204"/>
    </TTGlyph>
    <TTGlyph name="dollar" xMin="33" yMin="-82" xMax="437" yMax="665">
      <contour>
        <pt x="314" y="662" on="1"/>
        <pt x="307" y="590" on="1"/>
        <pt x="344" y="585" on="0"/>
        <pt x="404" y="561" on="0"/>
        <pt x="427" y="547" on="1"/>
        <pt x="390" y="454" on="1"/>
        <pt x="372" y="466" on="0"/>
        <pt x="325" y="488" on="0"/>
        <pt x="299" y="494" on="1"/>
        <pt x="285" y="338" on="1"/>
        <pt x="325" y="323" on="0"/>
        <pt x="382" y="290" on="0"/>
        <pt x="419" y="249" on="0"/>
        <pt x="437" y="200" on="0"/>
        <pt x="437" y="168" on="1"/>
        <pt x="437" y="130" on="0"/>
        <pt x="410" y="67" on="0"/>
        <pt x="361" y="20" on="0"/>
        <pt x="293" y="-8" on="0"/>
        <pt x="253" y="-11" on="1"/>
        <pt x="247" y="-82" on="1"/>
        <pt x="180" y="-79" on="1"/>
        <pt x="186" y="-8" on="1"/>
        <pt x="140" y="-2" on="0"/>
        <pt x="63" y="32" on="0"/>
        <pt x="33" y="52" on="1"/>
        <pt x="75" y="147" on="1"/>
        <pt x="101" y="127" on="0"/>
        <pt x="162" y="97" on="0"/>
        <pt x="194" y="90" on="1"/>
        <pt x="209" y="258" on="1"/>
        <pt x="133" y="287" on="0"/>
        <pt x="61" y="361" on="0"/>
        <pt x="61" y="422" on="1"/>
        <pt x="61" y="455" on="0"/>
        <pt x="86" y="515" on="0"/>
        <pt x="133" y="561" on="0"/>
        <pt x="200" y="590" on="0"/>
        <pt x="241" y="593" on="1"/>
        <pt x="247" y="665" on="1"/>
      </contour>
      <contour>
        <pt x="330" y="159" on="1"/>
        <pt x="330" y="184" on="0"/>
        <pt x="303" y="218" on="0"/>
        <pt x="274" y="232" on="1"/>
        <pt x="261" y="86" on="1"/>
        <pt x="294" y="91" on="0"/>
        <pt x="330" y="127" on="0"/>
      </contour>
      <contour>
        <pt x="167" y="432" on="1"/>
        <pt x="167" y="410" on="0"/>
        <pt x="194" y="379" on="0"/>
        <pt x="221" y="365" on="1"/>
        <pt x="232" y="498" on="1"/>
        <pt x="200" y="493" on="0"/>
        <pt x="167" y="458" on="0"/>
      </contour>
    </TTGlyph>
    <TTGlyph name="dollar.lin" xMin="21" yMin="-103" xMax="501" yMax="835">
      <contour>
        <pt x="353" y="832" on="1"/>
        <pt x="345" y="743" on="1"/>
        <pt x="387" y="737" on="0"/>
        <pt x="463" y="708" on="0"/>
        <pt x="493" y="688" on="1"/>
        <pt x="443" y="587" on="1"/>
        <pt x="422" y="601" on="0"/>
        <pt x="364" y="626" on="0"/>
        <pt x="334" y="632" on="1"/>
        <pt x="315" y="426" on="1"/>
        <pt x="368" y="402" on="0"/>
        <pt x="439" y="356" on="0"/>
        <pt x="483" y="305" on="0"/>
        <pt x="501" y="246" on="0"/>
        <pt x="501" y="210" on="1"/>
        <pt x="501" y="167" on="0"/>
        <pt x="470" y="89" on="0"/>
        <pt x="412" y="29" on="0"/>
        <pt x="328" y="-8" on="0"/>
        <pt x="275" y="-11" on="1"/>
        <pt x="267" y="-103" on="1"/>
        <pt x="197" y="-100" on="1"/>
        <pt x="205" y="-8" on="1"/>
        <pt x="154" y="-1" on="0"/>
        <pt x="60" y="37" on="0"/>
        <pt x="21" y="63" on="1"/>
        <pt x="72" y="166" on="1"/>
        <pt x="103" y="144" on="0"/>
        <pt x="177" y="113" on="0"/>
        <pt x="215" y="107" on="1"/>
        <pt x="235" y="329" on="1"/>
        <pt x="232" y="329" on="0"/>
        <pt x="230" y="331" on="1"/>
        <pt x="181" y="351" on="0"/>
        <pt x="114" y="394" on="0"/>
        <pt x="73" y="444" on="0"/>
        <pt x="55" y="503" on="0"/>
        <pt x="55" y="540" on="1"/>
        <pt x="55" y="577" on="0"/>
        <pt x="84" y="648" on="0"/>
        <pt x="140" y="704" on="0"/>
        <pt x="222" y="741" on="0"/>
        <pt x="274" y="745" on="1"/>
        <pt x="282" y="835" on="1"/>
      </contour>
      <contour>
        <pt x="373" y="200" on="1"/>
        <pt x="373" y="229" on="0"/>
        <pt x="344" y="273" on="0"/>
        <pt x="301" y="297" on="1"/>
        <pt x="285" y="105" on="1"/>
        <pt x="330" y="112" on="0"/>
        <pt x="373" y="166" on="0"/>
      </contour>
      <contour>
        <pt x="181" y="546" on="1"/>
        <pt x="181" y="517" on="0"/>
        <pt x="212" y="478" on="0"/>
        <pt x="249" y="458" on="1"/>
        <pt x="264" y="633" on="1"/>
        <pt x="222" y="625" on="0"/>
        <pt x="181" y="577" on="0"/>
      </contour>
    </TTGlyph>
    <TTGlyph name="dotaccent" xMin="158" yMin="494" xMax="283" yMax="620">
      <contour>
        <pt x="158" y="557" on="1"/>
        <pt x="158" y="583" on="0"/>
        <pt x="194" y="620" on="0"/>
        <pt x="220" y="620" on="1"/>
        <pt x="246" y="620" on="0"/>
        <pt x="283" y="583" on="0"/>
        <pt x="283" y="557" on="1"/>
        <pt x="283" y="531" on="0"/>
        <pt x="246" y="494" on="0"/>
        <pt x="220" y="494" on="1"/>
        <pt x="194" y="494" on="0"/>
        <pt x="158" y="531" on="0"/>
      </contour>
    </TTGlyph>
    <TTGlyph name="dotlessi" xMin="64" yMin="0" xMax="178" yMax="427">
      <contour>
        <pt x="64" y="0" on="1"/>
        <pt x="64" y="427" on="1"/>
        <pt x="178" y="427" on="1"/>
        <pt x="178" y="0" on="1"/>
      </contour>
    </TTGlyph>
    <TTGlyph name="e" xMin="36" yMin="-8" xMax="447" yMax="435">
      <contour>
        <pt x="447" y="230" on="1"/>
        <pt x="447" y="219" on="0"/>
        <pt x="446" y="190" on="0"/>
        <pt x="444" y="179" on="1"/>
        <pt x="148" y="179" on="1"/>
        <pt x="155" y="134" on="0"/>
        <pt x="215" y="81" on="0"/>
        <pt x="281" y="81" on="1"/>
        <pt x="308" y="81" on="0"/>
        <pt x="373" y="94" on="0"/>
        <pt x="405" y="104" on="1"/>
        <pt x="419" y="16" on="1"/>
        <pt x="380" y="5" on="0"/>
        <pt x="302" y="-8" on="0"/>
        <pt x="270" y="-8" on="1"/>
        <pt x="210" y="-8" on="0"/>
        <pt x="122" y="27" on="0"/>
        <pt x="64" y="87" on="0"/>
        <pt x="36" y="167" on="0"/>
        <pt x="36" y="212" on="1"/>
        <pt x="36" y="255" on="0"/>
        <pt x="64" y="336" on="0"/>
        <pt x="119" y="398" on="0"/>
        <pt x="200" y="435" on="0"/>
        <pt x="252" y="435" on="1"/>
        <pt x="300" y="435" on="0"/>
        <pt x="373" y="403" on="0"/>
        <pt x="422" y="347" on="0"/>
        <pt x="447" y="273" on="0"/>
      </contour>
      <contour>
        <pt x="346" y="250" on="1"/>
        <pt x="342" y="294" on="0"/>
        <pt x="293" y="346" on="0"/>
        <pt x="250" y="346" on="1"/>
        <pt x="208" y="346" on="0"/>
        <pt x="156" y="296" on="0"/>
        <pt x="150" y="250" on="1"/>
      </contour>
    </TTGlyph>
    <TTGlyph name="eacute" xMin="36" yMin="-8" xMax="447" yMax="668">
      <component glyphName="acute" x="71" y="0" flags="0x4"/>
      <component glyphName="e" x="0" y="0" flags="0x4"/>
    </TTGlyph>
    <TTGlyph name="ebreve" xMin="36" yMin="-8" xMax="447" yMax="633">
      <component glyphName="e" x="0" y="0" flags="0x204"/>
      <component glyphName="breve" x="15" y="0" flags="0x4"/>
    </TTGlyph>
    <TTGlyph name="ecaron" xMin="36" yMin="-8" xMax="447" yMax="664">
      <component glyphName="caron" x="18" y="0" flags="0x4"/>
      <component glyphName="e" x="0" y="0" flags="0x4"/>
    </TTGlyph>
    <TTGlyph name="ecircumflex" xMin="36" yMin="-8" xMax="447" yMax="670">
      <component glyphName="circumflex" x="12" y="0" flags="0x4"/>
      <component glyphName="e" x="0" y="0" flags="0x4"/>
    </TTGlyph>
    <TTGlyph name="edieresis" xMin="36" yMin="-8" xMax="447" yMax="620">
      <component glyphName="dieresis" x="15" y="0" flags="0x4"/>
      <component glyphName="e" x="0" y="0" flags="0x4"/>
    </TTGlyph>
    <TTGlyph name="edotaccent" xMin="36" yMin="-8" xMax="447" yMax="620">
      <component glyphName="e" x="0" y="0" flags="0x204"/>
      <component glyphName="dotaccent" x="30" y="0" flags="0x4"/>
    </TTGlyph>
    <TTGlyph name="egrave" xMin="36" yMin="-8" xMax="447" yMax="667">
      <component glyphName="e" x="0" y="0" flags="0x204"/>
      <component glyphName="grave" x="-60" y="0" flags="0x4"/>
    </TTGlyph>
    <TTGlyph name="eight" xMin="55" yMin="-10" xMax="455" yMax="593">
      <contour>
        <pt x="455" y="157" on="1"/>
        <pt x="455" y="123" on="0"/>
        <pt x="427" y="63" on="0"/>
        <pt x="375" y="17" on="0"/>
        <pt x="301" y="-10" on="0"/>
        <pt x="255" y="-10" on="1"/>
        <pt x="209" y="-10" on="0"/>
        <pt x="135" y="17" on="0"/>
        <pt x="83" y="63" on="0"/>
        <pt x="55" y="123" on="0"/>
        <pt x="55" y="157" on="1"/>
        <pt x="55" y="203" on="0"/>
        <pt x="102" y="276" on="0"/>
        <pt x="150" y="298" on="1"/>
        <pt x="67" y="342" on="0"/>
        <pt x="67" y="429" on="1"/>
        <pt x="67" y="463" on="0"/>
        <pt x="94" y="523" on="0"/>
        <pt x="143" y="567" on="0"/>
        <pt x="213" y="593" on="0"/>
        <pt x="255" y="593" on="1"/>
        <pt x="297" y="593" on="0"/>
        <pt x="366" y="567" on="0"/>
        <pt x="415" y="523" on="0"/>
        <pt x="442" y="463" on="0"/>
        <pt x="442" y="429" on="1"/>
        <pt x="442" y="342" on="0"/>
        <pt x="360" y="298" on="1"/>
        <pt x="408" y="276" on="0"/>
        <pt x="455" y="203" on="0"/>
      </contour>
      <contour>
        <pt x="337" y="417" on="1"/>
        <pt x="337" y="452" on="0"/>
        <pt x="292" y="499" on="0"/>
        <pt x="255" y="499" on="1"/>
        <pt x="218" y="499" on="0"/>
        <pt x="173" y="452" on="0"/>
        <pt x="173" y="417" on="1"/>
        <pt x="173" y="381" on="0"/>
        <pt x="218" y="335" on="0"/>
        <pt x="255" y="335" on="1"/>
        <pt x="292" y="335" on="0"/>
        <pt x="337" y="381" on="0"/>
      </contour>
      <contour>
        <pt x="341" y="170" on="1"/>
        <pt x="341" y="208" on="0"/>
        <pt x="294" y="255" on="0"/>
        <pt x="255" y="255" on="1"/>
        <pt x="216" y="255" on="0"/>
        <pt x="169" y="208" on="0"/>
        <pt x="169" y="170" on="1"/>
        <pt x="169" y="133" on="0"/>
        <pt x="216" y="84" on="0"/>
        <pt x="255" y="84" on="1"/>
        <pt x="294" y="84" on="0"/>
        <pt x="341" y="133" on="0"/>
      </contour>
    </TTGlyph>
    <TTGlyph name="eight.den" xMin="21" yMin="-8" xMax="330" yMax="405">
      <contour>
        <pt x="175" y="-8" on="1"/>
        <pt x="103" y="-8" on="0"/>
        <pt x="21" y="57" on="0"/>
        <pt x="21" y="108" on="1"/>
        <pt x="21" y="138" on="0"/>
        <pt x="51" y="185" on="0"/>
        <pt x="85" y="201" on="1"/>
        <pt x="59" y="215" on="0"/>
        <pt x="29" y="261" on="0"/>
        <pt x="29" y="292" on="1"/>
        <pt x="29" y="342" on="0"/>
        <pt x="108" y="405" on="0"/>
        <pt x="175" y="405" on="1"/>
        <pt x="242" y="405" on="0"/>
        <pt x="322" y="342" on="0"/>
        <pt x="322" y="292" on="1"/>
        <pt x="322" y="261" on="0"/>
        <pt x="291" y="215" on="0"/>
        <pt x="265" y="201" on="1"/>
        <pt x="300" y="185" on="0"/>
        <pt x="330" y="138" on="0"/>
        <pt x="330" y="108" on="1"/>
        <pt x="330" y="57" on="0"/>
        <pt x="247" y="-8" on="0"/>
      </contour>
      <contour>
        <pt x="175" y="170" on="1"/>
        <pt x="145" y="170" on="0"/>
        <pt x="108" y="142" on="0"/>
        <pt x="108" y="116" on="1"/>
        <pt x="108" y="91" on="0"/>
        <pt x="144" y="62" on="0"/>
        <pt x="175" y="62" on="1"/>
        <pt x="207" y="62" on="0"/>
        <pt x="243" y="91" on="0"/>
        <pt x="243" y="116" on="1"/>
        <pt x="243" y="142" on="0"/>
        <pt x="205" y="170" on="0"/>
      </contour>
      <contour>
        <pt x="176" y="336" on="1"/>
        <pt x="145" y="336" on="0"/>
        <pt x="112" y="307" on="0"/>
        <pt x="112" y="283" on="1"/>
        <pt x="112" y="258" on="0"/>
        <pt x="147" y="231" on="0"/>
        <pt x="175" y="231" on="1"/>
        <pt x="203" y="231" on="0"/>
        <pt x="238" y="258" on="0"/>
        <pt x="238" y="283" on="1"/>
        <pt x="238" y="307" on="0"/>
        <pt x="205" y="336" on="0"/>
      </contour>
    </TTGlyph>
    <TTGlyph name="eight.lin" xMin="49" yMin="-12" xMax="548" yMax="745">
      <contour>
        <pt x="548" y="194" on="1"/>
        <pt x="548" y="152" on="0"/>
        <pt x="513" y="77" on="0"/>
        <pt x="448" y="21" on="0"/>
        <pt x="355" y="-12" on="0"/>
        <pt x="298" y="-12" on="1"/>
        <pt x="241" y="-12" on="0"/>
        <pt x="149" y="21" on="0"/>
        <pt x="84" y="77" on="0"/>
        <pt x="49" y="152" on="0"/>
        <pt x="49" y="194" on="1"/>
        <pt x="49" y="252" on="0"/>
        <pt x="109" y="346" on="0"/>
        <pt x="167" y="370" on="1"/>
        <pt x="118" y="396" on="0"/>
        <pt x="67" y="485" on="0"/>
        <pt x="67" y="539" on="1"/>
        <pt x="67" y="582" on="0"/>
        <pt x="100" y="657" on="0"/>
        <pt x="160" y="713" on="0"/>
        <pt x="245" y="745" on="0"/>
        <pt x="298" y="745" on="1"/>
        <pt x="351" y="745" on="0"/>
        <pt x="437" y="713" on="0"/>
        <pt x="497" y="658" on="0"/>
        <pt x="530" y="583" on="0"/>
        <pt x="530" y="540" on="1"/>
        <pt x="530" y="486" on="0"/>
        <pt x="476" y="394" on="0"/>
        <pt x="429" y="370" on="1"/>
        <pt x="489" y="345" on="0"/>
        <pt x="548" y="252" on="0"/>
      </contour>
      <contour>
        <pt x="409" y="522" on="1"/>
        <pt x="409" y="572" on="0"/>
        <pt x="352" y="637" on="0"/>
        <pt x="298" y="637" on="1"/>
        <pt x="245" y="637" on="0"/>
        <pt x="187" y="572" on="0"/>
        <pt x="187" y="522" on="1"/>
        <pt x="187" y="474" on="0"/>
        <pt x="247" y="415" on="0"/>
        <pt x="298" y="415" on="1"/>
        <pt x="349" y="415" on="0"/>
        <pt x="409" y="474" on="0"/>
      </contour>
      <contour>
        <pt x="419" y="212" on="1"/>
        <pt x="419" y="262" on="0"/>
        <pt x="352" y="325" on="0"/>
        <pt x="298" y="325" on="1"/>
        <pt x="244" y="325" on="0"/>
        <pt x="180" y="262" on="0"/>
        <pt x="180" y="212" on="1"/>
        <pt x="180" y="164" on="0"/>
        <pt x="245" y="97" on="0"/>
        <pt x="299" y="97" on="1"/>
        <pt x="355" y="97" on="0"/>
        <pt x="419" y="164" on="0"/>
      </contour>
    </TTGlyph>
    <TTGlyph name="eight.num" xMin="21" yMin="328" xMax="330" yMax="741">
      <contour>
        <pt x="175" y="328" on="1"/>
        <pt x="103" y="328" on="0"/>
        <pt x="21" y="393" on="0"/>
        <pt x="21" y="444" on="1"/>
        <pt x="21" y="474" on="0"/>
        <pt x="51" y="521" on="0"/>
        <pt x="85" y="537" on="1"/>
        <pt x="59" y="551" on="0"/>
        <pt x="29" y="597" on="0"/>
        <pt x="29" y="628" on="1"/>
        <pt x="29" y="678" on="0"/>
        <pt x="108" y="741" on="0"/>
        <pt x="175" y="741" on="1"/>
        <pt x="242" y="741" on="0"/>
        <pt x="322" y="678" on="0"/>
        <pt x="322" y="628" on="1"/>
        <pt x="322" y="597" on="0"/>
        <pt x="291" y="551" on="0"/>
        <pt x="265" y="537" on="1"/>
        <pt x="300" y="521" on="0"/>
        <pt x="330" y="474" on="0"/>
        <pt x="330" y="444" on="1"/>
        <pt x="330" y="393" on="0"/>
        <pt x="247" y="328" on="0"/>
      </contour>
      <contour>
        <pt x="175" y="506" on="1"/>
        <pt x="145" y="506" on="0"/>
        <pt x="108" y="478" on="0"/>
        <pt x="108" y="452" on="1"/>
        <pt x="108" y="427" on="0"/>
        <pt x="144" y="398" on="0"/>
        <pt x="175" y="398" on="1"/>
        <pt x="207" y="398" on="0"/>
        <pt x="243" y="427" on="0"/>
        <pt x="243" y="452" on="1"/>
        <pt x="243" y="478" on="0"/>
        <pt x="205" y="506" on="0"/>
      </contour>
      <contour>
        <pt x="176" y="672" on="1"/>
        <pt x="145" y="672" on="0"/>
        <pt x="112" y="643" on="0"/>
        <pt x="112" y="619" on="1"/>
        <pt x="112" y="594" on="0"/>
        <pt x="147" y="567" on="0"/>
        <pt x="175" y="567" on="1"/>
        <pt x="203" y="567" on="0"/>
        <pt x="238" y="594" on="0"/>
        <pt x="238" y="619" on="1"/>
        <pt x="238" y="643" on="0"/>
        <pt x="205" y="672" on="0"/>
      </contour>
    </TTGlyph>
    <TTGlyph name="elevensixteenths" xMin="11" yMin="-17" xMax="1273" yMax="750">
      <component glyphName="one.den" x="668" y="0" flags="0x4"/>
      <component glyphName="six.den" x="942" y="0" flags="0x4"/>
      <component glyphName="one.num" x="-4" y="0" flags="0x4"/>
      <component glyphName="one.num" x="269" y="0" flags="0x4"/>
      <component glyphName="fraction" x="543" y="0" flags="0x4"/>
    </TTGlyph>
    <TTGlyph name="ellipsis" xMin="69" yMin="-8" xMax="703" yMax="123">
      <contour>
        <pt x="69" y="58" on="1"/>
        <pt x="69" y="85" on="0"/>
        <pt x="107" y="123" on="0"/>
        <pt x="134" y="123" on="1"/>
        <pt x="161" y="123" on="0"/>
        <pt x="199" y="85" on="0"/>
        <pt x="199" y="58" on="1"/>
        <pt x="199" y="30" on="0"/>
        <pt x="161" y="-8" on="0"/>
        <pt x="134" y="-8" on="1"/>
        <pt x="107" y="-8" on="0"/>
        <pt x="69" y="30" on="0"/>
      </contour>
      <contour>
        <pt x="321" y="58" on="1"/>
        <pt x="321" y="85" on="0"/>
        <pt x="359" y="123" on="0"/>
        <pt x="386" y="123" on="1"/>
        <pt x="413" y="123" on="0"/>
        <pt x="451" y="85" on="0"/>
        <pt x="451" y="58" on="1"/>
        <pt x="451" y="30" on="0"/>
        <pt x="413" y="-8" on="0"/>
        <pt x="386" y="-8" on="1"/>
        <pt x="359" y="-8" on="0"/>
        <pt x="321" y="30" on="0"/>
      </contour>
      <contour>
        <pt x="573" y="58" on="1"/>
        <pt x="573" y="85" on="0"/>
        <pt x="611" y="123" on="0"/>
        <pt x="638" y="123" on="1"/>
        <pt x="665" y="123" on="0"/>
        <pt x="703" y="85" on="0"/>
        <pt x="703" y="58" on="1"/>
        <pt x="703" y="30" on="0"/>
        <pt x="665" y="-8" on="0"/>
        <pt x="638" y="-8" on="1"/>
        <pt x="611" y="-8" on="0"/>
        <pt x="573" y="30" on="0"/>
      </contour>
    </TTGlyph>
    <TTGlyph name="emacron" xMin="36" yMin="-8" xMax="447" yMax="590">
      <component glyphName="e" x="0" y="0" flags="0x204"/>
      <component glyphName="macron" x="15" y="0" flags="0x4"/>
    </TTGlyph>
    <TTGlyph name="emdash" xMin="50" yMin="206" xMax="700" yMax="283">
      <contour>
        <pt x="50" y="206" on="1"/>
        <pt x="50" y="283" on="1"/>
        <pt x="700" y="283" on="1"/>
        <pt x="700" y="206" on="1"/>
      </contour>
    </TTGlyph>
    <TTGlyph name="emdash.cap" xMin="50" yMin="332" xMax="700" yMax="409">
      <component glyphName="emdash" x="0" y="126" flags="0x204"/>
    </TTGlyph>
    <TTGlyph name="endash" xMin="50" yMin="206" xMax="450" yMax="283">
      <contour>
        <pt x="50" y="206" on="1"/>
        <pt x="50" y="283" on="1"/>
        <pt x="450" y="283" on="1"/>
        <pt x="450" y="206" on="1"/>
      </contour>
    </TTGlyph>
    <TTGlyph name="endash.cap" xMin="50" yMin="332" xMax="450" yMax="409">
      <component glyphName="endash" x="0" y="126" flags="0x204"/>
    </TTGlyph>
    <TTGlyph name="eogonek" xMin="36" yMin="-222" xMax="447" yMax="435">
      <contour>
        <pt x="447" y="230" on="1"/>
        <pt x="447" y="219" on="0"/>
        <pt x="446" y="190" on="0"/>
        <pt x="444" y="179" on="1"/>
        <pt x="148" y="179" on="1"/>
        <pt x="155" y="134" on="0"/>
        <pt x="215" y="81" on="0"/>
        <pt x="281" y="81" on="1"/>
        <pt x="308" y="81" on="0"/>
        <pt x="373" y="94" on="0"/>
        <pt x="405" y="104" on="1"/>
        <pt x="419" y="18" on="1"/>
        <pt x="380" y="-17" on="0"/>
        <pt x="335" y="-88" on="0"/>
        <pt x="335" y="-116" on="1"/>
        <pt x="335" y="-133" on="0"/>
        <pt x="353" y="-152" on="0"/>
        <pt x="368" y="-152" on="1"/>
        <pt x="381" y="-152" on="0"/>
        <pt x="402" y="-140" on="0"/>
        <pt x="414" y="-128" on="1"/>
        <pt x="447" y="-173" on="1"/>
        <pt x="427" y="-195" on="0"/>
        <pt x="377" y="-221" on="0"/>
        <pt x="343" y="-222" on="1"/>
        <pt x="301" y="-222" on="0"/>
        <pt x="253" y="-173" on="0"/>
        <pt x="253" y="-134" on="1"/>
        <pt x="253" y="-101" on="0"/>
        <pt x="290" y="-38" on="0"/>
        <pt x="326" y="-3" on="1"/>
        <pt x="311" y="-5" on="0"/>
        <pt x="283" y="-8" on="0"/>
        <pt x="270" y="-8" on="1"/>
        <pt x="210" y="-8" on="0"/>
        <pt x="122" y="27" on="0"/>
        <pt x="64" y="87" on="0"/>
        <pt x="36" y="167" on="0"/>
        <pt x="36" y="212" on="1"/>
        <pt x="36" y="255" on="0"/>
        <pt x="64" y="336" on="0"/>
        <pt x="119" y="398" on="0"/>
        <pt x="200" y="435" on="0"/>
        <pt x="252" y="435" on="1"/>
        <pt x="300" y="435" on="0"/>
        <pt x="373" y="403" on="0"/>
        <pt x="422" y="347" on="0"/>
        <pt x="447" y="273" on="0"/>
      </contour>
      <contour>
        <pt x="346" y="250" on="1"/>
        <pt x="342" y="294" on="0"/>
        <pt x="293" y="346" on="0"/>
        <pt x="250" y="346" on="1"/>
        <pt x="208" y="346" on="0"/>
        <pt x="156" y="296" on="0"/>
        <pt x="150" y="250" on="1"/>
      </contour>
    </TTGlyph>
    <TTGlyph name="equal" xMin="60" yMin="166" xMax="371" yMax="411">
      <contour>
        <pt x="60" y="326" on="1"/>
        <pt x="60" y="411" on="1"/>
        <pt x="371" y="411" on="1"/>
        <pt x="371" y="326" on="1"/>
      </contour>
      <contour>
        <pt x="60" y="166" on="1"/>
        <pt x="60" y="250" on="1"/>
        <pt x="371" y="250" on="1"/>
        <pt x="371" y="166" on="1"/>
      </contour>
    </TTGlyph>
    <TTGlyph name="equal.lin" xMin="60" yMin="249" xMax="371" yMax="494">
      <component glyphName="equal" x="0" y="83" flags="0x204"/>
    </TTGlyph>
    <TTGlyph name="eth" xMin="39" yMin="-10" xMax="485" yMax="740">
      <contour>
        <pt x="109" y="545" on="1"/>
        <pt x="172" y="600" on="1"/>
        <pt x="148" y="616" on="0"/>
        <pt x="99" y="642" on="0"/>
        <pt x="74" y="652" on="1"/>
        <pt x="118" y="740" on="1"/>
        <pt x="151" y="725" on="0"/>
        <pt x="216" y="690" on="0"/>
        <pt x="248" y="668" on="1"/>
        <pt x="315" y="727" on="1"/>
        <pt x="366" y="665" on="1"/>
        <pt x="312" y="619" on="1"/>
        <pt x="349" y="586" on="0"/>
        <pt x="412" y="507" on="0"/>
        <pt x="459" y="413" on="0"/>
        <pt x="485" y="305" on="0"/>
        <pt x="485" y="242" on="1"/>
        <pt x="485" y="186" on="0"/>
        <pt x="454" y="93" on="0"/>
        <pt x="396" y="27" on="0"/>
        <pt x="313" y="-10" on="0"/>
        <pt x="262" y="-10" on="1"/>
        <pt x="206" y="-10" on="0"/>
        <pt x="122" y="28" on="0"/>
        <pt x="66" y="91" on="0"/>
        <pt x="39" y="175" on="0"/>
        <pt x="39" y="220" on="1"/>
        <pt x="39" y="264" on="0"/>
        <pt x="66" y="342" on="0"/>
        <pt x="116" y="401" on="0"/>
        <pt x="189" y="435" on="0"/>
        <pt x="235" y="435" on="1"/>
        <pt x="272" y="435" on="0"/>
        <pt x="334" y="411" on="0"/>
        <pt x="356" y="390" on="1"/>
        <pt x="339" y="434" on="0"/>
        <pt x="277" y="517" on="0"/>
        <pt x="235" y="553" on="1"/>
        <pt x="157" y="486" on="1"/>
      </contour>
      <contour>
        <pt x="377" y="215" on="1"/>
        <pt x="377" y="275" on="0"/>
        <pt x="313" y="349" on="0"/>
        <pt x="261" y="349" on="1"/>
        <pt x="212" y="349" on="0"/>
        <pt x="151" y="280" on="0"/>
        <pt x="151" y="219" on="1"/>
        <pt x="151" y="190" on="0"/>
        <pt x="166" y="139" on="0"/>
        <pt x="195" y="100" on="0"/>
        <pt x="237" y="78" on="0"/>
        <pt x="264" y="78" on="1"/>
        <pt x="318" y="78" on="0"/>
        <pt x="377" y="155" on="0"/>
      </contour>
    </TTGlyph>
    <TTGlyph name="exclam" xMin="66" yMin="-8" xMax="196" yMax="733">
      <contour>
        <pt x="170" y="205" on="1"/>
        <pt x="92" y="205" on="1"/>
        <pt x="68" y="733" on="1"/>
        <pt x="194" y="733" on="1"/>
      </contour>
      <contour>
        <pt x="196" y="58" on="1"/>
        <pt x="196" y="30" on="0"/>
        <pt x="158" y="-8" on="0"/>
        <pt x="131" y="-8" on="1"/>
        <pt x="104" y="-8" on="0"/>
        <pt x="66" y="30" on="0"/>
        <pt x="66" y="58" on="1"/>
        <pt x="66" y="85" on="0"/>
        <pt x="104" y="123" on="0"/>
        <pt x="131" y="123" on="1"/>
        <pt x="158" y="123" on="0"/>
        <pt x="196" y="85" on="0"/>
      </contour>
    </TTGlyph>
    <TTGlyph name="exclamdown" xMin="66" yMin="0" xMax="196" yMax="741">
      <contour>
        <pt x="66" y="676" on="1"/>
        <pt x="66" y="703" on="0"/>
        <pt x="104" y="741" on="0"/>
        <pt x="131" y="741" on="1"/>
        <pt x="158" y="741" on="0"/>
        <pt x="196" y="703" on="0"/>
        <pt x="196" y="676" on="1"/>
        <pt x="196" y="649" on="0"/>
        <pt x="158" y="611" on="0"/>
        <pt x="131" y="611" on="1"/>
        <pt x="104" y="611" on="0"/>
        <pt x="66" y="649" on="0"/>
      </contour>
      <contour>
        <pt x="92" y="528" on="1"/>
        <pt x="171" y="528" on="1"/>
        <pt x="194" y="0" on="1"/>
        <pt x="69" y="0" on="1"/>
      </contour>
    </TTGlyph>
    <TTGlyph name="f" xMin="23" yMin="0" xMax="356" yMax="740">
      <contour>
        <pt x="343" y="635" on="1"/>
        <pt x="334" y="637" on="0"/>
        <pt x="312" y="639" on="0"/>
        <pt x="301" y="639" on="1"/>
        <pt x="257" y="639" on="0"/>
        <pt x="215" y="593" on="0"/>
        <pt x="215" y="531" on="1"/>
        <pt x="215" y="427" on="1"/>
        <pt x="335" y="427" on="1"/>
        <pt x="335" y="335" on="1"/>
        <pt x="215" y="335" on="1"/>
        <pt x="215" y="0" on="1"/>
        <pt x="102" y="0" on="1"/>
        <pt x="102" y="335" on="1"/>
        <pt x="23" y="335" on="1"/>
        <pt x="23" y="350" on="1"/>
        <pt x="102" y="431" on="1"/>
        <pt x="102" y="531" on="1"/>
        <pt x="102" y="630" on="0"/>
        <pt x="192" y="740" on="0"/>
        <pt x="286" y="740" on="1"/>
        <pt x="306" y="740" on="0"/>
        <pt x="339" y="736" on="0"/>
        <pt x="356" y="731" on="1"/>
      </contour>
    </TTGlyph>
    <TTGlyph name="f_f" xMin="23" yMin="0" xMax="679" yMax="740">
      <contour>
        <pt x="343" y="635" on="1"/>
        <pt x="334" y="637" on="0"/>
        <pt x="312" y="639" on="0"/>
        <pt x="301" y="639" on="1"/>
        <pt x="257" y="639" on="0"/>
        <pt x="215" y="593" on="0"/>
        <pt x="215" y="531" on="1"/>
        <pt x="215" y="427" on="1"/>
        <pt x="335" y="427" on="1"/>
        <pt x="335" y="335" on="1"/>
        <pt x="215" y="335" on="1"/>
        <pt x="215" y="0" on="1"/>
        <pt x="102" y="0" on="1"/>
        <pt x="102" y="335" on="1"/>
        <pt x="23" y="335" on="1"/>
        <pt x="23" y="350" on="1"/>
        <pt x="102" y="431" on="1"/>
        <pt x="102" y="531" on="1"/>
        <pt x="102" y="630" on="0"/>
        <pt x="192" y="740" on="0"/>
        <pt x="286" y="740" on="1"/>
        <pt x="306" y="740" on="0"/>
        <pt x="339" y="736" on="0"/>
        <pt x="356" y="731" on="1"/>
      </contour>
      <contour>
        <pt x="667" y="635" on="1"/>
        <pt x="657" y="637" on="0"/>
        <pt x="635" y="639" on="0"/>
        <pt x="624" y="639" on="1"/>
        <pt x="580" y="639" on="0"/>
        <pt x="538" y="593" on="0"/>
        <pt x="538" y="531" on="1"/>
        <pt x="538" y="427" on="1"/>
        <pt x="659" y="427" on="1"/>
        <pt x="659" y="335" on="1"/>
        <pt x="538" y="335" on="1"/>
        <pt x="538" y="0" on="1"/>
        <pt x="425" y="0" on="1"/>
        <pt x="425" y="335" on="1"/>
        <pt x="346" y="335" on="1"/>
        <pt x="346" y="350" on="1"/>
        <pt x="425" y="431" on="1"/>
        <pt x="425" y="531" on="1"/>
        <pt x="425" y="630" on="0"/>
        <pt x="515" y="740" on="0"/>
        <pt x="609" y="740" on="1"/>
        <pt x="629" y="740" on="0"/>
        <pt x="662" y="736" on="0"/>
        <pt x="679" y="731" on="1"/>
      </contour>
    </TTGlyph>
    <TTGlyph name="f_f_i" xMin="23" yMin="0" xMax="850" yMax="740">
      <contour>
        <pt x="343" y="635" on="1"/>
        <pt x="334" y="637" on="0"/>
        <pt x="312" y="639" on="0"/>
        <pt x="301" y="639" on="1"/>
        <pt x="257" y="639" on="0"/>
        <pt x="215" y="593" on="0"/>
        <pt x="215" y="531" on="1"/>
        <pt x="215" y="427" on="1"/>
        <pt x="335" y="427" on="1"/>
        <pt x="335" y="335" on="1"/>
        <pt x="215" y="335" on="1"/>
        <pt x="215" y="0" on="1"/>
        <pt x="102" y="0" on="1"/>
        <pt x="102" y="335" on="1"/>
        <pt x="23" y="335" on="1"/>
        <pt x="23" y="350" on="1"/>
        <pt x="102" y="431" on="1"/>
        <pt x="102" y="531" on="1"/>
        <pt x="102" y="630" on="0"/>
        <pt x="192" y="740" on="0"/>
        <pt x="286" y="740" on="1"/>
        <pt x="306" y="740" on="0"/>
        <pt x="339" y="736" on="0"/>
        <pt x="356" y="731" on="1"/>
      </contour>
      <contour>
        <pt x="667" y="635" on="1"/>
        <pt x="657" y="637" on="0"/>
        <pt x="635" y="639" on="0"/>
        <pt x="624" y="639" on="1"/>
        <pt x="580" y="639" on="0"/>
        <pt x="538" y="593" on="0"/>
        <pt x="538" y="531" on="1"/>
        <pt x="538" y="427" on="1"/>
        <pt x="659" y="427" on="1"/>
        <pt x="659" y="335" on="1"/>
        <pt x="538" y="335" on="1"/>
        <pt x="538" y="0" on="1"/>
        <pt x="425" y="0" on="1"/>
        <pt x="425" y="335" on="1"/>
        <pt x="346" y="335" on="1"/>
        <pt x="346" y="350" on="1"/>
        <pt x="425" y="431" on="1"/>
        <pt x="425" y="531" on="1"/>
        <pt x="425" y="630" on="0"/>
        <pt x="515" y="740" on="0"/>
        <pt x="609" y="740" on="1"/>
        <pt x="629" y="740" on="0"/>
        <pt x="662" y="736" on="0"/>
        <pt x="679" y="731" on="1"/>
      </contour>
      <contour>
        <pt x="850" y="575" on="1"/>
        <pt x="850" y="547" on="0"/>
        <pt x="811" y="508" on="0"/>
        <pt x="783" y="508" on="1"/>
        <pt x="755" y="508" on="0"/>
        <pt x="717" y="547" on="0"/>
        <pt x="717" y="575" on="1"/>
        <pt x="717" y="603" on="0"/>
        <pt x="755" y="642" on="0"/>
        <pt x="783" y="642" on="1"/>
        <pt x="811" y="642" on="0"/>
        <pt x="850" y="603" on="0"/>
      </contour>
      <contour>
        <pt x="726" y="0" on="1"/>
        <pt x="726" y="427" on="1"/>
        <pt x="840" y="427" on="1"/>
        <pt x="840" y="0" on="1"/>
      </contour>
    </TTGlyph>
    <TTGlyph name="f_f_l" xMin="23" yMin="0" xMax="837" yMax="740">
      <contour>
        <pt x="343" y="635" on="1"/>
        <pt x="334" y="637" on="0"/>
        <pt x="312" y="639" on="0"/>
        <pt x="301" y="639" on="1"/>
        <pt x="257" y="639" on="0"/>
        <pt x="215" y="593" on="0"/>
        <pt x="215" y="531" on="1"/>
        <pt x="215" y="427" on="1"/>
        <pt x="335" y="427" on="1"/>
        <pt x="335" y="335" on="1"/>
        <pt x="215" y="335" on="1"/>
        <pt x="215" y="0" on="1"/>
        <pt x="102" y="0" on="1"/>
        <pt x="102" y="335" on="1"/>
        <pt x="23" y="335" on="1"/>
        <pt x="23" y="350" on="1"/>
        <pt x="102" y="431" on="1"/>
        <pt x="102" y="531" on="1"/>
        <pt x="102" y="630" on="0"/>
        <pt x="192" y="740" on="0"/>
        <pt x="286" y="740" on="1"/>
        <pt x="306" y="740" on="0"/>
        <pt x="339" y="736" on="0"/>
        <pt x="356" y="731" on="1"/>
      </contour>
      <contour>
        <pt x="667" y="635" on="1"/>
        <pt x="657" y="637" on="0"/>
        <pt x="635" y="639" on="0"/>
        <pt x="624" y="639" on="1"/>
        <pt x="580" y="639" on="0"/>
        <pt x="538" y="593" on="0"/>
        <pt x="538" y="531" on="1"/>
        <pt x="538" y="427" on="1"/>
        <pt x="659" y="427" on="1"/>
        <pt x="659" y="335" on="1"/>
        <pt x="538" y="335" on="1"/>
        <pt x="538" y="0" on="1"/>
        <pt x="425" y="0" on="1"/>
        <pt x="425" y="335" on="1"/>
        <pt x="346" y="335" on="1"/>
        <pt x="346" y="350" on="1"/>
        <pt x="425" y="431" on="1"/>
        <pt x="425" y="531" on="1"/>
        <pt x="425" y="630" on="0"/>
        <pt x="515" y="740" on="0"/>
        <pt x="609" y="740" on="1"/>
        <pt x="629" y="740" on="0"/>
        <pt x="662" y="736" on="0"/>
        <pt x="679" y="731" on="1"/>
      </contour>
      <contour>
        <pt x="723" y="0" on="1"/>
        <pt x="723" y="733" on="1"/>
        <pt x="837" y="733" on="1"/>
        <pt x="837" y="0" on="1"/>
      </contour>
    </TTGlyph>
    <TTGlyph name="fi" xMin="23" yMin="0" xMax="526" yMax="740">
      <contour>
        <pt x="526" y="575" on="1"/>
        <pt x="526" y="547" on="0"/>
        <pt x="488" y="508" on="0"/>
        <pt x="460" y="508" on="1"/>
        <pt x="432" y="508" on="0"/>
        <pt x="393" y="547" on="0"/>
        <pt x="393" y="575" on="1"/>
        <pt x="393" y="603" on="0"/>
        <pt x="432" y="642" on="0"/>
        <pt x="460" y="642" on="1"/>
        <pt x="488" y="642" on="0"/>
        <pt x="526" y="603" on="0"/>
      </contour>
      <contour>
        <pt x="343" y="635" on="1"/>
        <pt x="334" y="637" on="0"/>
        <pt x="312" y="639" on="0"/>
        <pt x="301" y="639" on="1"/>
        <pt x="257" y="639" on="0"/>
        <pt x="215" y="593" on="0"/>
        <pt x="215" y="531" on="1"/>
        <pt x="215" y="427" on="1"/>
        <pt x="335" y="427" on="1"/>
        <pt x="335" y="335" on="1"/>
        <pt x="215" y="335" on="1"/>
        <pt x="215" y="0" on="1"/>
        <pt x="102" y="0" on="1"/>
        <pt x="102" y="335" on="1"/>
        <pt x="23" y="335" on="1"/>
        <pt x="23" y="350" on="1"/>
        <pt x="102" y="431" on="1"/>
        <pt x="102" y="531" on="1"/>
        <pt x="102" y="630" on="0"/>
        <pt x="192" y="740" on="0"/>
        <pt x="286" y="740" on="1"/>
        <pt x="306" y="740" on="0"/>
        <pt x="339" y="736" on="0"/>
        <pt x="356" y="731" on="1"/>
      </contour>
      <contour>
        <pt x="402" y="0" on="1"/>
        <pt x="402" y="427" on="1"/>
        <pt x="516" y="427" on="1"/>
        <pt x="516" y="0" on="1"/>
      </contour>
    </TTGlyph>
    <TTGlyph name="fifteensixteenths" xMin="11" yMin="-17" xMax="1349" yMax="750">
      <component glyphName="one.den" x="744" y="0" flags="0x4"/>
      <component glyphName="five.num" x="269" y="0" flags="0x4"/>
      <component glyphName="six.den" x="1018" y="0" flags="0x4"/>
      <component glyphName="one.num" x="-4" y="0" flags="0x4"/>
      <component glyphName="fraction" x="619" y="0" flags="0x4"/>
    </TTGlyph>
    <TTGlyph name="five" xMin="58" yMin="-10" xMax="440" yMax="583">
      <contour>
        <pt x="440" y="189" on="1"/>
        <pt x="440" y="148" on="0"/>
        <pt x="409" y="75" on="0"/>
        <pt x="350" y="21" on="0"/>
        <pt x="266" y="-10" on="0"/>
        <pt x="214" y="-10" on="1"/>
        <pt x="173" y="-10" on="0"/>
        <pt x="95" y="4" on="0"/>
        <pt x="58" y="17" on="1"/>
        <pt x="79" y="113" on="1"/>
        <pt x="108" y="102" on="0"/>
        <pt x="171" y="88" on="0"/>
        <pt x="205" y="88" on="1"/>
        <pt x="267" y="88" on="0"/>
        <pt x="329" y="143" on="0"/>
        <pt x="329" y="183" on="1"/>
        <pt x="329" y="224" on="0"/>
        <pt x="267" y="272" on="0"/>
        <pt x="201" y="272" on="1"/>
        <pt x="174" y="272" on="0"/>
        <pt x="117" y="267" on="0"/>
        <pt x="91" y="260" on="1"/>
        <pt x="82" y="271" on="1"/>
        <pt x="82" y="583" on="1"/>
        <pt x="409" y="583" on="1"/>
        <pt x="409" y="485" on="1"/>
        <pt x="188" y="485" on="1"/>
        <pt x="188" y="366" on="1"/>
        <pt x="199" y="367" on="0"/>
        <pt x="224" y="368" on="0"/>
        <pt x="234" y="368" on="1"/>
        <pt x="287" y="368" on="0"/>
        <pt x="365" y="341" on="0"/>
        <pt x="416" y="293" on="0"/>
        <pt x="440" y="227" on="0"/>
      </contour>
    </TTGlyph>
    <TTGlyph name="five.den" xMin="34" yMin="-8" xMax="324" yMax="397">
      <contour>
        <pt x="151" y="-8" on="1"/>
        <pt x="122" y="-8" on="0"/>
        <pt x="61" y="3" on="0"/>
        <pt x="34" y="15" on="1"/>
        <pt x="55" y="89" on="1"/>
        <pt x="76" y="80" on="0"/>
        <pt x="124" y="69" on="0"/>
        <pt x="147" y="69" on="1"/>
        <pt x="188" y="69" on="0"/>
        <pt x="231" y="99" on="0"/>
        <pt x="231" y="125" on="1"/>
        <pt x="231" y="179" on="0"/>
        <pt x="147" y="179" on="1"/>
        <pt x="126" y="179" on="0"/>
        <pt x="87" y="172" on="0"/>
        <pt x="71" y="167" on="1"/>
        <pt x="52" y="177" on="1"/>
        <pt x="52" y="397" on="1"/>
        <pt x="302" y="397" on="1"/>
        <pt x="302" y="321" on="1"/>
        <pt x="134" y="321" on="1"/>
        <pt x="134" y="249" on="1"/>
        <pt x="143" y="251" on="0"/>
        <pt x="166" y="252" on="0"/>
        <pt x="175" y="252" on="1"/>
        <pt x="252" y="252" on="0"/>
        <pt x="324" y="184" on="0"/>
        <pt x="324" y="128" on="1"/>
        <pt x="324" y="66" on="0"/>
        <pt x="231" y="-8" on="0"/>
      </contour>
    </TTGlyph>
    <TTGlyph name="five.lin" xMin="59" yMin="-12" xMax="537" yMax="733">
      <contour>
        <pt x="537" y="232" on="1"/>
        <pt x="537" y="181" on="0"/>
        <pt x="498" y="92" on="0"/>
        <pt x="425" y="26" on="0"/>
        <pt x="319" y="-12" on="0"/>
        <pt x="253" y="-12" on="1"/>
        <pt x="202" y="-12" on="0"/>
        <pt x="106" y="5" on="0"/>
        <pt x="59" y="21" on="1"/>
        <pt x="88" y="127" on="1"/>
        <pt x="124" y="113" on="0"/>
        <pt x="201" y="96" on="0"/>
        <pt x="243" y="96" on="1"/>
        <pt x="325" y="96" on="0"/>
        <pt x="409" y="166" on="0"/>
        <pt x="409" y="221" on="1"/>
        <pt x="409" y="247" on="0"/>
        <pt x="388" y="295" on="0"/>
        <pt x="346" y="331" on="0"/>
        <pt x="281" y="353" on="0"/>
        <pt x="238" y="353" on="1"/>
        <pt x="224" y="353" on="0"/>
        <pt x="187" y="350" on="0"/>
        <pt x="149" y="346" on="0"/>
        <pt x="113" y="340" on="0"/>
        <pt x="100" y="336" on="1"/>
        <pt x="89" y="349" on="1"/>
        <pt x="89" y="733" on="1"/>
        <pt x="506" y="733" on="1"/>
        <pt x="506" y="621" on="1"/>
        <pt x="214" y="621" on="1"/>
        <pt x="214" y="454" on="1"/>
        <pt x="232" y="456" on="0"/>
        <pt x="267" y="458" on="0"/>
        <pt x="282" y="458" on="1"/>
        <pt x="346" y="458" on="0"/>
        <pt x="442" y="423" on="0"/>
        <pt x="505" y="362" on="0"/>
        <pt x="537" y="279" on="0"/>
      </contour>
    </TTGlyph>
    <TTGlyph name="five.num" xMin="34" yMin="328" xMax="324" yMax="733">
      <contour>
        <pt x="151" y="328" on="1"/>
        <pt x="122" y="328" on="0"/>
        <pt x="61" y="339" on="0"/>
        <pt x="34" y="351" on="1"/>
        <pt x="55" y="425" on="1"/>
        <pt x="76" y="416" on="0"/>
        <pt x="124" y="405" on="0"/>
        <pt x="147" y="405" on="1"/>
        <pt x="188" y="405" on="0"/>
        <pt x="231" y="435" on="0"/>
        <pt x="231" y="461" on="1"/>
        <pt x="231" y="515" on="0"/>
        <pt x="147" y="515" on="1"/>
        <pt x="126" y="515" on="0"/>
        <pt x="87" y="508" on="0"/>
        <pt x="71" y="503" on="1"/>
        <pt x="52" y="513" on="1"/>
        <pt x="52" y="733" on="1"/>
        <pt x="302" y="733" on="1"/>
        <pt x="302" y="657" on="1"/>
        <pt x="134" y="657" on="1"/>
        <pt x="134" y="585" on="1"/>
        <pt x="143" y="587" on="0"/>
        <pt x="166" y="588" on="0"/>
        <pt x="175" y="588" on="1"/>
        <pt x="252" y="588" on="0"/>
        <pt x="324" y="520" on="0"/>
        <pt x="324" y="464" on="1"/>
        <pt x="324" y="402" on="0"/>
        <pt x="231" y="328" on="0"/>
      </contour>
    </TTGlyph>
    <TTGlyph name="fiveeighths" xMin="34" yMin="-17" xMax="805" yMax="750">
      <component glyphName="eight.den" x="475" y="0" flags="0x4"/>
      <component glyphName="five.num" x="0" y="0" flags="0x4"/>
      <component glyphName="fraction" x="350" y="0" flags="0x4"/>
    </TTGlyph>
    <TTGlyph name="fivesixteenths" xMin="34" yMin="-17" xMax="1080" yMax="750">
      <component glyphName="one.den" x="475" y="0" flags="0x4"/>
      <component glyphName="six.den" x="749" y="0" flags="0x4"/>
      <component glyphName="five.num" x="0" y="0" flags="0x4"/>
      <component glyphName="fraction" x="350" y="0" flags="0x4"/>
    </TTGlyph>
    <TTGlyph name="fivesixths" xMin="49" yMin="-17" xMax="791" yMax="750">
      <component glyphName="six.den" x="460" y="0" flags="0x4"/>
      <component glyphName="five.num" x="15" y="0" flags="0x4"/>
      <component glyphName="fraction" x="365" y="0" flags="0x4"/>
    </TTGlyph>
    <TTGlyph name="fl" xMin="23" yMin="0" xMax="513" yMax="740">
      <contour>
        <pt x="343" y="635" on="1"/>
        <pt x="334" y="637" on="0"/>
        <pt x="312" y="639" on="0"/>
        <pt x="301" y="639" on="1"/>
        <pt x="257" y="639" on="0"/>
        <pt x="215" y="593" on="0"/>
        <pt x="215" y="531" on="1"/>
        <pt x="215" y="427" on="1"/>
        <pt x="335" y="427" on="1"/>
        <pt x="335" y="335" on="1"/>
        <pt x="215" y="335" on="1"/>
        <pt x="215" y="0" on="1"/>
        <pt x="102" y="0" on="1"/>
        <pt x="102" y="335" on="1"/>
        <pt x="23" y="335" on="1"/>
        <pt x="23" y="350" on="1"/>
        <pt x="102" y="431" on="1"/>
        <pt x="102" y="531" on="1"/>
        <pt x="102" y="630" on="0"/>
        <pt x="192" y="740" on="0"/>
        <pt x="286" y="740" on="1"/>
        <pt x="306" y="740" on="0"/>
        <pt x="339" y="736" on="0"/>
        <pt x="356" y="731" on="1"/>
      </contour>
      <contour>
        <pt x="400" y="0" on="1"/>
        <pt x="400" y="733" on="1"/>
        <pt x="513" y="733" on="1"/>
        <pt x="513" y="0" on="1"/>
      </contour>
    </TTGlyph>
    <TTGlyph name="florin" xMin="43" yMin="0" xMax="401" yMax="588">
      <contour>
        <pt x="386" y="479" on="1"/>
        <pt x="366" y="484" on="0"/>
        <pt x="346" y="484" on="1"/>
        <pt x="301" y="484" on="0"/>
        <pt x="259" y="436" on="0"/>
        <pt x="252" y="380" on="1"/>
        <pt x="248" y="342" on="1"/>
        <pt x="341" y="342" on="1"/>
        <pt x="341" y="250" on="1"/>
        <pt x="237" y="250" on="1"/>
        <pt x="208" y="0" on="1"/>
        <pt x="96" y="0" on="1"/>
        <pt x="104" y="70" on="0"/>
        <pt x="110" y="125" on="1"/>
        <pt x="112" y="148" on="0"/>
        <pt x="118" y="193" on="0"/>
        <pt x="120" y="211" on="1"/>
        <pt x="123" y="231" on="0"/>
        <pt x="124" y="250" on="1"/>
        <pt x="43" y="250" on="1"/>
        <pt x="43" y="257" on="1"/>
        <pt x="136" y="347" on="1"/>
        <pt x="139" y="376" on="1"/>
        <pt x="151" y="478" on="0"/>
        <pt x="246" y="588" on="0"/>
        <pt x="339" y="588" on="1"/>
        <pt x="358" y="588" on="0"/>
        <pt x="386" y="585" on="0"/>
        <pt x="401" y="580" on="1"/>
      </contour>
    </TTGlyph>
    <TTGlyph name="florin.lin" xMin="66" yMin="0" xMax="500" yMax="742">
      <contour>
        <pt x="479" y="623" on="1"/>
        <pt x="465" y="627" on="0"/>
        <pt x="439" y="632" on="0"/>
        <pt x="426" y="632" on="1"/>
        <pt x="366" y="632" on="0"/>
        <pt x="304" y="557" on="0"/>
        <pt x="295" y="482" on="1"/>
        <pt x="288" y="417" on="1"/>
        <pt x="426" y="417" on="1"/>
        <pt x="426" y="316" on="1"/>
        <pt x="276" y="316" on="1"/>
        <pt x="239" y="0" on="1"/>
        <pt x="119" y="0" on="1"/>
        <pt x="156" y="316" on="1"/>
        <pt x="67" y="316" on="1"/>
        <pt x="66" y="325" on="1"/>
        <pt x="167" y="416" on="1"/>
        <pt x="175" y="486" on="1"/>
        <pt x="189" y="610" on="0"/>
        <pt x="311" y="742" on="0"/>
        <pt x="420" y="742" on="1"/>
        <pt x="468" y="742" on="0"/>
        <pt x="500" y="730" on="1"/>
      </contour>
    </TTGlyph>
    <TTGlyph name="four" xMin="22" yMin="-2" xMax="477" yMax="594">
      <contour>
        <pt x="390" y="147" on="1"/>
        <pt x="390" y="-2" on="1"/>
        <pt x="282" y="-2" on="1"/>
        <pt x="282" y="147" on="1"/>
        <pt x="22" y="147" on="1"/>
        <pt x="22" y="207" on="1"/>
        <pt x="334" y="594" on="1"/>
        <pt x="390" y="594" on="1"/>
        <pt x="390" y="239" on="1"/>
        <pt x="477" y="239" on="1"/>
        <pt x="477" y="147" on="1"/>
      </contour>
      <contour>
        <pt x="282" y="391" on="1"/>
        <pt x="160" y="239" on="1"/>
        <pt x="282" y="239" on="1"/>
      </contour>
    </TTGlyph>
    <TTGlyph name="four.den" xMin="13" yMin="0" xMax="339" yMax="410">
      <contour>
        <pt x="207" y="72" on="1"/>
        <pt x="13" y="72" on="1"/>
        <pt x="13" y="138" on="1"/>
        <pt x="216" y="410" on="1"/>
        <pt x="287" y="410" on="1"/>
        <pt x="287" y="140" on="1"/>
        <pt x="339" y="140" on="1"/>
        <pt x="339" y="72" on="1"/>
        <pt x="287" y="72" on="1"/>
        <pt x="287" y="0" on="1"/>
        <pt x="207" y="0" on="1"/>
      </contour>
      <contour>
        <pt x="207" y="140" on="1"/>
        <pt x="207" y="292" on="1"/>
        <pt x="94" y="140" on="1"/>
      </contour>
    </TTGlyph>
    <TTGlyph name="four.lin" xMin="28" yMin="0" xMax="599" yMax="745">
      <contour>
        <pt x="494" y="181" on="1"/>
        <pt x="494" y="0" on="1"/>
        <pt x="370" y="0" on="1"/>
        <pt x="370" y="181" on="1"/>
        <pt x="28" y="181" on="1"/>
        <pt x="28" y="259" on="1"/>
        <pt x="418" y="745" on="1"/>
        <pt x="494" y="745" on="1"/>
        <pt x="494" y="287" on="1"/>
        <pt x="599" y="287" on="1"/>
        <pt x="599" y="181" on="1"/>
      </contour>
      <contour>
        <pt x="370" y="529" on="1"/>
        <pt x="175" y="287" on="1"/>
        <pt x="370" y="287" on="1"/>
      </contour>
    </TTGlyph>
    <TTGlyph name="four.num" xMin="13" yMin="336" xMax="339" yMax="746">
      <contour>
        <pt x="207" y="408" on="1"/>
        <pt x="13" y="408" on="1"/>
        <pt x="13" y="474" on="1"/>
        <pt x="216" y="746" on="1"/>
        <pt x="287" y="746" on="1"/>
        <pt x="287" y="476" on="1"/>
        <pt x="339" y="476" on="1"/>
        <pt x="339" y="408" on="1"/>
        <pt x="287" y="408" on="1"/>
        <pt x="287" y="336" on="1"/>
        <pt x="207" y="336" on="1"/>
      </contour>
      <contour>
        <pt x="207" y="476" on="1"/>
        <pt x="207" y="628" on="1"/>
        <pt x="94" y="476" on="1"/>
      </contour>
    </TTGlyph>
    <TTGlyph name="fourfifths" xMin="13" yMin="-17" xMax="799" yMax="750">
      <component glyphName="four.num" x="0" y="0" flags="0x4"/>
      <component glyphName="five.den" x="475" y="0" flags="0x4"/>
      <component glyphName="fraction" x="350" y="0" flags="0x4"/>
    </TTGlyph>
    <TTGlyph name="fraction" xMin="-226" yMin="-17" xMax="351" yMax="750">
      <contour>
        <pt x="-226" y="25" on="1"/>
        <pt x="36" y="387" on="1"/>
        <pt x="290" y="750" on="1"/>
        <pt x="351" y="708" on="1"/>
        <pt x="89" y="347" on="1"/>
        <pt x="-166" y="-17" on="1"/>
      </contour>
    </TTGlyph>
    <TTGlyph name="g" xMin="39" yMin="-224" xMax="477" yMax="435">
      <contour>
        <pt x="477" y="-22" on="1"/>
        <pt x="477" y="-78" on="0"/>
        <pt x="450" y="-155" on="0"/>
        <pt x="398" y="-203" on="0"/>
        <pt x="324" y="-224" on="0"/>
        <pt x="278" y="-224" on="1"/>
        <pt x="246" y="-224" on="0"/>
        <pt x="171" y="-213" on="0"/>
        <pt x="136" y="-203" on="1"/>
        <pt x="147" y="-103" on="1"/>
        <pt x="176" y="-113" on="0"/>
        <pt x="236" y="-123" on="0"/>
        <pt x="260" y="-123" on="1"/>
        <pt x="314" y="-123" on="0"/>
        <pt x="364" y="-78" on="0"/>
        <pt x="364" y="-24" on="1"/>
        <pt x="364" y="28" on="1"/>
        <pt x="343" y="11" on="0"/>
        <pt x="286" y="-8" on="0"/>
        <pt x="249" y="-8" on="1"/>
        <pt x="204" y="-8" on="0"/>
        <pt x="127" y="22" on="0"/>
        <pt x="71" y="77" on="0"/>
        <pt x="39" y="157" on="0"/>
        <pt x="39" y="208" on="1"/>
        <pt x="39" y="255" on="0"/>
        <pt x="73" y="338" on="0"/>
        <pt x="130" y="399" on="0"/>
        <pt x="206" y="435" on="0"/>
        <pt x="248" y="435" on="1"/>
        <pt x="286" y="435" on="0"/>
        <pt x="345" y="414" on="0"/>
        <pt x="368" y="396" on="1"/>
        <pt x="368" y="427" on="1"/>
        <pt x="477" y="427" on="1"/>
      </contour>
      <contour>
        <pt x="364" y="301" on="1"/>
        <pt x="347" y="319" on="0"/>
        <pt x="298" y="344" on="0"/>
        <pt x="268" y="344" on="1"/>
        <pt x="216" y="344" on="0"/>
        <pt x="152" y="270" on="0"/>
        <pt x="152" y="207" on="1"/>
        <pt x="152" y="153" on="0"/>
        <pt x="213" y="81" on="0"/>
        <pt x="271" y="81" on="1"/>
        <pt x="300" y="81" on="0"/>
        <pt x="347" y="104" on="0"/>
        <pt x="364" y="124" on="1"/>
      </contour>
    </TTGlyph>
    <TTGlyph name="gbreve" xMin="39" yMin="-224" xMax="477" yMax="633">
      <component glyphName="g" x="0" y="0" flags="0x204"/>
      <component glyphName="breve" x="42" y="0" flags="0x4"/>
    </TTGlyph>
    <TTGlyph name="gcommaaccent" xMin="39" yMin="-224" xMax="477" yMax="756">
      <contour>
        <pt x="212" y="584" on="1"/>
        <pt x="212" y="606" on="0"/>
        <pt x="229" y="655" on="0"/>
        <pt x="260" y="702" on="0"/>
        <pt x="305" y="742" on="0"/>
        <pt x="333" y="756" on="1"/>
        <pt x="345" y="737" on="1"/>
        <pt x="315" y="711" on="0"/>
        <pt x="284" y="661" on="0"/>
        <pt x="276" y="633" on="1"/>
        <pt x="307" y="631" on="0"/>
        <pt x="342" y="594" on="0"/>
        <pt x="342" y="568" on="1"/>
        <pt x="342" y="542" on="0"/>
        <pt x="307" y="506" on="0"/>
        <pt x="281" y="506" on="1"/>
        <pt x="247" y="506" on="0"/>
        <pt x="212" y="552" on="0"/>
      </contour>
      <contour>
        <pt x="477" y="-22" on="1"/>
        <pt x="477" y="-78" on="0"/>
        <pt x="450" y="-155" on="0"/>
        <pt x="398" y="-203" on="0"/>
        <pt x="324" y="-224" on="0"/>
        <pt x="278" y="-224" on="1"/>
        <pt x="246" y="-224" on="0"/>
        <pt x="171" y="-213" on="0"/>
        <pt x="136" y="-203" on="1"/>
        <pt x="147" y="-103" on="1"/>
        <pt x="176" y="-113" on="0"/>
        <pt x="236" y="-123" on="0"/>
        <pt x="260" y="-123" on="1"/>
        <pt x="314" y="-123" on="0"/>
        <pt x="364" y="-78" on="0"/>
        <pt x="364" y="-24" on="1"/>
        <pt x="364" y="28" on="1"/>
        <pt x="343" y="11" on="0"/>
        <pt x="286" y="-8" on="0"/>
        <pt x="249" y="-8" on="1"/>
        <pt x="204" y="-8" on="0"/>
        <pt x="127" y="22" on="0"/>
        <pt x="71" y="77" on="0"/>
        <pt x="39" y="157" on="0"/>
        <pt x="39" y="208" on="1"/>
        <pt x="39" y="255" on="0"/>
        <pt x="73" y="338" on="0"/>
        <pt x="130" y="399" on="0"/>
        <pt x="206" y="435" on="0"/>
        <pt x="248" y="435" on="1"/>
        <pt x="286" y="435" on="0"/>
        <pt x="345" y="414" on="0"/>
        <pt x="368" y="396" on="1"/>
        <pt x="368" y="427" on="1"/>
        <pt x="477" y="427" on="1"/>
      </contour>
      <contour>
        <pt x="364" y="301" on="1"/>
        <pt x="347" y="319" on="0"/>
        <pt x="298" y="344" on="0"/>
        <pt x="268" y="344" on="1"/>
        <pt x="216" y="344" on="0"/>
        <pt x="152" y="270" on="0"/>
        <pt x="152" y="207" on="1"/>
        <pt x="152" y="153" on="0"/>
        <pt x="213" y="81" on="0"/>
        <pt x="271" y="81" on="1"/>
        <pt x="300" y="81" on="0"/>
        <pt x="347" y="104" on="0"/>
        <pt x="364" y="124" on="1"/>
      </contour>
    </TTGlyph>
    <TTGlyph name="gdotaccent" xMin="39" yMin="-224" xMax="477" yMax="620">
      <component glyphName="g" x="0" y="0" flags="0x204"/>
      <component glyphName="dotaccent" x="57" y="0" flags="0x4"/>
    </TTGlyph>
    <TTGlyph name="germandbls" xMin="66" yMin="-94" xMax="531" yMax="740">
      <contour>
        <pt x="394" y="223" on="1"/>
        <pt x="459" y="205" on="0"/>
        <pt x="511" y="129" on="0"/>
        <pt x="511" y="80" on="1"/>
        <pt x="511" y="36" on="0"/>
        <pt x="475" y="-29" on="0"/>
        <pt x="415" y="-73" on="0"/>
        <pt x="335" y="-94" on="0"/>
        <pt x="291" y="-94" on="1"/>
        <pt x="277" y="-94" on="0"/>
        <pt x="246" y="-91" on="0"/>
        <pt x="231" y="-89" on="1"/>
        <pt x="242" y="3" on="1"/>
        <pt x="255" y="1" on="0"/>
        <pt x="279" y="-1" on="0"/>
        <pt x="290" y="-1" on="1"/>
        <pt x="344" y="-1" on="0"/>
        <pt x="399" y="40" on="0"/>
        <pt x="399" y="78" on="1"/>
        <pt x="399" y="108" on="0"/>
        <pt x="353" y="150" on="0"/>
        <pt x="299" y="150" on="1"/>
        <pt x="291" y="150" on="0"/>
        <pt x="273" y="150" on="0"/>
        <pt x="263" y="148" on="1"/>
        <pt x="256" y="162" on="1"/>
        <pt x="369" y="333" on="1"/>
        <pt x="179" y="333" on="1"/>
        <pt x="179" y="0" on="1"/>
        <pt x="66" y="0" on="1"/>
        <pt x="66" y="531" on="1"/>
        <pt x="66" y="630" on="0"/>
        <pt x="156" y="740" on="0"/>
        <pt x="250" y="740" on="1"/>
        <pt x="270" y="740" on="0"/>
        <pt x="303" y="736" on="0"/>
        <pt x="320" y="731" on="1"/>
        <pt x="307" y="635" on="1"/>
        <pt x="298" y="637" on="0"/>
        <pt x="276" y="639" on="0"/>
        <pt x="265" y="639" on="1"/>
        <pt x="221" y="639" on="0"/>
        <pt x="179" y="593" on="0"/>
        <pt x="179" y="531" on="1"/>
        <pt x="179" y="427" on="1"/>
        <pt x="526" y="427" on="1"/>
        <pt x="531" y="415" on="1"/>
      </contour>
    </TTGlyph>
    <TTGlyph name="grave" xMin="131" yMin="479" xMax="368" yMax="667">
      <contour>
        <pt x="335" y="479" on="1"/>
        <pt x="131" y="570" on="1"/>
        <pt x="184" y="667" on="1"/>
        <pt x="368" y="532" on="1"/>
      </contour>
    </TTGlyph>
    <TTGlyph name="greater" xMin="39" yMin="45" xMax="356" yMax="532">
      <contour>
        <pt x="105" y="45" on="1"/>
        <pt x="39" y="115" on="1"/>
        <pt x="224" y="290" on="1"/>
        <pt x="39" y="465" on="1"/>
        <pt x="105" y="532" on="1"/>
        <pt x="356" y="289" on="1"/>
      </contour>
    </TTGlyph>
    <TTGlyph name="greater.lin" xMin="39" yMin="127" xMax="356" yMax="614">
      <component glyphName="greater" x="0" y="82" flags="0x204"/>
    </TTGlyph>
    <TTGlyph name="guillemotleft" xMin="48" yMin="9" xMax="432" yMax="336">
      <contour>
        <pt x="326" y="9" on="1"/>
        <pt x="221" y="173" on="1"/>
        <pt x="326" y="336" on="1"/>
        <pt x="432" y="336" on="1"/>
        <pt x="323" y="173" on="1"/>
        <pt x="432" y="9" on="1"/>
      </contour>
      <contour>
        <pt x="153" y="9" on="1"/>
        <pt x="48" y="173" on="1"/>
        <pt x="153" y="336" on="1"/>
        <pt x="259" y="336" on="1"/>
        <pt x="150" y="173" on="1"/>
        <pt x="259" y="9" on="1"/>
      </contour>
    </TTGlyph>
    <TTGlyph name="guillemotleft.cap" xMin="48" yMin="207" xMax="432" yMax="534">
      <component glyphName="guillemotleft" x="0" y="198" flags="0x204"/>
    </TTGlyph>
    <TTGlyph name="guillemotright" xMin="40" yMin="9" xMax="425" yMax="336">
      <contour>
        <pt x="320" y="9" on="1"/>
        <pt x="213" y="9" on="1"/>
        <pt x="323" y="173" on="1"/>
        <pt x="213" y="336" on="1"/>
        <pt x="320" y="336" on="1"/>
        <pt x="425" y="173" on="1"/>
      </contour>
      <contour>
        <pt x="147" y="9" on="1"/>
        <pt x="40" y="9" on="1"/>
        <pt x="150" y="173" on="1"/>
        <pt x="40" y="336" on="1"/>
        <pt x="147" y="336" on="1"/>
        <pt x="252" y="173" on="1"/>
      </contour>
    </TTGlyph>
    <TTGlyph name="guillemotright.cap" xMin="40" yMin="207" xMax="425" yMax="534">
      <component glyphName="guillemotright" x="0" y="198" flags="0x204"/>
    </TTGlyph>
    <TTGlyph name="guilsinglleft" xMin="48" yMin="9" xMax="259" yMax="336">
      <contour>
        <pt x="153" y="9" on="1"/>
        <pt x="48" y="173" on="1"/>
        <pt x="153" y="336" on="1"/>
        <pt x="259" y="336" on="1"/>
        <pt x="150" y="173" on="1"/>
        <pt x="259" y="9" on="1"/>
      </contour>
    </TTGlyph>
    <TTGlyph name="guilsinglleft.cap" xMin="48" yMin="207" xMax="259" yMax="534">
      <component glyphName="guilsinglleft" x="0" y="198" flags="0x204"/>
    </TTGlyph>
    <TTGlyph name="guilsinglright" xMin="44" yMin="9" xMax="255" yMax="336">
      <contour>
        <pt x="150" y="9" on="1"/>
        <pt x="44" y="9" on="1"/>
        <pt x="153" y="173" on="1"/>
        <pt x="44" y="336" on="1"/>
        <pt x="150" y="336" on="1"/>
        <pt x="255" y="173" on="1"/>
      </contour>
    </TTGlyph>
    <TTGlyph name="guilsinglright.cap" xMin="44" yMin="207" xMax="255" yMax="534">
      <component glyphName="guilsinglright" x="0" y="198" flags="0x204"/>
    </TTGlyph>
    <TTGlyph name="h" xMin="57" yMin="0" xMax="466" yMax="733">
      <contour>
        <pt x="352" y="0" on="1"/>
        <pt x="352" y="264" on="1"/>
        <pt x="352" y="305" on="0"/>
        <pt x="319" y="341" on="0"/>
        <pt x="285" y="341" on="1"/>
        <pt x="256" y="341" on="0"/>
        <pt x="195" y="307" on="0"/>
        <pt x="171" y="281" on="1"/>
        <pt x="171" y="0" on="1"/>
        <pt x="57" y="0" on="1"/>
        <pt x="57" y="733" on="1"/>
        <pt x="170" y="733" on="1"/>
        <pt x="170" y="358" on="1"/>
        <pt x="243" y="435" on="0"/>
        <pt x="325" y="435" on="1"/>
        <pt x="396" y="435" on="0"/>
        <pt x="466" y="355" on="0"/>
        <pt x="466" y="292" on="1"/>
        <pt x="466" y="0" on="1"/>
      </contour>
    </TTGlyph>
    <TTGlyph name="hbar" xMin="3" yMin="0" xMax="466" yMax="733">
      <contour>
        <pt x="352" y="0" on="1"/>
        <pt x="352" y="264" on="1"/>
        <pt x="352" y="305" on="0"/>
        <pt x="319" y="341" on="0"/>
        <pt x="285" y="341" on="1"/>
        <pt x="256" y="341" on="0"/>
        <pt x="195" y="307" on="0"/>
        <pt x="171" y="281" on="1"/>
        <pt x="171" y="0" on="1"/>
        <pt x="57" y="0" on="1"/>
        <pt x="57" y="548" on="1"/>
        <pt x="3" y="548" on="1"/>
        <pt x="3" y="633" on="1"/>
        <pt x="57" y="633" on="1"/>
        <pt x="57" y="733" on="1"/>
        <pt x="170" y="733" on="1"/>
        <pt x="170" y="633" on="1"/>
        <pt x="312" y="633" on="1"/>
        <pt x="312" y="548" on="1"/>
        <pt x="170" y="548" on="1"/>
        <pt x="170" y="358" on="1"/>
        <pt x="243" y="435" on="0"/>
        <pt x="325" y="435" on="1"/>
        <pt x="396" y="435" on="0"/>
        <pt x="466" y="355" on="0"/>
        <pt x="466" y="292" on="1"/>
        <pt x="466" y="0" on="1"/>
      </contour>
    </TTGlyph>
</ttFont>
